<mxfile host="app.diagrams.net" modified="2024-03-19T12:01:27.653Z" agent="Mozilla/5.0 (Windows NT 10.0; Win64; x64) AppleWebKit/537.36 (KHTML, like Gecko) Chrome/122.0.0.0 Safari/537.36" etag="EjCx94dgACTyE6rcYsSE" version="23.1.5" type="github">
  <diagram name="Page-1" id="oKD9Rvl0AdR0lEtPZ_e4">
    <mxGraphModel dx="1323" dy="687" grid="1" gridSize="10" guides="1" tooltips="1" connect="1" arrows="1" fold="1" page="1" pageScale="1" pageWidth="827" pageHeight="1169" math="0" shadow="0">
      <root>
        <mxCell id="0" />
        <mxCell id="1" parent="0" />
        <mxCell id="IvPUubyeTkowdsRAXWPr-1" value="" style="shape=image;verticalLabelPosition=bottom;labelBackgroundColor=default;verticalAlign=top;aspect=fixed;imageAspect=0;image=data:image/png,iVBORw0KGgoAAAANSUhEUgAABWQAAANkCAYAAAAwXSOLAAAAAXNSR0IArs4c6QAAAARnQU1BAACxjwv8YQUAAAAJcEhZcwAAFxEAABcRAcom8z8AAP+lSURBVHhe7J0HmBTF1obH33i9VzGLiooJRURQUQxkJYgkFRUkKKCSJGeQKFGSSJAgknPOOScJiuQkixLFnPFelfN3zU4NZ5szMz2z3ds9vd/3PO+zu93VVTVVp89sf1tbE4AgCIJs0pgjnQwoCp1CJa3J7vogCIIgCIIgCIIgCIIgCIJ8IxiyEARBEARBEARBEARBEARBGSQYshAEQRAEQRAEQRAEQRAEQTYp1SCNQsoq46tknIYInheui0Q66xt1JG+o5xAEQRAEQRAEQRAEQRAEQUkm0RT1MKOOvB7qOQRBEARBEARBEJQEujpr3kOXXJmDQPKh5i40jRAEQZBtkkxPLwNDFoIgCIIgCIIgKKmkjL3tB4+CJETNXWgaIQiCINuU1uws4knGpIyCIQtBEARBEARBEJScgiGbvMCQhSAIckLckPWqUvePhSELQRAEQRAEQRCUhIIhm7zAkIUgCHJCMGQhCIKgjNSoI1cZNA6MSZll8GM4v2c4KduD/4Gh+qL6BEEQBEGQY4Ihm7zAkIUgCHJC/OHUq4IhC0EQ5A+NOvJ4YEzKqXBO9wxGn1TfIAiCIAhyRDBkkxcYshAEQU6IP5B6VTBkIQiCkl+pZuyZcD73IqOOVAj1FoIgCIIgGwVDNnmBIQtBEOSE+IOoVwVDFoIgKLk16shlqVsEsPecMSmrjK8qv7vD2JQPjT5sMr7nfVIrZbF9AQRBEATZLBiyyQsMWQiCICfEH0Ql8fNmzJLKaCRJ5RRmpT48p56DIQtBEJR8GnWkTjiPq1Wyo46UCp1xX6OOFDH6dCTcv7EpPUJnIAiCIAiySTBkkxcYshAEQU4o/IBsIImfN2OWVEYjSSqnMAuGLARBUHJrTMoklsfrhI56R8HtFEL9U6tmIQiCIAiyVTBkkxcYshAEQU4o/ABqIImfN2OWVEYjSSqnMAuGLARBUHJrTMo+lse9uSVAeJVsypnQEQiCIAiCbBIM2eQFhiwEQZAT0g/ICq8KhiwEQVByK/xek3IkdCR+pb4XxCZRwzd1T1tvvx9CEARBUJIKhmzyAkMWgiDICYUfkj38AJr6kJ3aRxiyEARByafwe026DNlz71fRGHUke+iK+ARDFoIgCIIcEwzZ5AWGLARBkBPiD7FeFQxZCIKg5Fb4vSY9hqwyTC0w6kjW0BXxKXh9qJ8QBEEQBNkqGLLJCwxZCIIgJxR+SPbwAygMWQiCoORW+L0mHYas04IhC0EQBEGOCYZs8gJDFoIgyAmFH5I9/AAKQxaCICi5FX6vgSELQRAEQZlRMGSTFxiyEARBTij8kBzhAZSfN2OWVEYjSSqnMAuGLARBUHIrnONhyEIQBEFQZhQM2eQFhiwEQZATCj8kR3gA5efNmCWV0UiSyinMgiELOalRR+oExqRMSmPGZGpSjgTHYmxKD2NsioRGCYLSJx5fXhUMWQiCIAhyTDBkkxcYshAEQU4o/JAc4QGUnzdjllRGI0kqpzALhizkhEYdyRsYk7IvHFsgAinqQ5IS+9R6CNI6F09nUo1PT/JjuJ8QBEEQBNkqGLLJCwxZCIIgJxR+SPbwAygMWchuqU9hD64EZfE/JuUUM2YyOXxcgmNzJDhmEJSozospjwNBEARBkK2CIZu8wJCFIAhyQsnwAApDFrJbY1P6h2NKrZLFv+an1agjlxlUCBqx58ZpVOgsBMWvcBwlCRAEQZDrIqILxk6Zc/eEKXMLDx4xKWe3ASOvb9a7979feumlC0NFoCQSDNnkBYYsBEGQE0qGB1Crhux5Kx5N4N+uIa0xKZtYXMCMjaRRRx4/dw95eO9PyPsKx1GSAEEQBLmujlOnXjJryZKWC1esPrVk5boDi5evXj570eKP5ixa2nba0hWVpy1aVPDjGTMe/mjclHsHDB+Xre+IEdf0nTLlX8alF6TWAHlJMGSTFxiyEARBTigZHkBhyEJ2K7iPZTguLgsdhSTxewiCEhWPo2QAgiAIcl01W7S4Yumq1YO+PHaUfvr5R/r1t1/o5KkTdPTEcdp1JOXsp7v3/PHJZ59+t/aTzYdWb9i0fuX6jdMWLF0+YP7ipc1XrFv36ooVq0vPW7684MTZsx8aPmlSjp7DxtzWZuTI66v27v1vo/r/S20FyijBkE1eYMhCEAQ5oVgPoPy8GUnKMBX3pEwX/N+m95nOcc6ZbCJqVaR4XSpQ5hGPCyi6MFaQHeJxlAxAEARBrqvjsGHXLV21ZsLJUyfpq6+O0MKF82nRgrm0dfMmOrBvD5049hX9+ON39Mcfv9LvZ36n337/nU6ePEEpKSl0+MjhP7fv/PzbTZs3f7Fmw/ptqzdsWL1y3doF85csnbBo+fJ+MxcsajNpzvxaY6bPKj183OTHh4yd/MCAcTOy9fpo9hUdOxLMWgcEQzZ5gSELQRDkhGI9gPLzZiTx1azJBpR5hHm3LowVZId4HCUDEARBkOv6aOLEmxevXDn31KkTtHzZEipaoiTdff8D9HC+fFTs6WL00ssvUa2aNah508bUv29vmj51En2ycR0d/uIAffvNKTr99Un6xvj63Xen6eeffwiusv3661N04vgxOnj4C9q1f9//Pt+15/ut27enbNy89bOVGzYsnb1w8cSxEyZ9OHnWjK4T5s6tN3vR0nIz5i58dNKsWbcOGjToPy+9NBX71yYoGLLJCwxZCIIgJxTrAZSfNyMJhiyUDMK8WxfGCrJDPI6SAQiCIMh1TZmz5I5la9auPH7iGE2eOJ5ebdSK6r7/MVXv1Jeeb9Kenq7ZkB57vgo9WLw8PVyqPD1V5nl6tmIleuW1GlTzrdpUv359atOqBb3XszsN/3AQTZsykdatWUl79+wMmrI///Q9nfnjN/rzzz+C2yF89+P39NWxo7R3317auXc3bdi6lZatXP3twiVLdy9btmLp0qXLJyxavnLI7EXLes9atLTtjPmLas+Yt6TSlAULik9cuPChCfPn3zll4cLrByxceGnoJUBMiRiy2/alUOFiz1DOXA/Qph0HYp77eNIM9R5OPfsPSlNWolqNN4NlFbUbNBHLpAdev4T0mrwKDFkIgiAnZPcDaFpDtlPoqHelPjneztcPJYfOxSjmPZYwVpAd4nGUDEAQBEGua8aqVQ+s3bRp+7HjX9HwEcOoYZ8hNOXL32jyl3/Q6AM/0bDd39DAT4/Rexu+oA6LP6NGk5bR64OnUcWeH1GZd/pT8SbvUtF6balgzcb0xMuvU/4yL9LjT5ekAoUL07MlilOVV16ium/VopZNG9N73bvSxPFjaN3aVbRv7y46+tUROnXqOH35VQodPnyIDh06EDRqt+/4nDZt3UprN234a9WGtb/MXrjw2+mzZqXMX7r0s3lLlq2evXjx7BkLFoycNn9+3ynzFnSeOn9hg5nzF70wd9myR2evX3/z1KlTLwm9vEwnLxmy81duoCuzZLFk3CaKMmT/9a/LaeUn28XzyQQMWQiCICdk9wMoDFkoGXQuRjHvsYSxguwQj6NkAIIgCHJds5eszP/5rl1HfvzhWxowaCDV6TmIxuz9lj7e8w0N23WaPtx5mgbv+oYG7PyW+u/4lvru+I56bf+Wum47TR03n6I2G45Rs9WHqf7iPVRj5hZ6ZcxKeu6DGVSo01B6pFE3yvVaU7qjTFW6pUApuvXxonRn/kKUM/9TlL9wESrz/AtUo2ZNatWyGfXt8x6NHvURTZ8+hRYtnk9r166kTZ+sp83bPqGNmzfQ+g3raP2mDbTG+Lp87SpavHIZzV+6mGYvXPD3zHnzfjP4ZtTESYdHjRnz6dTZsxdMmTXn4ylzFvSYOHduw4kz57w8bdayIuPmzn144cKF2YjIt1sieMmQVeUuvvhiGjd9rnjeDmDIQhAEQdFl9wMoDFkoGXQuRjHvsYSxguwQj6NkAIIgCHJdC5cufXrv/n3f//TTd9Tngw+obp/hNHrf9zR852ka8vkpGvTZSXr/sxPUZ9sJ6rnlOHXbfIw6b/yKOmw4Su3Wf0Wt1n1FzdcdpabrjlGjdcfp7XUnqK5BzVXHqOrSFKo4fx+Vmb6dik/aSoXGbqCHBy+ie7qOp2xN+tJ1r7ehq8q/QVeXqkzXlHyZri1alrI+VZxyFC5BBZ4rTxUqVaI367xFLVu3oM5dOlKvHu/SgP59aMSIITR+whiaPmMKzZ43i+YunEvzFs+n2cbXWfPn0KwFc2nyrOk0+KNh/7z/4eDf+w0e/EPfQYNODxo27PiocRPXjZ0xo1jo5ftOXjFkzVsJ8Os7du+d5px5KwN1baGiTwfbVeejmbrxGLKR6o3Wnp19jQUMWQiCICdk9wMoDFkoGXQuRjHvsYSxguwQj6NkAIIgCHJdi1asqHzgwP7/fv/daeo9YCA1GDSeRu37kYbu/JoGbT9J7396gvoZvLf1OHXffIze/eQoddrwFbVb9xW1WvslNV99hBqvSqG3DeosP0xvLfuCaiw9RFUWHaTKBhUXHaLnF31BZRYfplKLUqjYwsP01PwvKN/s/ZRz6i66c9xWunHkBrpk6GoKvL+YAu/NocC7UynQ9mMKNOhLF1VrTZc/+xpd8VgJuubB/JT1wUfp1twP0T0P5qHHnnySyj1fnt54qxa1at2cevTqSgMG9qMPhw6i4R8NoeEjh9HwUSNo2OiPaMjHw2noyBHU4YMPqOuHIz449fnn/w4Nga/k9RWyysDkx/S2BtzoVGVU/Vb2nFVl4zFkpXqjHbezr7GAIQtBEOSE7H4AhSELJYPOxSjmPZYwVpAd4nGUDEAQBEFu6/+WrFnT4sujX9HJY19R5979qcnIWfTx/h9pyPZT9MFnJ6n/thPUW5mxW47Tu58co04bj9I7678MmrEt1hyhZqtSqOHKFKq74jDVXvYFvbH0EFVffIgqLzxALy3YTxXm76cyc/dRCYNis/dSgVl76bEZe+nBGXvoXuPrndP20DVTd9P/Td5DgYm7KTBhFwXG7TTeJz6nwMefUWD4FgoM3kiBAWsp0Gc5BbrOpUCrcRR46z0KVGxGgaJV6II8z9DFOR+nf9//GF1z/yOU7cFH6aHCz1Dx51+kyq+/Rh27dqZho0dQ/yEfUJ2mzalDr76frFq1KXtoDHwlLxuykqGpUKtQeblETNZI8D5Gqlc67kRfYwFDFoIgyAnFegDl581IiseQ5XVxzJLKaLik85pIgiGbOWUlNqBUYawgO8TjKBmAIAiCXFWDBgMuXbpmzQdfnz5NB/fvoebv9qLWU1fQR/t+CK+O7bstdXVscKuCTUep40a1VcGX1HLtEWqmV8euPBw0ZN9Y9gW9viR1dWylhQfohQX7qdy8/VR63j56eu4+KjR7Lz0xay/lm7GHHpi+m+6euotumryTLpu0gwITDMZ+brw/bKfAaANlxio+MhixjQLDP6XA0K0U+HALBYYYXxWDDQZsokCvVRToPJ8CLSdRoP4wCtToQ4FXu1CgbDO68KFnqXq1ajRuygTq+X4ferF6DWrRuetXC5auzh0aBl/Jy4astGJWYf7wL2VySn2RiMcQjVSvdNyJvsYChiwEQZATivUAys+bkQRDFkoGWYkNKFUYK8gO8ThKBiAIgiBXNWDAuCuXrl4368effqRPt3xCddp2pncXbaNhe76jAZ+dpH4hM7bHluPUZdMx6rRBrY4NbVWw5gg1WX2EGqjVscsPU22DWksPBQ3ZqgYvLzpIFRbspzLz91GJeXupyJy9VHDWXso/Yw/lnrqL7pmyk+6YvJOyTtpBl0/YQf83/nMKjA2ZsaOVGfspBUYaDN9GgaFbKPDhZgoM/oQCgzZR4AO1YnYDBd436GfQd30qvUP0UhjH311D/67SherVeZM+Hj+KOvXsRsWff5matu98csUnn+QJDYOvBEM2MjBkIQiCMqNiPYDy82YkwZCFkkFWYgNKFcYKskM8jpIBCIIgyFW9N2hU1mVr1m/744/faOmiBfTy282p97oDNGTHN2Eztufm49Q1+EFeR6n9+q+ozbqvqMWaL6nJqiPBrQreXnGYGhjUMai69FBwi4JnZu6mRyZ9TveP+ZTuHbmFsg/bTNk+/IRuGfwJZR24ia4asIGueH8DXWlwhfH95Qb/98GGVJNVma2DDAZvosCQT1JXxCozVn2vjg0MmbH911Ogn0GfdRR4b20qPVdToLtBt1UGxte2C+nGl1tRx3YtaPBHQ6l1p/ZU8Nly1PSdzsdWb92KFbIh3DZkzfV52ZBNT19jAUMWgiDICdn9ABqPIesFwZDNnDoXo5j3WMJYQXaIx1EyAEEQBLmqD0eNyr5y3bqUP/88Q+PGjKLir9WhDz49TgM//zq8VYH+IK8OG49S2/VfUet1qatjm64+EvzaYFUKPTd3L+Ubt53uGbqZbvhgI13RZy1d1H0VBbqsoECnZRToYNB+qYHx9Z3QV0XwuPpqHFPfdzTotJwCnQ3eXUmBbgY9jXp6raFAb4O+aykwYD0FlHkbXB2rDVnjnKKHMmSN8l3VtcbPzWbSXS82pEH9e1O/wQOoYevmVLBUWWrZsdtnW3ftuis0DL5SIoasQu2NKhmbm3cdoqw335JmL1WzKRkJs6kZz76sbhuyTvQ1FjBkIQiCnJDdD6AwZKFk0LkYxbzHEsYKskM8jpIBCIIgyFWNnTz5gQ0bN379559/UP/+falQtbo0ZPf31P+zk6lbFYTMWPVBXu1Cq2OVIdt0dQpVW3yQikzZSXcP/YT+3Wt1qpGqTFVtsgYNWGW0akLntPFqRh8Pnw/VFy5j1KHM3XdXpJquynxVJqwyazXajFVluq2lQOOplPeV+jR5wljqNaAPvdmoARV57gVq826v2Sd/+eX60DD4Sokastp4NZuLkuGZqCGrUPVJJm3RZ0qmKeO2IauP29nXWMCQhSAIckJ2P4DCkIWSQediFPMeSxgryA7xOEoGIAiCIFc1efbsolu2bPnp119+pI6dOlKxt5rRh/t/pj5bT1DPLcep6yepWxV03HCU2huoFbGVF+ynfGM+o+v6r6cL1QpYteI1uOo1ZLryla/KSFWrXVU5ZZJy1DF1Tpms2ojVaENWmbwa9XMak9b4XtetTFhtxOq6u66lQKPJ9HT1BjR7znTq2f89qvbWm/RYuYrUuFufgUR0eWgYfKVEDVmF3p7AqCaMZDamx5BVqFWmvA3zKtR4TE5Vltdlxspq1mjt2dnXWMCQhSAIckJ2P4DCkIWSQediFPMeSxgryA7xOEoGIAiCIFc1dca86p9++un/vjl1nN5u3Iiea9GNPjzwK/Xecpy6bT5GXTYdpS5q79gNX9EbSw9R3lHb6Mqea+gCZZAGjdglqUZsx2XBYxd2XUGX915DVw7cSNcM20LZjfL3j/2M7lfbGYz7jO4Y/RndMvpTum7Up3TlyG10yYitoQ/r2pS6BYHafkDtA6vMVW7Wms1ZhTZopXOKLqvpgobjqXLdpjRz7kzq3rcnvVitOhV6tiK16dynJRFdEBoGXyk9hixwFxiyEARBTsjuB1AYslAy6FyMYt5jCWMF2SEeR8kABEEQ5KYumLNoSfsvv/rybMrBffRa7XpUtd84GrT3J+q5+Rh1/eRocIVsszUpVHDaLvqP2h5ArXpttyRoxl7QcTld1nUlXdlnLd08fAvln/Q5PT1jN5WcvZdKGBSevY+emr2Hnpy5lx6esYdyTt9Nd03ZRTdM3kWXTtpJF47fQReM22G8H2ynwKhPKTDSYMQ2Chh1BYZspsBAZdKuT/2wLrUVgdpTNmjSKrRRG8Gs7bQiyKX1hlPd5q1p3OTx1PW9blS64sv0dNkX/9u17wfVQ2PgO8GQTV5gyEIQBDmhWA+g/LwZSfEYsrwujllSGQ2XdF4TSTBkM6esxAaUKowVZId4HCUDEARBkGt65K23Lp63bNlH3373Le38bCtVrduQmkxbS/12fkc9thylbp8cpTpLD9H9w7bQRWobgJARe1GX5XRt//X00OhP6elpu6jMnH300sID9NKiA1R+wQEqM38/lZi7nwrP3ktPzNxD+WbspvuNcndM3UVZJ++kf03aQYEJBuM+p8DY7RQY/RkFPv6UAh+FDFm1atZoM/DhJxQYbKCM2QEbUz/AS32wl/qQL/VhX2pbAmW+SoZsZ+Nc+yWUpUZvatuhIw356EPq2K0zFX2uPBV/odL3A0Z8XDY0DL4TDNnkBYYsBEGQE4r1AMrPm5EEQxZKBlmJDShVGCvIDvE4SgYgCIIg19Rx1Kir5i5bsfjnX3+iDWtW0sv1GlOnNQep9/bT1H3LMaq6YD/d1G9dqhFrcEHn5XTtBxuoyNSdVG3RAaq59BC9ZlBl0UF6acEBKj9/P5Wet4+Kz90XXB2rVsbmm7GHck/fTTmm7qJsU3ZRFrUydiI3Yw2CZuy2VIZrM1ZtY/AJBQZtooDRZnA7g/7rKaD603dt6od5qa0Nzls5G6KLcaz1fLqhYivq1bMH9R7Qh1p2aEf5ny5JZV59/ci4SdOKhIbBd4Ihm7zAkIUgCHJCdj+AxmPIekEwZDOnzsUo5j2WMFaQHeJxlAxAEARBrun9MWNuW7R69bbff/+VliyYSxXqN6P3dnxLPbaeoEoL9tNVfdZSoO0SCnRYGjRmH5v4OVVe9gU1WplCby49RNUXH6JXFx2kVxYcoArz91OZefup1Nx9VGzOPioway/ln7GH8k7fTfep1bFTdtJ1k3fSxcqMHa/MWAO1VYFaHau3KlAM20qBoWrLgpAZG1wdq81YA7XHbG9myPYw6LaKAl1XpK6KDRuyxrEWs+mm8vXog/596d1e79LbzZtS3kJP0ytv1Pt8ybp1j4SGwXeCIZu8wJCFIAhyQnY/gMKQhZJB52IU8x5LGCvIDvE4SgYgCIIg1zR62pxcqzZ+svfXX36iyZPG0/NNO9AHB36jV+fvpyuV4dlqMf27xyp6fMyn9NqiA9RodQq9veIwvbn8C6qx5BBVXXSQKi08QBUX7Kdy8/bTs/P20TNz9lEhtVXBrL308PQ9dP+03XT31F10y+SddNmknXSB3qpAm7GjlCEb2qZArY5VZqz+kC9lxn6wMXUfWWXG9l1HAWUSq20LehkoM7a7+gCwVanbF5gN2abT6PZyb9KgQe9Tx+4dqVb9unT/I09SjXpN1u4/cuS+0DD4TjBkkxcYshAEQU7I7gdQGLJQMuhcjGLeYwljBdkhHkfJAARBEOSaxs+Z89TGTz9L+fbbr+nDDz+kSh36UPNt39MNakuANovpmj5rqezsPdR8zRFqYlB3RQrVXvYF1Vz6BVVbElodu/AgvbhgP5Wdv59Kzd9Hxebuo0Jz9tLjM/dSnhm76b7puyn71F109eSd9H/B1bHbU1fHKiNWbVUw0viq94wdanxVH+YV3KpgY+pWBcHVsQaqT8qMVUZxr9DKWGXGqr1k1ZYF2ogNG7LGsSZT6dFX6tGHQwdS+64dqHLNmpTrkcepUas2S34kyh4aBt8JhmzyAkMWgiDICdn9AApDFkoGnYtRzHssYawgO8TjKBmAIAiCXNOU+fOf+3z37pNffXmYevXqReW6DKaHJu2jQPtldM+QTVRt8QFqte5LarLqCNVXZuzy1NWxtQyUIVtuwX56ZvY+KjRtF+WfvJPyTvicHhi3ne4fu53uGfMZ3T7mU7pl7Gd0rcFlar9YtVVBcHUsM2T1vrHhlbF639iNqWas2js2uFWBWhlroFbGBveODZmxXQ34ytgwK+n/mk2jsvXapBqy73agcpUq06NFi1PXfv2mElHW0DD4TjBkkxcYshAEQU7I7gdQGLJQMuhcjGLeYwljBdkhHkfJAARBEOSaZi1Y/Mqegwe+O7B3JzVu24ZubjKQLuy5nvKO2Epvr/iC2qz/kpquPkINV6VQw5UpVMc49tLC/fTY1J1058fbKOvADZSl71q64r21dHmP1XRp91V0SfeVdEm3lXSx8fVi4+tFxrELe66mC5SRqkxVZbKqVbAfbU3dOzZsyBrH1L6xaqsCbcjqD/LqaxDcN9agp96qQO0bG1odKxqyK+ji5lOoRuuuNGjIAHqnS3sqWeF5KlCqLPUbMnTw2bNnrwwNg+9kxZDdvOsQZb35FvU+TLUbNBHLdOzeO3i+6DMlzzsHrKHGMNL4SsCQhSAIckKxHkD5eTOS4jFkeV0cs6QyGi7pvCaSYMhmTlmJDShVGCvIDvE4SgYgCIIg1zR/yfJahw4f+nn39i30wptvU6DmB/TAR59S41Up1G79V9Rs9Zf09srDVHPJQSoybTfdMmQTXdlrFV0YXJW6PPhhX4H2Bh2WWaeTgdrvVRmpyqRV2xIoI5absQNDq2P5B3kFtyowm7FGPcG9Y81mrEHH5XR5s4nUost71H9AX2rTsS0VfbY0PVO+Ig0cOaoTEV0cGgbfKV5DNmeuB2jTjgPnlalW483g+aIwZBNCjzEMWQiCILcV6wGUnzcjCYYslAyyEhtQqjBWkB3icZQMQBAEQW7pggUrVrTZd/DAma0b11Lx6nXojs5TqeGaL6nDhqPUYu2XVG3RQXpkzKd0Q7/1dJEyQJX5qg3YjgrBCI2FukZdqw1aZaZ2XZG6DUG/dakrY/XqWP1BXuGtCgyCWxWEDFnzB3mFMY4ZdV/VYDh16NqTevXpTi3btaKnnilO5SpX/3v8tBn1Q2PgS8VjyD5ZsDDdefc9tPKT7eedV8efLVsBhmyCwJCFIAjyimI9gPLzZiTBkIWSQVZiA0oVxgqyQzyOkgEIgiDIFQ1YuPDSRStXD9z22ad/r1y+lMrUaUyvTt5InTadoOZrv6RnZ+ym65RBqla0tlfm6dLEDNhYaINWETRnV1LgvZA5a14dG947dtW5rQokQ1Yda7+Urq35HnV6913q2qMzNW3ZjJ4o9jS98vqbv8xZuvSF0DD4UvEYskWfKRlcCduz/6A05z+eNCN8Tn3l5/TKWQ1fYbttXwoVLvZM0ITk5aRVuNHqkcqo863adz6vnN5aQcMN0PkrN9CVWbJQpx59wiuCFer1qteof7744otp3PS54eti1Rvrdep29fF//evy80xvCRiyEARBTsjuB9B4DFkvCIZs5tS5GMW8xxLGCrJDPI6SAQiCIMgVDRs2NcuyVWtn7D+4nxYvWUgVm71DzZfuoWZrvqSHJnyeaoy+45AJGw1tzr5rfN9rtWzG6tWx0vWKzqrvSyjrC02pfYf21LFLe3q7cQN6ougzVKNew+Obtn1eIDQMvlS8hqw2X/l5ZTIq01J95efUz9wQ1cakLqN/NroRNnl5W1br0WW4kakNUn6dOsbNVG2EavNU/8zrUfXyenTb8dRr5XVihSwEQZBXZPcDKAxZKBl0LkYx77GEsYLsEI+jZACCIAhyReNmzLhp+aq1Gw4c2k9zFs6lV9v1oIYrDtIjYz+ji9RKVbU1gWR2ZgTalA0asytS94w17x0rblUQQhmy7RbSbc9UoQ4d2lK7jm3prXp1qFCJUvR2y9Z7Pj945KHQMPhS8RqyymzMetPNYcNSnbst+x1BM5IbstqUNK+mVealNjwlc1PBDVgr9UhlzHWbTdJo9fAyemUsrzvWNeYyVl4nDFkIgiCvyO4HUBiyUDLoXIxi3mMJYwXZIR5HyQAEQRDkisbMnJ9z7rp1B/ce2EvTZ82kFzr2o8cm7Eg1NJUZm9ErYyWC2xmo75ed+yAwRcS9Y0N0Mcq0nkd3FSpHXTq3p7YdWtPrb9SgEuUqUNt3u68/dPr03aFh8KXiNWS1uagNSmVYalORG7IcvkJUYTYqzddwo5Ifj1SPMj+lbQR4PaqfUhlu5krGrnQdN1ut1GvldcKQhSAI8orsfgCFIQslg87FKOY9ljBWkB3icZQMQBAEQa5owty5T0xZvOTEzt07aMSYMZS9bne6sMdaCryzTDY53USvllXfq9W75vNm1ArZ5tMpb7Ey1LNHJ2rTviVVrlaFXqhclXp9MHj2yV9+uT40DL5UvIas+lkZkvp7ZSpqE9FsyKqfjSaCcPM0XkM2Vj38e16POq7rUd/rOiQSNWSt1AtDFoIgKJlk9wMoDFkoGXQuRg1SVoFosLGCoETF4ygZgCAIglzRlBnzn5s+a/a3n326mdq/148uqNQ51ciUDE6voVbNKmO2i4HavoATPG68jobj6NkXXqG+fbpRq7Yt6MVKL1P1N9+i4WPHjySiS0LD4EslYsgq41JtW7Bo9abwdgXqODdklZFpVG/pX/n1NRpuVFqpR32f6ApZjp0rZDkwZCEIgpJJsR5A+XkzktJryI46kt2gSAJcFaohPsGQzZw6F6MgHiAoUUnx5GUgCIIgVzRt3sKaM+fP/WXTpnX0RrM2FKjekwI91oSMzZDZKZmhbqON1+4rjf6uSv3gL446ZryO/6szmN6q34D69u5GLVo3pQoVn6fqDRrR4Kmz+oWGwLdKxJBVPysjtkmrdmFDUR03G7Jmo1Ibk/EasrHqkYxUXUbXo8uYDU9efyKGrJV6YchCEAQlk2I9gPLzZiSl15BNe711lCmbiGDIZk7x2EmNORCZc2MFQYkqHEcpPxpfpTizzNXvTNp+Y5MhpPl394WzpXLxk3LE+IpYhyAIclEzFy5uN2fhvP+uWrWUylR/gwJvD6HA+xsp0HsNBfoYaHNTfZBWt5WpBD9QyyC4h6tgljqFak+1rUzYXqH+9VtHgf7rKTDARH91fCNd/Nq71PHdd6lXzy7UpEUjKvtCeXqzYWMaN2de29AQ+FaJGLIKZSYal6cxELkhq41K/bNCGZnqmngMWSv16Gv4z7qM2TDm5qr5dSViyKqfY9ULQxaCICiZFH5IjvAAys+bkZT6YKvLwJCFvCkeO1B0YawgOxSOo5QjoSMJ68EiZUY9WKQsaXIXLvt66FT6xLfogCAIglzRrPmLBq7ZsI4WL5pLeUu/QIEOUygwbCsFBm8y2EiBgRsoMMDg/ZDJ2degz1oK9DZ4bw0Feq4OmbUGyiztGlq5qoxajWSuxouqUxnDyihWfXjf6NMgo3+DP6HAh5uNPm+hwFAD9VWhjg3eQv9+oRF98MEAerfrO9SgcT0qU6E81W3Y8EyXHn2bXXzFPZ0Ul1yZo/WlWe4twsgeGp6kVqKGrDIqjcvTmJfKYJTKaJT5OHjkuLhWjlqph1/Hy1SsVCVNPQpt1GqKsrYTNWT1sUj1Wn2dug5z3ZGAIQtBEOSEwg/JNj2AwpCFkkE8dqDowlhBdigcRzBkIQiCoIi6YMaCBVM2bdlEs2dNpWxPl6HAB0uMvPwZBT7eSoGRWygwYjMFhn9CgaGbKPChQpmgG1KN2g/0atS1FOhn0HdNqmHaW20bsIoCPQ2UidpNrWxVRu3y1C0Q4jVq1bU9jDr7Gm0oI3ag0YchRp+U8TpC9XOb8WzyaSqjQ18/Nhi6ma4rVZU+Gj6EOnRsQ3Xrv0nPlS9DdRo1PjZw5Ljnr78t30plfOV6pNQ/D+Yv86Pmhtse/VUd11x7y8MpN9yWb7tGG7mKi668uw43cy+//P6sobF1XarvktnnB8wGsd9QcxeaRgiCIMg2hR+SbXoAhSELJYN47HhFo45kTY3HlEnG93lDR92XF8cKSj6F4yj9huwDxV8ce+W7c8JxedGHn39h3DPpXz0EQxaCIMhVjVu48MrZCxau3bhlE40b+zFdW+J5CozbTIGpOykw6XMKTNxOgQmfGccMxn5q5GtleG6jwMcGH22lwAi1GlWtUFWEVtSqVatBs9YgaNYaKCM1uKp2DQXeU2atgVpZGzRr1apaA7UCVm+BEMb4WZm56hq1NYEyYlVbw412R35KF47+jC4ft52umfA53Thph8FOumHyTrrO+P4K4/uLhq6j20q9RMMGD6B277SkN+vUpKdLFqeqb7yxbeOOHbnVGFyc5Z6819+Wb5MyYkdOmieaY1PmryR1TlOvedcwFas2+p2buVffnPd3buZeny3fPm3kKgOYm7kGr3MzNxC4/bLgxNgkPxiy0mpd6ZjfgCELQRDkhPTDp10PoDBkoWQQjx2vaEzKrHP9StkeOuq+vDhWUPLpXGyn25BVe8imicvUeieFTicuGLIQBEGuasrs2ffOWbho7/qN62jgwPfp3y/UoMC8vanM2p3KzJ0UmL6LAtOMr1N3UGCKwWSDiZ9TYPx2Coz9zMjjBmplqjJq1WpVhVq5qozTYZtTTdQhm0xmrYHaBkEZrdqwVVsgaLNWfVV7xCpTV12ntiBQJrDRzkXjtlOWiTso+5SdlNvo26MzdtNTM/dQQYMCs/bQE8bXh2ftpdsGL6W85V+h9/v1olatm1KNmtWoVOlS9Gb9+gsO//rrjaFhCEoZoso0fbTgCz8qA1YyyRJh3IzFYSP3/eGT0pi5z1Ws/Ss3c/91Tc6/tJH7r6vv+0sbuUEz99Z8C7iZe8l/clRIa+aeLz8YsgrzlgHmbQb8CAxZCIIgJ8QfaO0QDFkoGcRjxytSJmy4XymnQkfdlxfHCko+nYvtdBuyl/VbezxNXNpUr1EHDFkIgiAXNW3uwqdnL1x0fOXqFdShSye6uF47CqxKocDSAxRYvI8CiwwW7qXA/D2pzN2dyuxdFJhlEDRrd1BgmsHUzykweTsFJoUY/5nBp6mGbXAbAWXUbgmtrFXbIBgEV9eqlbWh1bUD16casGorBPXzMOO4ukatzB2/nS6bsoNumL6L7lMG7Oy9VGLeXiq7YD+9aPDSogP0ysID9LJBRePn8gsPUb5+M+iFN+pS964dqWnzBlSlWiWq8EIFatu+/dgTRJeHhiGNLr0yRym1RUGBEpV/mr10g2iWZQSbd32RZlXue4PGpDFzVf+4mauNXMV/rs31hzJxL78m599S3cD7wJCFIAhyQvyB1g7BkIWSQTx2vCIVw8pUUp9CP+pIndBR9+XFsYKST+E4Sr9xemXXefvTxGVqvelfVQ5DFoIgyFVNnbeg+pyFC39csngB1W3SmC7oMYQCW45TYN1hCqz5IpVVhyiw4iAFlhssO5Bq1i7Zf86wXbCHAvNCZu0ck1k7I2TYBlfWKsNWb4MQMmzHqS0QQmZtcHXtltRtEEZuNd4blKFroFbkTt9FV83cQ/fP20eFFx6gsosPUqVlX1CNlV9Q7dUp9PaaFGq4LoUarzW+rjlC9Y1jtdd8RSV6j6em7TtTpw6tqVHjuvRK5Yr04ksvUrcePQYT0YWhYRClVqBefXPeE89VrP3rwjVbRdPMq6z9dG/QxHXTUAbpA4YsBEGQE+IPtHbIgiHLP4xFETqcKhiyUEZoTMoZFju27o/lO+lxwj0CpUfqDw3BODK+plN3Vm4+58IRe8/FpWLUkVKh04lrTMqmcH0QBEFQhmvynEUtZy+Y/+fc2dOpQvVqFJgwnwK7v6bAZ0cpsPWrVD4xcvSmFApsMFh/ONWsXavM2kMUWG2w8gAFlhsEzdqQUatQK2sXhFbXzjUImrUGM5VZazB9Z2hlrTZrja9qGwSF+n6GUWb2Lrpw3h66aeE+yrf4AJVefogqrT5MtdalUMONX1LLzUfpna1HqfOnx6nrZ8epu0FX4/vO245T+09P0Qt9RlOvgYOpXZtmVP/tt+jFihXolcqv0PsDP3yPiC4IDUNUqX1er8328KnKtZr/tmLjDtE8A8BuYMhCEAQ5If5Am2qGphO2wij1+/PK3NhkCHHSnufXx0PQWGX1WIX9mziUecTjbNSRCqGjkFlqbPQ42fEv4VDm1ZiUReyeuy90NCE9WKTMqPufrUI31+tLWRt8QNlfbd48dCp9Cv+hJmVf6AgEQRCUgZoyd2H3mQvmnp08aSw9XLIkBWYtp8AX3xp8R4FDxtf9pymw+yQFdh6nwOfHKLD9KAU+Ndj2JQW2Gmw22GTk8aBZa2BeWbsytLpWm7VqZa1aVRtcWRsya/XqWmXWqtW1yrhVBq5R5uIl++j25QepwKrDVH7tEaq+8Suqv/UYtfz0OHX6/AT13HmS+u8+RYP2fk1D952mYUZ/P9z3NQ3ac5re3/stvd5/FA3+6CNq1aIx1albi55/viy9Wr3KX8PHjWsbGgKLuv2yK65/sPnVN+X9/rU6bX5TK1AlEw0Au4AhC0EQ5ITCZgsIjQiUGTTqSOtzc59yyvj58dAZSGvUkdfPGVQGY1P6h85AUPxS8WNTLClDlv+XRe7CZV8PnUpcapsQ3T/1AXsQBEFQhkqtEJ08a96gGfPn0KRpE6le0yaUt0ETuvzNehRo3JoCH46mwOqtFDh4igJf/UiBw99RYL/xvWKfwR6DoFlroMxatap2m1pZ+yUFthgEV9YabDTQK2uVUatW1QbN2oNpzdrFIdSWCMsP0kWrD9Otaw9TwQ0p9PwnX9HrW49Ro89PULtdp6j7nq/p/f2naejBb2j04W9pYsp3NPXL72mawdQj39OklO9p9BffU5NBH9PQEcOoefMGVLv261S+fGl6vdZrv46dMqVuaBji1O2XXXvLQ52uveXhH2s37nwGxixwChiyEARBTij8AApCIwJlBqltCvi/JwdRP6uVs8DgiGlsVgXHDIIS1agjeY044luFNA6diVu2G7LmPz7Ysf0BBEEQFJc+mj37imlz50+aOX8uTZszg+YunEdz586iMWNHU/eePahmg7fp2Ro16dG6b9MdHbrQtR8MpcvGT6cL5y2nC9ZspcC2AxTY9SUF9h6jwP6TFDj0DQUOfkuBA8bXfV8b505QYMdxCmw3zqtVtQq1BYJaVftJaGVt0KwNraxdG2JdCl2w8UvKuvkoPbH1KD3/2TGqueMkNd59ijoZ9b538Bsa9MW39LEyXr/6gWYd/4kWnfiZlp36hVaEWHLyF5qe8i217D+Y+vTpTU2a1Kc33qhO5cqXpLfqvvHd9LmLXw0NQ2LKcvtVV92ct+eN2fN/16J9v7/UB3BJphqIj2o13qScuR6gTTsOiOcl1DXGjFDRZ0qedy49mPti/rlj995Uu0GTNNfYCQxZCIIgn4g/SCtChyEoYzXqSNYA/zdqIDM25UNjrK4KjRoEJa6xKT3SxlfwQ+ykPwhE5bL+a7//T6+lpLlw2K4dUjmLhPa2DfdpUqi3EARBUAZqwvx1V0+ZPbf75Bkzdo6fNuXk8NGj/pgyczrNmD2TpkybROPHjaaJ40bR+LGjaMiHg6hDl870RuNGVLFePSrVoiU93q0X3TvgQ7p++Bi6fMxkCkydR4Gl6ymweTcF9h2jwJHvKHD0p3Oraw+epsDekxTYddy0BUJor1q1slZ9/fQoXbf9GD264ziV3XWCqhvXNNr3NbU3rn/v8Dc02Kh31Fc/0LTjP9KCUz/RytO/0MZvf6Ut3/9G20Js/uF3WnD4FDU3+vhOu9bUuGEdqlWrGlWo8DTVb/DaVwtXbCodGoZ06fLL7896TbaHhl+f7ZGf3+07QjTWgHXiNWTnr9xAV2bJQi++8ipdfPHFNG76XLFcIkTry+ZdhyjrzbfAkIUgCIJiC4Ys5CmNOlIpaDrKZo0d7Etr+NhJYoaWBZRR3ckYm3Tt9QlBaZS6Mv3cByl6DiPu8ccHCIIgV9SxY8f/mzBh/tVTp869bcLcuU9MnjGr3sSZcz6eNHnGugkTJ+4ZMmLEyYEjhp4ZMW40DR89koYOH0J9B/annr26Ub9+fejjMR/TpBnT6MOxo6lR27ZUrGJFyl22HN1VoxZd3/09unzCVAosWU0BtZr2k10U2JVCgQMnKXD4Wwp8+YPBjxQ4Ynw9pLZC+JoCe09QYM8JumLvScqz/xSVPniaqh46TfUPf0NtjnxH3Y9+TwOP/0Afn/yJpnz9My389lda891vtOWH32nnT3/Q/l/O0KFfz9BBg/2//ZcW702hhm3aUoMGdejt+m/S669VovIVStHbTRrsWrXuE1u3zlLG7HXZ8k274bZHf31v0BjRYAOxideQVatU//Wvy2nstDlBY9ZOgxSGLARBEGSLYMhCmUrBf4eWzB9b6BRqBYKSR8EPiwsa/+e2CXCNlFPBvmCbAgiCIE9q7JIl/56zZM0dMxcuKTFt/sImk2fNHT5+ypQFI0eP2fLeRyMO9njvva97vtfrTL8PB9OIiRNpzJQpNGrChKBBO3rUCBo2ZBD16dGDGtarR6Vffonyv1KJHmjQiO7u3Y+yjZtEV81eRP+3YAUFFq2mwOotFPjsAAVSTlPg61/p4u/OUI7Tv1GJ4z9RpWM/Uu2j31NLgy4nfqB+J3+kEV//RBO//ZXmfvcbrfzxd/rkxz9o589n6Ivf/qTjf/yPTp/5H500OP7ff2jhpzuoTsMG9GatalS/bi2qXrUivVCxNDVu22zDlh377g29XFt1aZZ7s19/a74Fd+Ys/NP7wyeJRpsfUGal8XLDcONy274UKlzsmaBZyctJ5qb5fMVKVSwbstoULRraqkAyUHVfdBmNVDZWX/Q10+YvC5q/uqwyhFd+sj1cj13AkIUgCPKJYMhCmUowZCHIVhnvG6v4e0iews8VCZ2CIAiCfC4i+r+Fa9deP2vB6tyzFy8vOmH27Epjpk9vPWba9BGjp0xfMWbKjD3DJ0z+rs/gwdR34AAa8vFImrloMc1YsIBGjB5N3bt1ofZtWlCXd9pSly6dqWHHjlSpbVsq2qo1PdL6HcreoQv9p+8ACowYTf83Yz7du34rlTz4Fb3+3W/U4re/qevvf1O/X/5LQ388Q+N++J1m/vgHLf7pD1r/8xn67Be1GvZPOnbmv/T9f/+i3wx+Nvj+LNGM1WvpzTq1qfabr1Hd2jWoSuUKVOnl8tS5S9clOw4eyxZ6eY7o4iz35L3+tnwrH8xf5seRk+aJhluyYjYzzaan/tkYBurZf1DwmNk81fVwM1OtdlXXmI3SSHw8aUaaNsw/K6waslb6wq/BClkIgiDIsviDtCJ0GIL8KRiyEGSrjPcNGLIQBEFQGm0junjGmkU3zZq/5JEpsxc+P37G7PpjJ03pM3LSlMVjp836cvTU6WcGjfyYuvToRu90bEcffDSCps6dT1NnzabhI0ZQ3/e6UY9O7al965bUomULqteiOb3SrDkVrf825X2rDuVr1pKK9RtA1ecvond276cPTn5DE3/+lRb+8T9a+7+z9Nk/RPv/PktH/vqHThn89Pc/9KfBbwoiGjN7LtWpVze4OlaZspUqlqFq1V6ivgMHTtv51U9Xh16Go7o0y71Fbrgt33ZlzE6Zv1I03pIJvWcrNz0VeusAZWhqE9RsrHJDM1I9ZqM0GmYTVTJ9rRiyVvvCf4YhC0EQBFkWf5BWhA5DkD8FQxaCbJXxvgFDFoIgCLKk3buPXrNo2eonZsybV2XKzJmNPhzx8bKO3d6lDt260tAxY2n0lGnUb+gwav9uR+rSqxuNnDCBZsybSzNmz6YRHw6mTi2b0puvvkKVny9HlapUplrNm1PDXr2oYf/3qeH7/anxB4Oo/egx9MGChTRn++e0/dTXQUP2dyL6n8GvBn8bDB49mho1bkRNGtalN2tWpVdeLE21alWh4WPGjlBmcqi7GSJlzF57y8MpBUpU/skPxqyCr4RVmA3ZolFMUGXgSh/CpY5bMWS1iWo2RM0mrZ19gSELQRAEJST+IK0IHYYgfwqGLATZKuN9A4YsBEEQFFGb9u3LvmrD1ooL165tsHjFuuprt36e/4cffsiizs1Zuab8200a/frEk/moSLGCVO75MlS1elWq1/Bt6tS1Kw0fO47GTJtBH4wcSW06tKXW7VoYx9tTZ4N3u7Snju+0pjYtmlCThvWp4dv1qHHTxtSuQ3vq1L07tevyLtVp3IRq1qtPTVq2on4fDqVFmz6hr//3P+o2YAC1bNGMWjRrQDVfr0yVKpamBg3eVFspvBfstAu65D85Kihj9rmKtX9duGaraMR5HWVMGi8ljQkrrZAtGsME5capxqohq8rpPkhoo9TOvsCQhSAIghISf5BWhA5DkD8FQxaCbJXxvgFDFoIgCEqj3bt3/2fukuXPjh43eVCb9h22N2ra+Ju6b9f/4+2GDX5p807bY9169dr8/odDR0ybt3Bo2/btTz+UNxfdmu0GuuuuW+m+e++kPA/eT088/iiVKPEMvVqtCr1R+00qX6EMlSlTkipVrkjVX3+V6r9dm95p34batG1JLVs1pmbNG1ILg7ZtmlH7dq2oU/t21OGdNtSsWROqXacuVa1ajapUq0416tenCi+9HNy/Vhmy1au9RFUrl6N277T6bd6KtXVDL8E1XXzFPa9fdWOebyvXav7bio07REPOi+h9Ws1GJDc1nV4hq81QqZxuW5/DClkIgiDIdfEHaUXoMAT5R6OONM7YT5BPOWK0eV+odQjytYz3DRiyEARBUFBEdPHk+YuLDvt43PD+/Qeeat26Nb38SkUqWqwQFSj4OBUq9AQVe7oQlSz5NJUr/xxVfa3aX9VrvPZXgacepwfuz0EP5s5JuRUP3Bf8WX196KHc9Gi+hyhfvrz02KMPBY3ap57MT2XKlKbmbVpTU6ONVu3aULt32lG7dm3/bt2mJbVq05zatG5GbVs3p9q93qYX+9ekhk3r0TvGzx3eaU09ur9LvXq+S/Xr1qTXqrxItWq8TL3f77t70brtuUIvxXVdcf2Dza++Ke/3yphd++le0ZjzEsqQNZuX2vSMx5BNzx6y0od3cZSRqs9LfTGbtthDFoIgCHJU/EFaEToMQf7RmJRZsnHqIKOOlAq1DkG+lvG+AUMWgiAICnxy8Lsrp8yZ16pT9+4pVaq9erZe3bforbdqUbVqr9Lzz5ejokUL0BNP5KPHH3+EHnvsoaC5yo3W/I89Qo/nzxc0XJ984jF66slUnlQYPxco8AQVLPgkFSzwJBUq8BQVLVKYChUuRDffdhtlzZaNKrxYkYZ+PGrJhGkzeg0fN2bukOHD9vTp2/9k+9Hv/FZv6ptnm7ZqSE0b16NmBupr7TeqUa3XKlGt6i9Tsyb1aNTEye8T0QWhl+MR3X6ZMmavveXhH2s37nzGy8asNi+LMoNTG6DxGLL6Z27uaqM1liGrrpO2GNBos7RoqH1zeakdK33h/YchC0EQBFkWf5BWhA5DUKYX7g0Iii3j3oAhC0EQlMm1Zu/em8ZOmt6/Z5/3fqv+WhUqUCA/lShRjKpUeYWqVq1MlSu/RC++WJ5KliwWXCX7xBOP0mOPPUIPP/IgPZgnFz30SB7Kr8zYJ/JTQWW8FipARQoXpKeLFaHizxSj4sWfTkPJEsWpVKkSVLRoYbrx5psocNGFdOddd1KT5i2mnD179mbVp4WfHLxy5vylOacvWPDqlLlz+4yeNGnBgCFDtnXr1vVQy1YtT9Z4vdovdevUPNuiWUPq27/vnmlLVuYPvhgvKsvtV111c96eypht0b7fX5t3fSEadW6jzUqNMikHjxwXNjStGrL6mK5HmaYNmrU6rwwn0od5meEGq+6Pbqeo0S9pa4RYfTH332xE63rsAoYsBEGQT8QfpBWhwxCU6YV7A4Jiy7g3YMhCEARlYm3ffuCWMRMnfdypS+e/69Z9i6pXr0Jlyz4bXNlarFghqlChDL3wQjkqV+654B6wzzxThAoUeJweffRheviR3EFDNlfu+ylnrnvpPoP7c+U0fs5FeR/KS48/np8KFy4UNGFLl36WypcrS88/XyFIhQrlgzz62KN01bVX07XXX0OvvFrlqwnTZ/acPndh2Y07duT+9vezN589e/Zfqp9q9evmI0eyzl+5Kf/EeUvLjRw/vv6wjz4aNGjYsBmjpk6tMnXq1AuDL8jLynL7Vddke2j49dke+bldt4H/k8w64H9gyEIQBPlE/EFaEToMQZleuDcgKLaMe2Mfv0/yFC6dN3QKgiAI8rl2nz79n/5jx7/fpHmzMzVer0pVq1aiV199iV566YWg8fr44/moSJEng3vGlir1jHGssPFzgaBZm+/RvJT3oQcotzJj77+Xctx7N915z510+x230y23ZaObb72FbrrlZrrl1myU/a476L5cOemRfKq+wvTcc8/RCy+8QK+88go9+1xputM4n+22m+nxJ/PTK5VeOlvv7bq/tO/c/lCf999fPXz02JGT58xrM3v5qoor1n2S5+zZs1eGuh8UEV0S+jZwaZZ7kuIDWi+//P6sN96ab/wNtz3667t9R4imHfAvMGQhCIJ8Iv4grQgdhqBML9wbEBRbuYuUOcLvkzyFy2cPnYIgCIJ8LCK6cPKMWQ3qNG/++9MlitGLL5SjV155MbhfbPnyZah06RJUqNCT9NRTj1LBgk9QkSJPBb8+8eSj9OijeenhfLkpT94HKFeunHRvzhx0d4476Y67stOtd9weNGPVVgTXZ72Rrr7uWvp3livpon9dRhdeemnw+5uyZaP7cuakR/M/Rk8WeIpy3n8f3XV3dro/Vw7K8+C9lP/R3FTymafo5YplqFat6tS4eRNq0LTx2Tdq195fp069yZ169OoxYvy0JjPnL315xYYtT67ZuuYm4yVdcGmW5DK6Ls1yb/brsuWbdmfOwj+9P3ySaN4B/wFDFoIgyCfiD9KK0GEIyvTCvQFBsZW7SNmv+H0CQxaCIChzaMPnu0q279L5yDNPF6FH8+UNrogtV640lS5dMrgiVu0hW6xYQSpYMH9wT9kCBR4LmrGP5X+EHnkkLz0U2q5AbVGgDdnsd2anW2+/jW669eagIXvtDdfTNddfR7fdkZ1y5s5Ftxjn/pMlS3DP2MAFF9C//vNvujnbTUEzNmfOe+iRhx+ggk89QiWefopKlyxExQrnp0cfuZ/uy3Eb5bw3OxUq+CSVLF6CihUvTsVLlf6ndJly31esXPlAj779Ox05QpclmyGrdXGWe/Jef1u+lfflLfHjyEnzRBMP+AcYshAEQT4Rf5BWhA5DUKYX7g0Iii61PUHuImV/5/cJDFkIgiD/a9vhw1kGfzRy9Ju136JnS5Wg50qXNL4+Q889VyJoxBYtWiD44V1qr1hlxj711GP0xBP56LHHHqZ8+R6ivA8/mLo69oGcdF/OHHTPvXfTHXffEd6uIOstqatjr7r2Grote3YqoD7gq0RxKlCoID3yWD7KlSc35ch5L911z13BrQ7uz3UvPfTQA/R4/oeoaOH89GzJQlSqeEEqVMBoM98DVODJR6lwgafo/pz303XXXksXXXih+r0uSLbbbqPm7drP++7s2SuT1ZDVuuiKux+/4bZ82x/MX+bHcTMWi2YeSH5gyEIQBPlE/EFaEToMQZleuDcgKLqM+2KW+T6BIQtBEOR/Hfv992xNmrdYXKBgQXrgwQfpiaeepBLFn6HnyjxH5cuXC36I1/MVygW3LShatGDQjM332EP0sDJiH8pNuR/MRQ/kzkU5c91HOe67m+66J3V1bLbg6thb6MabsgZXxqrtCu65917K/8TjlN9oo1CRwlT0mafpmZLFqWTpklSiVHF61vj6XJlSwQ8MK/NccapQrhQ9X74kFS/2JD31eF567tni9EyxYpTtlmx00UUXB01YzXU33EAVXqz4ywdDh3ZedeRI0q6QNevSLPcWuT5bvn0FSlT+acr8laKpB5IXGLIQBEE+0O2FC19mfpgOnYKgTC/cGxAUWWp1rPkeUcCQhSAI8r+WbduWZejo0a269Oy5q17Dht8XL/3cX4898STlzPUA3Xn3PcbX+6lwkcJUufKrVKdObapR43WqUKEsFSlcgPI99jDlyZM7uDr23vtyGOXvpNvUvrG3Z6Os2W6iG2/OStffeANdff21dOU1V9NV111LV117LV1tcO3119Ot2bPTA8b1BQoVoNJlStOLL1agKq++TNWqVaLXX3uVataoQlUqV6QSTxegVyu/RGWee46yqG0OmBF7gUGO+3JSk5ZtTnTr069lu3ffvd04nnR7yMbSJf/JUeHaWx5OebrM6z8vXLNVNPdA8gFDFoIgyAfKXbhsY/PDdOgUBGV64d6AoMgy7onzVscqYMhCEARlCl1w9OjRf42fPv32lu3bF2/YuEXb9u92n9WpR49ddZs0OfFc2XI/5nnkkT/vy5WL8jz8ED1VqBCVq1CeatWqGTRoq1WrSs8+W5Ief/IxyvtwXsqVOxfdleNuuinbzcFVsf+56kr6T5Yr6XKDy674D116+eV08WWpH+p12X/+TdcYZbLdlo1yPXAfPf74I1SyeBF6+aXy9Fr1SlSrRhUqV6YEVan8ElV9tQpluTKtGXuZUVf+J574p32XLts6de/52oMPPniDcfwig4DfDFmti6+8p9JVN+b59oVXG/yyYuMO0eQDyQMMWQiCoCRXaHXsKfPDdOg0BGV64d6AIFmRVscqYMhCEARlOl2WNWvW63Pny3fvK6+8UrBJs5aV2rbv2Pjtxk361qpbb16d+m/vfaNO3e+ef+nlM0+XVB+o9TSVKl2KSpd+lsqWfY4qVXqZataqQa/XeJ2eK1uGHn40H915z92UNdstdMU119CFl11KgQsvpAsuvjj4/b+vvIKuv/F6uu32bHRfzrvpoYdy0VNPKlO2IJUr8zQVf/operliOapfry7deuutQRNWc/NNt1DFqtV+b/Vu1yl16tcvYxy7yeBSg/8z8K0hq3XljQ80uPqmvN9XrtX8NxizyQsMWQiCoCSXtDpWEToNQZleuDcgSJZxP4irYxUwZCEIgjKdLjC40ECtMv2XQRaD6y677LLbHrzvwQdefPGVp+s1avR6izZturTu0GFSy3bttjZo3uxk9Vo1/yj3QgV6ungxKl6iGJWrUIaqVq1Mdeq8RQ0aNKC33nqLKr78MhUoXIjuvvdeuub6G4KrZrNcexVlvflGuuPOWynXAznoscfyUJHCj1PpkoWpxDNPUTHj+04d3zGOFaELLrggaMT+3//9Hz3wwAPUqEmzY607dOn2YL58DxnHrzFQZqzqf1B+N2RTdftlV1z/YPMbbn/sN8nsA94HhiwEQVASK9LqWEWoCARleuHegKDzFW11rAKGLARBUKaXWm2qDNpLDLRBe63BjQZ33HDDDY/XeOON6r0HDu4xcOTI8e906LTirbp19lSqWvmbshXK/lmqdAl64flyVPutmtSuTQtq1641vf12PXr11Ur04osv0PMvPE9lypWhEiWepqJFn6LCBR+jooUMCj9GTzyWm5o3a0StW7em/1xxRdCMVV8LFinyd6s27bZ26tatkXEsh4Hq08UGaZQ5DNlUKVNPMvuA94EhC0EQlMSKtDpWESoCQZleuDcg6HwZ90LE1bGKvIWeKx0qCkEQBEFq9akyaNXqWWXQXm5whcHVBsqgvTPPI488VqN27edbdejUpGPX7n1atms3oXbtOiur13z9UI3atf77dtOG1LBRfapb5w2qX/cNatygDjVpXD9Iq5ZNqNu7HalP727UskVDql7lJRo08AN68skng2bsHXfdRdVrvvFb87btJpWt8OILxrHbDJQZG9wz1iwYsiAZgCELQRCUpIq2OlahzoeKQlCmlvneCB2GoEyrWKtjgxQuuyRUHIIgCIIk8S0O1JYB/za4ykB9uNbtV199da6cOXMXKvNCxWoNW7Xp2rlv38lder23rkWbNl+83ejtX96s8wZVrVqJqlV9iWq/WY3at2tOA9/vTUMGv09jR39ETZs0oSuvzEL35cxDTVq0OdauQ6f+WbNlK2TUnc3gPwaqbVEwZEEyAEMWgiAoSRVtdaxCnQ8VhaBMLfO9EToMQZlWxn0QdXWsRhm3oUsgCIIgKJb0Klq1hYDa4kCtoA3uQ2twi0HOvPkeL1yr7tuvNGnVtkWLjh2HtOvYZWHbjh0+q9+o3lc1ar32a823alCTxvWoTasmVKpUCXq6RMm/Gjdru7HmW3WbGtc/bKA+vEutzg3vFysJhixIBmDIQhAEJaFirY4NcQqrZCEIhiwEcVlaHXuOWaHLIAiCIChe8W0O1DOJWkGrTFr1IVw3G+QsVKxkwcqv1axQ7bWab1aqXr3ja2+9MbJp82Zr23Zsf7R1hw6n6zVqPOnpZ59+1Siby0CtvLX0bANDFiQDMGQhCIKSULFWx2qwShaCYMhCEJdxD1haHavBKlkIgiDIRimTVm9xoFfRaoP2nssvv/yRXHnylHju+ecrvVSpStVbbr+9qHH8bgO1ylbtXWtJMGRBMgBDFoIgKMlkcXWsBqtkoUwv830ROgxBUEh5Cj9XxLg3VoV+hCAIgiCnpYxZvYJW7QWrPyjsSgNl0KoPClNcb6BMW2XiRt2mgAuGLEgGYMhCEAQlmayujtVglSyU2WW+J0KHIQgKCYYsBEEQ5BEp01UZtGofWmXSxmXEasGQBckADFkIgiCfCKYTBMnCvQFB0QVDFoIgCPKTYMiCZACGLARBkE8E0wmCZOHegKDogiELQRAE+UkwZEEyAEMWgiDIJ1JGU+7CZTtpQochKNOLm7GK0GEIgkKCIQtBEAT5STBkQTIAQxaCIMgngtEEQbK4GYv7BILOFwxZCIIgyE+CIQuSARiyEARBPhGMJgiSxc1Y3CcQdL5gyEIQBEF+kjJkL81yTydr3FskdFlSCoZs8gJDFoIgyCeC0QRBsrgZi/sEgs4XDFkIgiDIT5KN1/O55Mocq9TX0GVJKRiyyQsMWQiCIJ8IRhMEyeJmLO4TCDpfMGQhCIKgzChtzIZ+TErBkE1eYMhCEAT5RDCaIEgWN2Nxn0DQ+YIhC0EQBGVGwZAFbgJDFoIgyCeC0QRBsrgZi/sEgs4XDFkIgiAoM8oPhuy/rsr5qzL2QPKh5i40jRAEQVAyC0YTBMniZqxCmU8AgHPkLly2sXFvwJCFIAiCMpX8YMhCEARBEOSylNEU+haCICZlNGnypJqy4Z8BAJoy/UO3DARBEARlCsGQhSAIgiAo3TIeqGHIQlAM4T6BIAiCIAiClGDIQhAEQRCUbsFogqDYwn0CQRAEQRAEKcGQhSAIgiAo3VJGk4Hwb6gAZG5yFyk7KXSbwJCFIAiCIAjKdLr9skuz3FvEzCVX5hilkM4Fstx+VehiCIIgCIKgyJI+qAWAzM6DhZ+rlLtImSOh2wSGLARBEARBUCbUpVfm2H5plhxkhUuy3HNKmbihSyEIgiAIgiAIikd5CpfPDkMWgiAIgiAoc+uSLDkqSOarhFG2cegyCIIgCIIgCILiFQxZCIIgCIIgSMnKKlmsjoUgCIIgCIKgdAqGLARBEARBEKRkZZUsVsdCEARBEARBUDoFQxaCIAiCIAjSirZKFqtjIQiCIAiCIMgGwZCFIAiCIAiCtKKtksXqWAiCIAiCIAiyQTBkIQiCIAiCIC5plSxWx0IQBEEQBEGQTYIhC0EQBEEQBHFJq2SxOhaCIAiCIAiC0qnchcu+/mCRsqvyFCm3yfh6Rn0fgtj35yhcpnXoUgiCIAiCIMjn4qtksToWgiAIgiAIgmzQ/YVLZ30w1YhVBmxM8hQunTd0KQRBEARBEORz8VWyWB0LJbWkhxsAAAAAAAAAAAAAYI2QxSJKKg8SJ0vW3HT5dTkpd6Ey4nmQGKFwhTJK0iQAAAAAAAAAAAAAAGuELBZRUnmQOHc+VJRuzVVAPAcSJxSuUEZJD3yjjQQAAAAA4AlKNhtw3i+JnKfrdROvAwAAAADISPTvJiGLRZQuM3vNz8Ampi77RjwO4sdKDEMOSA+8lFgAAAAAAJzmpf4Lqdy7E9NQqsVAylOkXPgXRDO1ZhwW6wIAAAAAyEj07yYhi0WULiOZYQC4jZUYhhyQHngpsQAAAAAAOM0LveeEfxG0QuGabcV6AAAAAAAyGv37SchiEaXLSGYYAG5jJYYhB6QHXkosAAAAAABO02Dtfylf2erhXwZjgdWxAAAAAPAK+veTkMUiSpeRzDAA3MZKDEMOSA+8lFgAAAAAADICq6tksToWAAAAAF5C/44SslhE6TKSGQaA21iJYcgB6YGXEgsAAAAAQEZgdZUsVscCAAAAwEvo31FCFosoXUYywwBwGysxDDkgPfBSYgEAAAAAyChirZLF6lgAAAAAeA39e0rIYhGly0hmGABuYyWGIQekB15KLH5n6PpF4nEAAAAAZDzRVsnmKVoeq2MBAAAA4Dn07yohi0WULiOZYQC4jZUYhhyQHngpsfid79dkp9YbfxTPAQAAACDjibRKtmK/BWJ5AAAAAAA30b+rhCwWUbqMZIYB4DZWYhhyQHrgpcTiZwauX0W0OkBT130ongcAAABAxiOtkn26XjexLAAAAACA2+jfV0IWiyhdRjLDAHAbKzEMOSA98FJi8TOb170eNGQPrS0ingcAAACAO5hXyWKrAgAAAAB4Ff37SshiEaXLSGYYAG5jJYYhB6QHXkosfqX5xjP0x+qrgoasov2GU2I5AAAAAGQ8fJUsVscCAAAAwMtYMbN0GckMA8BtrMQw5ID0wEuJxa98tH5W2IxVzFvXQywHAAAAAHfQq2SxOhYAAAAAXsaKmaXLSGYYAG5jJYYhB6QHXkosXqLyirP0zIJ/KM/0f+iW8X/TTeMSZ/bCV9IYsruX5RHLAQAAAMAlRv9B99QZLJ8DAAAAgO94YOo/VHjeWSq3+KzoCXgVK2aWLiOZYQC4jZUYhhyQHngpsXiBeuuJnpxzVkzYiZB9/G/056rL0hiyioKTdovlAQAAAAAAAAAAkHEoc7bm6uQwZq2YWbqMZIYB4DZWYhhyQHrgpcTiNrXXEt09+R8xQSdK45kjzzNjFX3mdBDLAwAAAAAAAAAAIGNR/xlbdZX3TVkrZpYuI5lhALiNlRiGHJAeeCmxuM1js9KasQ/N+JueXfQPvbz8H3ptdWLsXF1SNGS/XZ1dLA8AAAAAAAAAAADnqLTiH3pu8T/0+Oy0WxTmmPIPNdgg+wVewYqZpctIZhgAbmMlhiEHpAdeSixuUnFZ2m0Kisz9xziWPt5YdoL+t/r87Qo0bZdvEK8DAAAAAAAAAACA8zy7KHV1rPYC1GfJSJ6BV7BiZukykhkGgNtYiWHIAemBlxKLm6jNvHUCzj39Hyq9KP0MWjpENGI1C1bUFq8DAAAAAAAAAABAxvDIjHOG7EMzYMgC4CRWYhhyQHrgpcTiJjmnnNuuIN/Mf6jw3PSzfUVh0YjVfL8qq3gdAAAAAAAAAAAAMoanZp/zA26b8LfoGXgFK2aWLiOZYQC4jZUYhhyQHngpsbgJ/xcF9dexfDPTR9nZX4gmrJkG8xaI1wMAAAAAAAAAACBj0H6AQvIMvIIVM0uXkcwwANzGSgxDDkgPvJRY3IQn35xT0k+/ed1EA9bMzMWvidcDAAAAdnLfhN/ppryF6cbsOejGu3LR3b23i+U4aa6Jwk2PlqJbX2hO93ywX6zn7p6bU8tabDcW9038k+5sNoluKVGDst6XL01fbin2KmWv8yHdO+5X8Vq7UH3I/tZAunfkN+J5AAAAACQX3BOQPAOvYMXM0mUkM+zususAcAQp3iSsxDDkgPTAS4nFTXjyVf+ikF72LMsjGrBm/lx1Gd0z8TexDgAAAMAubm46JY1xeXPNAWI5zq1jfqeseWIbshyp3mzdzhmy2XpuP+98PNzSfAbdaDJhRYy2bq47QqwjvWTruDq1D/fkoVuHfSOWAQAAAEBywT0ByTPwClbMLF1GMsMkIw0AO5DiTcJKDEMOSA+8lFjchCff9FJw0m7RfI1EnRkTxHoAAAAAWxj9J2Ut+VaqUVmxXerXe/JQ1qHfyOVDZB31O92oDdkaA8QyiqwDj52r/65clLX79rTnu54zZM3nLMNfg8EN+Z+jrG0XU9aPf01bpsNquvHJCuFy0fqdKDc2DpnbFsYQAAAAAMmH5Bl4BStmli4jmWGSkQaAHUjxJmElhiEHpAdeSixuIiXhROkzp4NovEZi0aLyYj0AAACAHWT94Ejqik5liHb55JzJ2nKuWF5j1ZBVpClbqm7aczYYsje+2j21DoOszWaIZcKM/vNc+fSYwBGAIQsAAAD4G8kz8ApWzCxdRjLDuIG26BgBkC54PEnxJmElhiEHpAdeSixuIiXhRDm6PLtovEZCbVtw74TvxLoAAACA9BI2EJ8oH1xRGjYrTcapmXgMWUUkozK9hmzYULbYD0U0gzi9wJAFAAAA/I3kGXgFK2aWLiOZYdxAkww2AOKBx5MUbxJWYhhyQHrgpcSS0Qxdv4gOrS0SZMOSwrawbWl+0XSNxe5lecT60kPjmSPFNxcAAACZB8lUtWqQxmvIRqo3vYZs2EAOGcpSGQmzEX1emSEnKWvD8XRjwZdTy2mMft5Yvjll7bs/Tfnw65AQVhtn7XeAbnymRtpyRV4NbrWQpizfjkEyj2OdNwj3zXw+3tdocc7TlIux0hoAAABINiT/wCtYMbN0GckM4waaZLABEA88nqR4k7ASw5AD0gMvJRY36L9hE3295j7RJE1WTq/ISq9OWyC+sQAAAMhcSGZoQqabS4ZsvH1IgzIyIxi4wT5Z+XAwZjaGX4eEyZTMWq23XE5jMomjmcdpVghHWJUbNq3N/Y3zNaapK4oBHh4LrBIGmRT1B5eslTqnvcfylaIb3/ww4n1jmSEn5eMgeh7m2PyfEbai/8gW5x8Zkwb9+mK850edy1h/NMyA+ZW8A69gxczSZSQzjBtoksEGQDzweJLiTcJKDEMOSA+8lFjcovnGMzRwXivR3HSCpi8H6JKLA7T5Q/l8epi84DVsfwAAACBMJHPNkukWpxnqxJYF6bk2Emlel3r9/IFPPUiqDwaLYoDG2rIgfF7xWt9z46vqbjbjXN3sgTKawZnmoVUYh/DrYdem5zVaGfNw/HjZ9ADACdT9E+sPLunIV8EckaeQmFuAKR9GA4asa1jdZsjSXJruJRiyqVgxs3QZyQzjBppksAEQDzyepHiTsBLDkAPSAy8lFjdRSbfMlA10aLmzq2VHtgyooLPdkMWqWAAAAGaiGappHoQi/Mt5tOvNpClrelCyYvBFIpb5mQhW6gyXEfoc7Xr+IBrpw8ek8UgzfuYVq9zgVUSaSzbu6XmNseY9Wl8B8DvhP0bkKxW8x9MYamqLEG3WJpizgvXbmO/8RjjfIfd4Fh3DN5ZrEjWWo84l/8MHe28Lv//AkI1pZukykhnGDTTJYAMgHng8SfEmYSWGIQekB15KLG6iE2/28b85tlp23cBUM1ZhpyGLVbEAAAAkwg87wgNRNANVLBNtlUvn9XRjkSqp5QQDUzIgrRI2DTN4JVG0PkczO632V1phGj7Gx1qvpFL9qD38vGsiXmeBqK9R1ym8jmhxBYCf0X9wuSH/c1FjP5wHEjANtZmFe0smnH9gyHoSbpgG/xMjylzFnEthJTEM2VSsmFm6jGSGcQNNMtgAiAceT1K8SViJYcgB6YGXEoubmBOw3atlUyYF6OorApT7zgAVyWuPIfvzyqvwwV0AAABk9IOMetiJ8OASzVhUpDFkrXBXLvHBKprxFwtLBid/rZGI9fCu6lAfwtVuGWV9vtW56+IxZHk/Ypij0uuSjoXnQLXV/bPU1bd8LHSbVsY2jtcYXukrvX7BTAYgMxC+R2PkE3XfZq32HmXttjXtcWVQPVkhzb0X3nNWymPsHss68FjqnrXStaqMvt6UK8P5V/pDD8810foWqR51PAMNMkW8hmy4vKl/4TwWqidshA8+kXZLCvVBjKZ9TBUx50Ohx9loO837xnt75LmKp051bZ99af8YWnvEuXIhVJ3hMopi1RN/PRbg8xOODdPrlMqaz2nMf6DIyHiTPAOvYMXM0mUkM4wbaJLBBkA88HiS4k3CSgxDDkgPvJRY3ERKwnatlv1rRYDKPhmgf18WoBPTU79PryG7cnFJyjPxuNhvAAAAIM0ebhEedmLt8xZ+8FHno6E+wV89uA388rw6gvXohy71wJioIWs2PzmSkWFGGIPgyt5nasjlNUKfI/XJ8nhx+IOmng9+jJsJ+nWyPoWvifTAm+BrTDOmLDbSvMYoD9EA+A5uhMVpUinCeUNC3WNSHguZTmlytRlmTAXbMN3P0h9Qwvdx6N6O2Td+jckIs2Kq2Uki7ZnN1zR5lZcxcm/w3+zVOY5pTK3OR3hO1Ye96fJG/Nw04qfzYinuOqVyCp6vI9Vpfu+y2nYsdN9Y/cFxld5jDGLOpXDPRYpDJ5A8A69gxczSZSQzjBtoksEGQDzweJLiTcJKDEMOSA+8lFjcRErCmvSuluUf4qXN2UQNWayKBQAAYIWoD9gSgsmQxnxjD3nxEn7oivBQFo10XcsfMk0PfOEHdI7Rxo1lG1PWtovP/aul0K5jhiy/PtTfcFvaODEZC+bznPS8xuD1um7+MKznw/TaAfA76TGCwteq+4atTgzmKHWc3WPaGOT3V/heNn9IoF7JaTYadb7Thpb6oxnPNapc6L63pW+mY04Sfo3RMOW0NK+x545z30tjrK418mPwOB9jNu9W5yM8/uoYz9H6uHls463T6FP4ep2vdT+lto1jN9YbnbY+da3VtmMQfs9lrzV8TLhvzotXjtqPWa/Y5fWl4z6MF8kz8ApWzCxdRjLDuIEmGWwAxAOPJyneJKzEMOSA9MBLicVNpCTMUXu0qr1aJZM0GvpDvCZ1SP05PYYsVsUCAACwBH8Qs4pgyoUffNR5wfCzSvihK4LxF400fbD4UKiJZMiGH1wV5ZsH/32UX6eI1ufw9aYHejvGK/xgrK7n8xjqf7hf6mFUn4/WR0UCrzF4Xo8fOx/uXwY8DAPgJaIZQWnufY70h673D1PW9ivpxirGvaS3CIhiekYztMI5IHTO3Ed9bdZaA+mGXE+mvY8FEzVW38wGWrQxcYpwH6IRLSfq12V6PwmOiZQL9RiHxiue+TBfe1650NjaUWd4LnSdFucmrrZjII5hpDEwsDSXkV6nxT6lB8kz8ApWzCxdRjLDuIEmGWwAxAOPJyneJKzEMOSA9MBLicVNpCQs8eq0BXR6RVbRMDWjP8SrQoFzxxIxZLEqFgAAQDyEH7DUw0wMEzNNWdMDTvjBR51zyZBVhE1AwdyIhjgO+uFQeL2c8MN7tAf7SA/ZMeqORnis1Gsd9m3q+LN2wq9JnVf7B+rv+bjY8BqD8HqM+Y8nrgDwHfp+EPJQmlzJYWXT3D9RykU0ZKXrNObrQz8H73FV18Cjqf0z7lvJ0LLaN/O1ZoM2GhHHSMKcW3k9cbSZhhh50Tzuac6pcQzlybjmI1LMmI47WmeM9+544ysSlubX1Jeohqwa7xdan9euFL9OIXkGXsGKmaXLSGYYN9Akgw2AeODxJMWbhJUYhhyQHngpsbiJlIQjYWW1rP4Qr4dzBOj3xeeOx2vIYlUsAACAeAkbmFEeasPwh1RT+TQPWC4asmkeGOPoR5rrQg/vll4TH5N4DFl1Lp6xFwj3WV3fZlFqXexhONx/db72cPF12PEaNeHXqvqgtzhI8LUBkOwE728recxsjvF7smzj1D23O65N/ZA9dZzd42Zj0JJhxsurfBv6OVhXyLjS34frk3JijL4F69Emr67fYj5I004sotSZqCGbpn2h/mivJW5DVtdjioNwneb4cLLOGO+Z8cZXJKKaqxpTnxOZy/A8wpCNaWbpMpIZxg00yWADIB54PEnxJmElhiEHpAdeSixuIiXhWERbLau3KoiF+qCvb2affz1WxQIAAEiENA+dFh9Ywqab6cEoTV1xGKFm0mvIKoIPy7qPFvpy3idL69elH1rVsQjjk+bBMk5DNs3DbaTxj9YHfk7t+6i+ml5vmrGQxtSG1xgup2PAKBP+V1+LcQWA3wjf32YzzIzZHItgPIXvL1af2Ri0aqxpwuWbTE2tO3RdMG8Z7QT3EOX1x9G34HFz/RmcDyL1NxbhvFmxnZjHguej5dPQmMU1H6Y4iHTckTr1/MWYn3jjS8Q0RlKZ8Pjz3zESmEurr8sOJM/AK1gxs3QZyQzjBppksAEQDzyepHiTsBLDkAPSAy8lFjeRkrAVus3udp6ZqkivITt74StiewAAAEA00hhtFh9ywg846hr2kJfmeDoe1sJ9imL8xUQ98OkPGFHkK0VZm82grAO/TFum83q68Zka58oZmP/tMY2hGelDTDhmoyLG60lTv9q/lX9Qjlp1po3iSNdzg1xhaj/NefNDuS6TztfISVNXjLIA+J3w/aD+SKFWk0o5SN/j2hzTOaPUuQ9hSvNHI3YfB+vnuUHVqcwudaz2iDT3e3DVujLTuDmlyxd8Oc2+scE+qD6rP6yw8vH0LYiu38jBwbYzOB+E+xtHu/w1qp/Dc8jq0MduyP/cuZzN86Ues3jmQ5eNNIb6uJN1Gn1X75Xh+lR8SvVZjS+BsKkbpZxUJqG5hCEbxIqZpctIZhg30CSDDYB44PEkxZuElRiGHJAeeCmxuImUhK2we1me88zUaFjdsuDPVZdR9vG/iW0CAAAAkQg/aEZZqSLBTYbwA7yXDNkQ4QdEVV8Mgg/W+tOyeR38dQkEr2sx51w7ptcefrDk1/Ey6gFXMj05xlhEeggNj5dCmMc07Ud4KE3va+TE6g8AmY2Y97cBN/Zi3Y/8vkrzB5fQ/S3mHI2QV6VV/Gn6wHJPPH3TSPVnFGnyUTRCfQu/Pj4WejyZqamN8PB/Agh1hftgdT6smqcZXacpZuKNLzPheIhmrOr+sfpgyCaOFTNLl5HMMG6gSQYbAPHA40mKNwkrMQw5ID3wUmJxEykJx6LgpN2imRqNePaQrTNjgtguAAAAIJHmwTrOh5U0D7khcy5NfR4xZDVqlU/W51ud/xBZ8OXgJ4rzVaki6uFQmSr8erXiS614Uw+z+uFRHRfG8jxjWBgfabVucGWvWrHLV9WZSDPu5odu8/lYD8DpeI0au+IAAD+hVpFmrdQ57f1l5Ljgqvj39ojl02yjElrlr43AsEml7jdhdWq4PX29wrQCXxM22Ph9LRhi4fIW+xYuL9WfQcRryIb/2GjKlWETMZTTguXUNYNPpB1nNcamHKywNB96zC2Ypwqn6uRzm2YFMCOe+OKE3x9MprWEecxhyCaOFTNLl5HMMG6gSQYbAPHA40mKNwkrMQw5ID3wUmJxEykJx6LPnA6ikRqNeAxZ9YFeUrsAAAAAABmFE4Y6ACB5ScRI8zphQzaGqQgyD5Jn4BWsmFm6jGSGcQNNMtgAiAceT1K8SViJYcgB6YGXEoubSEk4FkeXZxeN1GjEY8iqbQvyTDwutg0AAAAAkBGEV5iZV2QBADIdwZWU0grNJAeGLDAjeQZewYqZpctIZhg30CSDDYB44PEkxZuElRiGHJAeeCmxuMndk/8RE3EkykzZIJqodtNq1mCxfQAAAAAApwluzYDVsQBketJsXaLw2fYlMGQB55bxMGQBsAqPJyneJKzEMOSA9MBLicVNHpvFDNmxf6VJyBJj5tcWDVS72bCksNg+AAAAAIATSHs0qn1vpbIAgEyC3qPUp/kAhizg5Jzyj+gZeAUrZpYuI5lh3ECTDDYA4oHHkxRvElZiGHJAeuClxOImzy6Mb4Xs6RVZRQM1Emr7AWXi/rzyKvF8NB6b9IXYBwAAAAAAu0nzidtqZWztEWI5AAAAwDeMP+cHPDnnrOgZeAUrZpYuI5lh3ECTDDYA4oHHkxRvElZiGHJAeuClxOImqcnXbMrKK2VfnbZANE4jsW1pfio4aXfwWrUnrPqwLqlcJLrN7nZeHwAAAAAAAAAAAJBOmBmrqLkahiwAVuHxJMWbhJUYhhyQHngpsbgJT8CxmLzgNdE4NaNWxUYyUxvPHGl5tezuZXnEOgAAAAAAAAAAAGATY/8S/QIvYcXM0mUkM4wbaJLBBkA88HiS4k3CSgxDDkgPvJRY3ERMxgLZx/9myUjlq2IjEc9q2Vh1AQAAAAAAAAAAIEFCnyUj+QVewoqZpctIZhg30CSDDYB44PEkxZuElRiGHJAeeCmxuAlPxBu/PktvrD1LT805f1/ZOjMmiIapJtqq2EhYWS3bZ04H8VoAAAAAAAAAAADEj/pw7xeXGs/97IO9Jb/AS1gxs3QZyQzjBppksAEQDzyepHiTsBLDkAPSAy8lFjfhSXnH92cj8uPnlUTDVPH7lsdp/8m94nWx2HP6JP3yaSmxXsV/N2YXrwMAAAAAAAAAAEDicD9A8gu8hBUzS5eRzDBuoEkGGwDxwONJijcJKzEMOSA98FJicROegKUErdj9zQ90ds1l55ml6tipfd3Fa+Ll6Bcf09/r5NWyh45tFK8BAAAAAAAAAABAYnA/QPILvIQVM0uXkcwwbqBJBhsA8cDjSYo3CSsxDDkgPfBSYnETnoClBK1QZqnZJE3PqthIRFot++3uxmJ5AAAAAAAAAAAAJAb3AyS/wEtYMbN0GckM4waaZLABEA88nqR4k7ASw5AD0gMvJRY34QlYStAKbpLauSo2EubVsn+tzyqWAwAAAAAAAAAAQGJwP0DyC7yEFTNLl5HMMG6gSQYbAPHA40mKNwkrMQw5ID3wUmJxE56ApQStVq1qY9SJVbGRMK+WPXx0pVgOAAAAAAAAAAAA8cP9AMkv8BJWzCxdRjLDuIEmGWwAxAOPJyneJKzEMOSA9MBLicVNeAKWEvTxg0MyZFVsJPRq2R92vC6eBwAAAAAAAAAAQPxwP0DyC7yEFTNLl5HMMG6gSQYbAPHA40mKNwkrMQw5ID3wUmJxE56ApQSt9m/NqFWxkVCrZX/8vBLt/O4P8TwAAIDE2fLN39Rr7SmqM+swFRu6g/IN+JRu7rKBAk2XA49xXfu1wflRqPnqsuoErT/xP3FeAQAAAABiwf0AyS/wElbMLF1GMsO4gSYZbADEA48nKd4krMQw5ID0wEuJxU14ApYSNAAAAH8ycvv3VGrkLrqkxUrR/APJgzJolTkrzTMAAAAAQCS4HyD5BV7Cipmly0hmGDfQJIMNgHjg8STFm4SVGIYckB54KbG4CU/AUoIGAADgL5QRqwy8NKZeh40UGLCXAmOOpTLxFAVm/wS8xuRvzs3RB/so0G1bmnlUK5thzAIAAADAKtwPkPwCL2HFzNJlJDOMG2iSwQZAPPB4kuJNwkoMQw5ID7yUWNyEJ2ApQQMAAPAHamuC8qP3njPwWq5KNWGVySeZfzZzydyfaPMPf5OkprvOiNckwsOrfqWf/zpLZT/5XTzvO6Z/T4FhhynQdl14bh/su5VWHP1TjAMAAAAAAA33AyS/wEtYMbN0GckM4waaZLABEA88nqR4k7ASw5AD0gMvJRY34QlYStAAAACSH7XPaHhVbPOVFHh/T6qRJxl8DqEN2ZFf/TfN8Qqbf7fdlM20DD5AgdZrgvOsVstO3fOzGA8AAAAAAAruB0h+gZewYmbpMpIZxg00yWADIB54PEnxJmElhiEHpAdeSixuwhOwlKABAAAkN8qMvfe9zedWxap/d5fMPIeJZMhGOg4SRK14VltQGPN9RdvVMGUBAAAAEBHuB0h+gZewYmbpMpIZxg00yWADIB54PEnxJmElhiEHpAdeSixuwhOwlKABAAAkL2qbgvDKWPUv7Rm0PYGEVUNW2nLAfEz9/PvfZ4Mra7X0ClteVn/fas+ZNOX5alzdvtaZf4huW/JL+Hy0tqycdwW1+rnr1vBKWWXKS/EBAAAAgMwN9wMkv8BLWDGzdBnJDOMGmmSwARAPPJ6keJOwEsOQA9IDLyUWN+EJWErQAAAAkpfwnrFqZayLZqwikiGrtixI+f0funrBz8GfuaGqy0gmq/m8MkWVEWouq47z+jvuOxM2XXWf1n33V7gudV6Xj6ct6bw+5gozf6BAp0+C869MeWXOSzECAAAAgMwL9wMkv8BLWDGzdBnJDOMGmmSwARAPPJ6keJOwEsOQA9IDLyUWN+EJWErQAAAAkpP+m06nmrFqz1iXtingmFeicvFVqZFMTm6yfvffs2lWsXLMZc3mKD+vzGDzith/z/uZvvnznOEaq61o511HmfChPWVbLPpSjBMAAAAAZF64HyD5BV7Cipmly0hmGDfQJIMNgHjg8STFm4SVGIYckB54KbG4CU/AUoIGAACQnIT3jVUf4CWZdRlMpBWy2gCNtSqVH5t0/H8hK5fSrG41l41Vl1oNG0m6n9HasnLedUZ+GYyD69qvxSpZAAAAAKSB+wGSX+AlrJhZuoxkhnEDTTLYAIgHHk9SvElYiWHIAemBlxKLm/AELCVoAAAAyUd4daxaHan+dV0y6jKYSIasgq9UtWLIarSZqyRdb8WQ5dsZRENqK57zrhL6kC+skgUAAAAAh/sBkl/gJayYWbqMZIZxA00y2ACIBx5PUrxJWIlhyAHpgZcSi5vwBCwlaAAAAMnHU4O3pxqygw/IBp0LOGHIaszbDFg1ZFW7xrcR65XgbSVy3hVCq2TVB3xJ8QIAAACAzAn3AyS/wEtYMbN0GckM4waaZLABEA88nqR4k7ASw5AD0gMvJRY34QlYStAAAACSC/WJ+pe0WJlqyE79VjboXCCSIWs+rg1N/bM+r41Tad/XSCZsLENW181XyXKTNlZbsc7rY56g7bpgTIzb+aMYNwAAAADIfHA/QPILvIQVM0uXkcwwbqBJBhsA8cDjSYo3CSsxDDkgPfBSYnETnoClBA0AACC56LLqRKoZ22WzbMy5hDY/JZlNWmVqqg/j0uqw7wydOPNP2ORURiiXNlD1tVYNWfWzuV+8LkW0tqyc9wxqL2EjLmrO+EKMGwAAAABkPrgfIPkFXsKKmaXLSGYYN9Akgw2AeODxJMWbhJUYhhyQHngpsbgJT8BSggYAAJBclB+9N9WQ9dB2BcADjD0ejIsH+24V4wYAAAAAmQ/uB0h+gZewYmbpMpIZxg00yWADIB54PEnxJmElhiEHpAdeSixuwhOwlKABAAAkF+H9Y8cck405kDlR21cYcYF9ZAEAAACg4X6A5Bd4CStmli4jmWHcQJMMNgDigceTFG8SVmIYckB64KXE4iY8AUsJGgAAQHJx73ubUw3Z8SdlYw5kXlRcGEhxAwAAAIDMB/cDJL/AS1gxs3QZyQzjBppksAEQDzyepHiTsBLDkAPSAy8lFjfhCVhK0AAAAJKL69qvTTXeJn8jm3Ig8xL6YK9Fh/8QYwcAAAAAmQvuB0h+gZewYmbpMpIZxg00yWADIB54PEnxJmElhiEHpAdeSixuwhOwlKABAAAkF3d02wRDFsg0XxmMjS3f4D0fAAAAADBkAUgUHk9SvElYiWHIAemBlxKLm/AELCVoAAAAyUW+AZ+mGrLYQxZwpn8fjIsr2q4W4wYAAAAAmQ/uB0h+gZewYmbpMpIZxg00yWADIB54PEnxJmElhiEHpAdeSixuwhOwlKABAAAkF+VH7001ZIenyMYcyJxMPBWMC7XHsBQ3AAAAAMh8cD9A8gu8hBUzS5eRzDBuoEkGGwDxwONJijcJKzEMOSA98FJicROegKUEDQAAILloNDcl1ZDt9blszNnIJXN/os0//E2S/jpLVPaT38Xr/EDHfWeCr3PkV/9Nc9zqmDy86lf62TiQYWP0wb5gXJQauUuMGwAAAABkPrgfIPkFXsKKmaXLSGYYN9Akgw2AeODxJMWbhJUYhhyQHngpsbgJT8BSggYAAJBcqA9sChqyLVdRYOYPsjlnE9p8NJuSCmVYnvmH6LYlv5x3LtnRr3vh13+d9xqtjkmGG7JdNgfjotfaU2LcAAAAACDzwf0AyS/wElbMLF1GMsO4gSYZbADEA48nKd4krMQw5ID0wEuJxU14ApYSNAAAgOQj/MFeI7+UzTmbiGY+/nvez/TNn2ep6a4z551Ldips/j1orD5vfP3977Sv0eqYZKghO/XbYDxc2mIlPtALAAAAAGG4HyD5BV7Cipmly0hmGDfQJIMNgHjg8STFm4SVGIYckB54KbG4CU/AUoIGAACQfLRY9GWqIdtho2zQ2UQ85uN3/z1Lw478N/iv+3qVqL5ea913f6WpI97z5tWqql1lmHJx8zTW+UhMOv4/Svn9H8q66Odg+7xfnjRk++4KxgO2KwAAAAAAh/sBkl/gJayYWbqMZIZxA00y2ACIBx5PUrxJWIlhyAHpgZcSi5vwBCwlaAAAAMmHWgV5Xfu1jq+SjWY+KtOS/3u+Mj4l41Ifi/WzecWt+bxCbQmgjNKrF/wsGp66H5EMUX5eHzOj+6Ffs3lrhnjGJEMM2Ymn6ILmK4OxMHXPz2K8AAAAACBzwv0AyS/wElbMLF1GMsO4gSYZbADEA48nKd4krMQw5ID0wEuJxU14ApYSNAAAgOQkvEr2nQ0UmP69bNalE20+SuImpWR06n/75yta+bFYhqV0vbQql5/nxDofCXO75tcWz5hkiCHbdWswDsqP3ivGCQAAAAAyL9wPkPwCL2HFzNJlJDOMG2iSwQZAPPB4kuJNwkoMQw5ID7yUWNyEJ2ApQQMAAEhO1CrZm7tsSDVllSknmXXpJNpqUI5kPipjU69mlcpJhitHrUyNJN0ftSJVi6+k1cQ6L6Gu4WXNK3XTMya28/6e4Pxf0XY1rTj6pxgnAAAAAMi8cD9A8gu8hBUzS5eRzDBuoEkGGwDxwONJijcJKzEMOSA98FJicROegKUEDQAAIHmZffDXoBkXNGV7fS6bdunAbUPWfH0k9MpZJanOWOelcmbp6zxjyA47nDrvBkO2fCvGBwAAAAAyN9wPkPwCL2HFzNJlJDOMG2iSwQZAPPB4kuJNwkoMQw5ID7yUWNyEJ2ApQQMAAEhuRm7/ni5pkbqHaKDbNlu3L0ivIWscOu+YNjZjGZbS9bHgWxokct68X6xG9VVvW+AJQ3bA3rAZq7aukOICAAAAAID7AZJf4CWsmFm6jGSGcQNNMtgAiAceT1K8SViJYcgB6YGXEoub8AQsJWgAAADJjzJlwytl1Z6yY47JRl6cpMd81Nea/9U/3p/5Kllu0korbHk/Yp3XxzTm9iOd09+7YshO/ia8ZyzMWAAAAADEgvsBkl/gJayYWbqMZIZxA00y2ACIBx5PUrxJWIlhyAHpgZcSi5vwBCwlaAAAAP5AbV9wR7dNYbMuuFp2/EnZ2LNIes1Hfb2W2eyM97w2Y/V5ZbpyxXueo16D+YPJOGr1rLq+4pbfM96QnfotBfruokDz1JXQynzHNgUAAAAAiAX3AyS/wEtYMbN0GckM4waaZLABEA88nqR4k7ASw5AD0gMvJRY34QlYStAAAAD8w/oT/6M6sw6f28JA0WEjBQYfSDX1JLMPeBO19cSQg2lWxCpKjdxFiw7/Ic4/AAAAAACH+wGSX+AlrJhZuoxkhnEDTTLYAIgHHk9SvElYiWHIAemBlxKLm/AELCVoAAAA/kN94n7VyQfPbWNgpu06+ThwFzUvoVWwZpQRO3XPz+J8AwAAAABIcD9A8gu8hBUzS5eRzDBuoEkGGwDxwONJijcJKzEMOSA98FJicROegKUEDQAAwN/033Sayo/eS/e+t1k0+pKd66r2pgsbLRDPJTNq+4liQ3dQl1UngiufpbkFAAAAAIgG9wMkv8BLWDGzdBnJDOMGmmSwARAPPJ6keJOwEsOQA9IDLyUWN+EJWErQAAAAQDJT7OVatGLf1+I5AAAAAIDMDPcDJL/AS1gxs3QZyQzjBppksAEQDzyepHiTsBLDkAPSAy8lFjfhCVhK0AAAAEAyA0MWAAAAAECG+wGSX+AlrJhZuoxkhnEDTTLYAIgHHk9SvElYiWHIAemBlxKLm/AELCVoAAAAIJmBIQsAAAAAIMP9AMkv8BJWzCxdRjLDuIEmGWwAxAOPJyneJKzEMOSA9MBLicVNeAKWEjQAAACQzMCQBQAAAACQ4X6A5Bd4CStmli4jmWHcQJMMNgDigceTFG8SVmIYckB64KXE4iY8AUsJGgAAAEhmYMgCAAAAAMhwP0DyC7yEFTNLl5HMMG6gSQYbAPHA40mKNwkrMQw5ID3wUmJxE56ApQQNAAAAJDMwZAEAAAAAZLgfIPkFXsKKmaXLSGYYN9Akg80p2gydRjdmz0EdR8+Pev62+/LQlJ3fn3d+zuE/6f78hemxEhVo9qE/zjsfL/OP/EUlq9SOu74BC7YG+xkN/RoSbSOZ4PEkxZuElRiGHJAeeCmxuAlPwFKCBgAAAJIZGLIAAAAAADLcD5D8Ai9hxczSZSQzjBtoksHmFGO2HKU7HshHparWO++cNi61oSmZttoIfavzB+edSwQYsvbA40mKNwkrMQw5ID3wUmJxE56ApQQNAAAAJDMwZAEAAAAAZLgfIPkFXsKKmaXLSGYYN9Akg80poq1w1WZtyVffCpaRTFu1gvbmu3PRoCU7zjuXCOk1ZCOt9OXAkJWxEsOQA9IDLyUWN+EJWErQAAAAQDIDQxYAAAAAQIb7AZJf4CWsmFm6jGSGcQNNMticpHrLHqKpyrczUGXMBqY2NiNtZ5AIMGTtgceTFG8SVmIYckB64KXE4iY8AUsJGgAAAEhmYMgCAAAAAMhwP0DyC7yEFTNLl5HMMG6gSQabk0QyM5UJq81WaSWsXl1rXjk7fttJqtKsS3B1rapX8XztFjRi7cFwGW2Kqmv5PrXDVu47zyzV7ajzvA6OHYZsrH5Huk63zbdtcNv05fEkxZuElRiGHJAeeCmxuAlPwFKCBt6h45CJ4RsYAACAdWDIAgAAAACcD/cDJL/AS+jf60IWiyhdRjLDuIEmGWxOorcm4Iai2WyVykgmqC6nDU0OX0mrDcu8hUqFyyvzcub+X9MYmbofsbZFSK8ha7XfkjGtjGtVjhvTut927a0bLzyepHiTsBLDkAPSAy8lFjfhCVhK0MA7KENWIZ0DAAAAAAAAAADigfsBkl/gJayYWbqMZIZxA00y2JxEMijNBqcuw01HZU5ys1KhzcmK9dqE61LX1nqnTxrTUtenjkVaWarNWSt71Or+RoK/Nun1Wu13pHF5qswracZClbPSb6fg8STFm4SVGIYckB54KbG4CU/AUoIG3gGGLAAAAAAAAAAAu+B+gOQXeAkrZpYuI5lh3ECTDDanMZuryqCUVoLqMpKpqVeF8mMaXd58vdnQ5fW+0qi9ZVMzPYZsPP2OtHK4btfBdM9DT4b7yseK15dR8HiS4k3CSgxDDkgPvJRY3IQnYClBA+8AQxYAAAAAAAAAgF1wP0DyC7yEFTNLl5HMMG6gSQab0/CVn5EMSr7qU9rCQDrG4f/ubzZFdRl9nJupVv7t37xyNRrmtuPpt/pZma36Wm1kj9t6IjhmfPz4auKMhseTFG8SVmIYckB64KXE4iY8AUsJGngHGLIAAAAAAAAAAOyC+wGSX+AlrJhZuoxkhnEDTTLYnEabiMqU1Oam2aDkxiU3Z6Xz/DpNPIasKvf+vC3BPpnbkchIQ1a1pVe/KnNWG6/6e12flb44BY8nKd4krMQw5ID0wEuJxU14ApYSNPAOMGQBAAAAAAAAANgF9wMkv8BLWDGzdBnJDOMGmmSwOQ03KZv2HyuaoLqMMh2lf8mP51//zaaouZw+ro3WWKtN02PIxtNvdUwbrm2GTQ+b2Oq4Mm5VHWr8zGOT0fB4kuJNwkoMQw5ID7yUWNyEJ2ApQQPvAEMWAAAAAAAAAIBdcD9A8gu8hBUzS5eRzDBuoEkGW0agV4LmL/G8aE7qMg8XK0OFK1QVTVJl1Cpj1OqHepnbMR/XP8cyW9NjyKpjVvvNr1cf5MX3jVV90OMXy0B2Gh5PUrxJWIlhyAHpgZcSi5vwBCwlaOAdYMgCAAAAAAAAALAL7gdIfoGXsGJm6TKSGcYNNMlgywj0yk+zAcnRxmck85PXYYavupVM0UjHdZ3mspz0GrJW+61RxrQ6x1fC6pW26riVfjgJjycp3iSsxDDkgPTAS4nFTXgClhI08A4wZAEAAAAAAAAA2AX3AyS/wEtYMbN0GckM4waaZLBlBFYMRV0m2r/kj992kqo065LG0FQrT8duPRYuE48hq9ArWCPt85peQ1Zhpd8abeBKK2clAzej4fEkxZuElRiGHJAeeCmxuAlPwFKCBt4BhiwAAAAAAAAAALvgfoDkF3gJK2aWLiOZYdxAkww2AOKBx5MUbxJWYhhyQHrgpcTiJjwBSwkaeAcvGrKXZskBMiFSLNiJ1CbwP1Is2IHUFvA/UiwkglQ38DdSHCSKVD/wP1IsAOBVuB8g+QVewoqZpctIZhg30CSDDYB44PEkxZuElRiGHJAeeCmxuAlPwFKCBt4BhizwClIs2InUJvA/UizYgdQW8D9SLCSCVDfwN1IcJIpUP/A/UiwA4FW4HyD5BV7Cipmly0hmGDfQJIMNgHjg8STFm4SVGIYckB54KbG4CU/AUoIG3gGGLPAKUizYidQm8D9SLNiB1BbwP1IsJIJUN/A3UhwkilQ/8D9SLADgVbgfIPkFXsKKmaXLSGYYN9Akgw2AeODxJMWbhJUYhhyQHngpsbgJT8BSggbeweuGrJRwgH/gcy3Fgp3wtqS+AP/A51qKBTvgbUh9AP6Bz7UUC4nA65TaBP6Az7MUB4nC65XaBf6Bz7UUCwB4Fe4HSH6Bl7BiZuky0n3KDTTJYAMgHng8SfEmYSWGIQekB15KLG7CE7CUoIF3gCEL3ITPtRQLdsLbkvoC/AOfaykW7IC3IfUB+Ac+11IsJAKvU2oT+AM+z1IcJAqvV2oX+Ac+11IsAOBVuB8g+QVewoqZpctI9yk30CSDDYB44PEkxZuElRiGHJAeeCmxuAlPwFKCBt4BhixwEz7XUizYCW9L6gvwD3yupViwA96G1AfgH/hcS7GQCLxOqU3gD/g8S3GQKLxeqV3gH/hcS7EAgFfhfoDkF3gJK2aWLiPdp9xAkww2AOKBx5MUbxJWYhhyQHrgpcTiJjwBSwkaeAcYssBN+FxLsWAnvC2pL8A/8LmWYsEOeBtSH4B/4HMtxUIi8DqlNoE/4PMsxUGi8HqldoF/4HMtxQIAXoX7AZJf4CWsmFm6jHSfcgNNMtgAiAceT1K8SViJYcgB6YGXEoub8AQsJWjgHWDIAjfhcy3Fgp3wtqS+AP/A51qKBTvgbUh9AP6Bz7UUC4nA65TaBP6Az7MUB4nC65XaBf6Bz7UUCwB4Fe4HSH6Bl7BiZuky0n3KDTTJYAMgHng8SfEmYSWGIQekB15KLG7CE7CUoIF3gCEL3ITPtRQLdsLbkvoC/AOfaykW7IC3IfUB+Ac+11IsJAKvU2oT+AM+z1IcJAqvV2oX+Ac+11IsAOBVuB8g+QVewoqZpctI9yk30CSDzc+M2XKU7nggH5WqWk88rxmwYCvdmD2HSN5CpejtHsNo9qE/LF9z89256PnaLWjE2oNprqnesgcVqlCFmg0Yd159mvlH/qKOo+fT0y/XpLc6fyCWcRMeT1K8SViJYcgB6YGXEoub8AQsJWjgHWDIAjfhcy3Fgp3wtqS+AP/A51qKBTvgbUh9AP6Bz7UUC4nA65TaBP6Az7MUB4nC65XaBf6Bz7UUCwB4Fe4HSH6Bl7BiZuky0n3KDTTJYPMzdhiyGnMdVq5RxuygJTvC1yhDVp9TpiuvT8PrhSELpUt64KXE4iY8AUsJGngHGLLATfhcS7FgJ7wtqS/AP/C5lmLBDngbUh+Af+BzLcVCIvA6pTaBP+DzLMVBovB6pXaBf+BzLcUCAF6F+wGSX+AlrJhZuox0n3IDTTLY/Ey8hqxkko7fdpIKV6h6nrka7Rq1yrXWO32C53nbypBV9eQv8XzEPqkyalWu6jcMWShd0gMvJRY34QlYStDAO8CQBW7C51qKBTvhbUl9Af6Bz7UUC3bA25D6APwDn2spFhKB1ym1CfwBn2cpDhKF1yu1C/wDn2spFgDwKtwPkPwCL2HFzNJlpPuUG2iSweZn7DBk+XlukMa6RpmyJavUpsdKVAhvT6DM1tvuy0P1ug8Nfp2y8/s018w5/Cfdn78w1e06GIYslH7pgZcSi5vwBCwlaOAdYMgCN+FzLcWCnfC2pL4A/8DnWooFO+BtSH0A/oHPtRQLicDrlNoE/oDPsxQHicLrldoF/oHPtRQLAHgV7gdIfoGXsGJm6TLSfcoNNMlgc4v3pq8NrhRVpqZCrRzle7VyQ3P4mgPBVaq6XMPeI8+rT61kVfuu6voq1msTvM5OQ5afj3WNQhuw2njVPw9a/HmwX+ZrVZ38PAxZKF3SAy8lFjfhCVhK0MA7wJAFbsLnWooFO+FtSX0B/oHPtRQLdsDbkPoA/AOfaykWEoHXKbUJ/AGfZykOEoXXK7UL/AOfaykWAPAq3A+Q/AIvYcXM0mWk+5QbaJLB5gZthk4LG6dmtAmpDVmpjIKblXolrLmM/td/O7YsMK9ojWXIRlshO27rieBKWLPhqs5rAxqGLJRu6YGXEoub8AQsJWjgHWDIAjfhcy3Fgp3wtqS+AP/A51qKBTvgbUh9AP6Bz7UUC4nA65TaBP6Az7MUB4nC65XaBf6Bz7UUCwB4Fe4HSH6Bl7BiZuky0n3KDTTJYMto9L/lK2NyxNqD4ePKVFXHtYHJDVllqGpTU5u52mTl5Wq17xcu13f2xrBJa9WQjYRalSutZlXnJEN20uenqUqzLsHz3FTlK2a1+ar7q8dFldcGMwxZKF3SAy8lFjfhCVhK0MA7wJAFbsLnWooFO+FtSX3xMs3fHRv8haNW497i+UQZMX0v3fPgE9T/443i+WSFz7UUC3bA25D6APwDn2spFhKB1ym1CfwBn2cpDhKF1yu1C/wDn2spFgDwKtwPkPwCL2HFzNJlpPuUG2iSweYmozd9Sb2mrabXWvUIb19gNmTNK1O1canLRdsnVpum6TVkFWoLBG2eWr3G3HduyKrr+QeF8Z9hyEK2SA+8lFjchCdgKUED7wBDFrgJn2spFuyEtyX1xavMWPk9Fa9Qi158vSXdluNBGjfvS7FcIsCQTRzehtQH4B/4XEuxkAi8TqlN4A/4PEtxkCi8Xqld4B/4XEuxAIBX4X6A5Bd4CStmli4j3afcQJMMNjeItMWAwmzI8lWkCvPxaOalNm+tGrLSalfVXtP+qYtPeBvRDFllrJoNXAU3ZPmKWH3OymtyGx5PUrxJWIlhyAHpgZcSi5vwBCwlaOAdYMgCN+FzLcWCnfC2pL54lT4jVgeN2H4jN9Ad9z9CbXtNE8slAgzZxOFtSH0A/oHPtRQLicDrlNoE/oDPsxQHicLrldoF/oHPtRQLAHgV7gdIfoGXsGJm6TLSfcoNNMlgy2i0EamMy3K1mgQ/yKv3zPU0cv0XaVa+esWQVUh9iXWNBDdkeZ1Td/+QxpyFIQvZIj3wUmJxE56ApQQNvAMMWeAmfK6lWLAT3pbUF69SpXZnerRwWZq06GRwpWyJF94Kn9OGar1Wg8J/MVZlpyw9Hdd5ZciqdnjdCrVVgvlYMsDnWooFO+BtSH0A/oHPtRQLicDrlNoE/oDPsxQHicLrldoF/oHPtRQLAHgV7gdIfoGXsGJm6TLSfcoNNMlgy2giGZnmrQjiNWTt2LIgliHLtyBIryGrflb74Qb3px01j+556Mnw9gUwZCFbpAdeSixuwhOwlKCBd4AhC9yEz7UUC3bC25L64kWmLv+Gcj5SMLx3rDJI+bYFylBVq2b1Mb29gTZRrZzXhqxeiavr1mXtXJGbUfC5lmLBDngbUh+Af+BzLcVCIvA6pTaBP+DzLMVBovB6pXaBf+BzLcUCAF6F+wGSX+AlrJhZuox0n3IDTTLYMhpukmqjdfy2k1S4QtXg8XgNWXVMGZ3q2vR+qJdkrqr29JYFvB47DFltvD5V5hXxOAxZKF3SAy8lFjfhCVhK0MA7wJAFbsLnWooFO+FtSX3xImaTVBus2iQ1/6yPaZPVynn9vTZ/ed33PVwg3HYywedaigU74G1IfQD+gc+1FAuJwOuU2gT+gM+zFAeJwuuV2gX+gc+1FAsAeBXuB0h+gZewYmbpMtJ9yg00yWDLaPiWBRLSv/THMmS1gWmuS22JoI5bNWSjwT+Ai1+THkNWvxZVD+8jDFnIFumBlxKLm/AELCVo4B1gyAI34XMtxYKd8LakvngR8zYC0Va46jLcWI33PN+iIFm3K1DwuZZiwQ54G1IfgH/gcy3FQiLwOqU2gT/g8yzFQaLweqV2gX/gcy3FAgBehfsBkl/gJayYWbqMdJ9yA00y2NyAr4hV5C1Uit4ZMStoWGrjMx5DVtdZpVmXcJ3qQ7WGrzmQbkNW9ef52i1oxNqD4jXpMWT1MXM9MGQhW6QHXkosbsITsJSggXeAIQvchM+1FAt2wtuS+uI1tHHKf2HR6FWzdhuy6me1Knb07ENJu12Bgs+1FAt2wNuQ+gD8A59rKRYSgdcptQn8AZ9nKQ4ShdcrtQv8A59rKRYA8CrcD5D8Ai9hxczSZaT7lBtoksEGQDzweJLiTcJKDEMOSA+8lFjchCdgKUED7wBDFrgJn2spFuyEtyX1xWuY94vVKNNUb0PAv+fn9VYDVs5zQ1avwH2zab+k3a5AwedaigU74G1IfQD+gc+1FAuJwOuU2gT+gM+zFAeJwuuV2gX+gc+1FAsAeBXuB0h+gZewYmbpMtJ9yg00yWADIB54PEnxJmElhiEHpAdeSixuwhOwlKCBd4AhC9yEz7UUC3bC25L64iXMWxNEOqcN12gf2hXrvHkFrTKC1SrcZN2uQMHnWooFO+BtSH0A/oHPtRQLicDrlNoE/oDPsxQHicLrldoF/oHPtRQLAHgV7gdIfoGXsGJm6TLSfcoNNMlgAyAeeDxJ8SZhJYYhB6QHXkosbsITsJSggXeAIQvchM+1FAt2wtuS+uIltJEaacsAZZqq/Zba9ZoaNFTrtRoU3s6AG6nacI11nhuysdpOBvhcS7FgB7wNqQ/AP/C5lmIhEXidUpvAH/B5luIgUXi9UrvAP/C5lmIBAK/C/QDJL/ASVswsXUa6T7mBJhlsAMQDjycp3iSsxDDkgPTAS4nFTXgClhI08A4wZIGb8LmWYsFOeFtSX5IRyVCN57yEuiaZtytQ8LmWYsEOeBtSH4B/4HMtxUIi8DqlNoE/4PMsxUGi8HqldoF/4HMtxQIAXoX7AZJf4CWsmFm6jHSfcgNNMtgAiAceT1K8SViJYcgB6YGXEoub8AQsJWjgHWDIAjfhcy3Fgp3wtqS+JCNOGLJq9W2txr3Fc8kCn2spFuyAtyH1AfgHPtdSLCQCr1NqE/gDPs9SHCQKr1dqF/gHPtdSLADgVbgfIPkFXsKKmaXLSPcpN9Akgw2AeODxJMWbhJUYhhyQHngpsbgJT8BSggbeAYYscBM+11Is2AlvS+pLMmKnIavKqq0KHi1clqYsPS2WSRb4XEuxYAe8DakPwD/wuZZiIRF4nVKbwB/weZbiIFF4vVK7wD/wuZZiAQCvwv0AyS/wElbMLF1Guk+5gSYZbADEA48nKd4krMQw5ID0wEuJxU14ApYSNPAOMGSBm/C5lmLBTnhbUl+Af+BzLcWCHfA2pD4A/8DnWoqFROB1Sm0Cf8DnWYqDROH1Su0C/8DnWooFALwK9wMkv8BLWDGzdBnpPuUGmmSwARAPPJ6keJOwEsOQA9IDLyUWN+EJWErQwDvAkAVuwudaigU74W1JfQH+gc+1FAt2wNuQ+gD8A59rKRYSgdcptQn8AZ9nKQ4ShdcrtQv8A59rKRYA8CrcD5D8Ai9hxczSZaT7lBtoksEGQDzweJLiTcJKDEMOSA+8lFjchCdgKUED7wBDFrgJn2spFuyEtyX1BfgHPtdSLNgBb0PqA/APfK6lWEgEXqfUJvAHfJ6lOEgUXq/ULvAPfK6lWADAq3A/QPILvIQVM0uXke5TbqBJBhsA8cDjSYo3CSsxDDkgPfBSYnETnoClBA28AwxZ4CZ8rqVYsBPeltQX4B/4XEuxYAe8DakPwD/wuZZiIRF4nVKbwB/weZbiIFF4vVK7wD/wuZZiAQCvwv0AyS/wElbMLF1Guk+5gSYZbADEA48nKd4krMQw5ID0wEuJxU14ApYSNPAOGWXIjly0UTwuwX/5lBIO8A98rqVYiIWKq01HfxXPmeFtSX1xkhkrv6fiFWrRjdlznEfbXtPEaxIhng/x8jN8rqVYiMbA6cvE42Z4G1IfgH/gcy3FgkLlIbzPATN8nqU44CTL+xnIWPhcS7EAgFfhfoDkF3gJK2aWLiPdp9xAkww2AOKBx5MUbxJWYhhyQHrgpcTiJjwBSwkaeIeMMmRVnJap0cjSAyv/5VNKOBmNNtNKvPCWeL75u2MjnuNwsyyWcdZnxGq6LceDNG7el+J5Mx/PPEiDJ3wmnvMyfK6lWIjFK/Xb0uPPVQrGcKwHWd6W1Bcn0TFUq3HvNMfVPNttyoL0xZXKVcVerhXTmOVtSH2wm2imvsZKHnIKlQdVH26+O5fv/iDA51qKBcWKfV978n1O5xiOHfkmI/74Y8f7mtvvjXyepTjgJMv7WTzEylvm98T0kqy/C0WDz7UUCwB4Fe4HSH6Bl9CeSshiEaXLSPcpN9Akgw2AeODxJMWbhJUYhhyQHngpsbgJT8BSggbeISMNWU2sB1b+y6eUcNxAmQ2SQaofNqw84MbzABuPIZvMqyL5XEuxEAv1AKvjKtaDLG9L6ouTRDJkIx0H6YPPtRQL0eC5Kpoxy9uQ+uA0Xrrvpy7/hnI+UtC3f1jgcy3FgkIbshovvM9Vqd35vPcRPVePFi5LU5aeTlM+HpyOPzvq98I9wudZigNOsryfxUO09zg1P3fc/4htecNLOdFO+FxLsQCAV+F+gOQXeAmde0MWiyhdRrpPuYEmGWwAxAOPJyneJKzEMOSA9MBLicVNeAKWEjTwDm4YsppID6z8l08p4bhBpF/01fH7Hi5gu3EKQ9Ya/AFWE+lBlrcl9cVJrBqy0lyaj6mf1UMsX2WkH2h5Wf19u15T05TnD7+6fX3OHHPR2rJy3i34XPMYsII5nhSSMcvbkPrgNHyupfMZiZf64gR8rnkMcMyGrMat9zn1R8RIpqsdfwhyes7tqN8Lccnn2RwDZpLl/SweYsWa+qOBXSv7/ZqH+FzzGADA63A/QPILvITOuSGLRZQuI92n3ECTDDYA4oHHkxRvElZiGHJAeuClxOImPAFLCRp4BzcNWY35gZX/8iklHLdQDw7mhwrzdgXqgcBsUElmm/nBQa9aUuXVv/zWazUojTkWqV7zcd1WLKPNK/C55vFiFekBVmN+kOVtSX1xkkgPpcp456aJOS7MxyKdVzGgjFBzWXWc189Xeus+8fjlJk48bUnn9TE34HNtjplYSLGk4cYsb0Pqg9NI46+Pqz8SvdV8QJp7X8+NzgkKc26KZt5L1+s44Md1PJlzkDlPmvvYb+QGsQ9Snsvo+OJzbY4XTSRDVpOR73N67KONE/+jnzQfPEfocTfPoZov9V6lzyt4m+brdb28DisxpWMgnriW6rDSJ7vh88zjRSJZ3s/iQY+3Hn8zZkPWSsyZ33Mi5Q2pPqfn2wn4XJtjBgAvw/0AyS/wEjrXhiwWUbqMdJ9yA00y2ACIBx5PUrxJWIlhyAHpgZcSi5vwBCwlaOAdvGDIavQDK//lU0o4bmE2z/Qv+voBVPq3XW6A8YcJ/r2+Tj9A6J/1dfHUq87pfvEHGW606WNegM+1FDexiPYAq9EPspdfk9O1uDI/FHL4A2K0B04dN9FWZJvLqgdUHjf8vLQKm8ealbainXeT9MSVFENmlDF7/R2PuhZPCj6X5uNq3vn9byWHqGsimfdSW/oaHSv8vDkHmX+W+hipD+oeidQvfa3TWImnWIasJiPe56T5MsPLSPNhnjNzDEWaLz03sd6HpD7qOqWYkvqYDO+NfJ6luOEky/tZPOgxlwxZ9R6k7m89f+b5Mf8cKWZ4HLs9304QTwwB4CWUD3BXkwliLnMayZ+Ihr4uZLGI0mWk+5QbaJLBBkA88HiS4k3CSgxDDkgPvJRY3ASGbPKgfrFX5oJ6EHASHatWyJG/BP3n+lyee9BQD3+58z+d5gGRG1Jj5nxx3i/5kR4W+PeSMcYfKuOpV52LZbTpY15AzfHN9z4pxoHd5CpYmq697WFX4irSQ6mel1gmBT+mVhRpM5c/aJrLxqpLxZiux4zuZ7S2rJx3i4yKq5xPlgrmKqkPTiPNrz6uTS19zEoOMV9jPm/1DwHqZykH8WOR2rN6THrdTuJEPOV49Bm6/LpUU01qMz1YGSP+npDIOMe6Jtb7kCobT0xJ7SXDe6NTucjN97N40O99+n3CDB93K3nDHJNem28nUHOskX6PB8CrcD9A8gucQuVI6Xg0dG4NWSyidBnpPuUGmmSwARAPPJ6keJOwEsOQA9IDLyUWN+EJWErQwDuoVT1T1u5wHB2rsajZshtlyZo7/MunlHDchG9boAwtyYRSDwH8gUN/6nikBwdpxYY6b35YtVKvKmfFaPMK6X3QsGr2q3JX35LHtbiKZMgq4nng5NfpB0s1r9L1seqS4i4SUlvxnM9o0hNXUvxIZH+wkKt/OIoUF5GOK6zmEIX5mNU/BKifVTtSTtNlrLQXzzGnsRJPVlfI5iv+IrXsMyJsxjoRP1bGSN2z+g+MUnmel/h1mlhzk94/+Jjrj/aavPzeaCV2NMnyfhYP0nufmhdlrpvHPL15wwvz7QTxxBAAXoL7AZJf4BQqT0rHo6Hza8hiEaXLSPcpN9Akgw2AeODxJMWbhJUYhhyQHngpsbgJT8BSggaZDx2rkVBG7LxtXwTL8l8+pYTjJvqBYdKik8GHDL7KQptS+mFQHYv0sMC/l4wxdV4bsvHUq87FY7S5DZ9rc8xYIdYDrDqv/iCgyvK2pL44iROGrEbHh4rFaHGh4MdUuzymrMDbSuR8RsHn2hwzsZDiiPN25/eD5htvQ+qD00SKC+l4vDkkUj0KXZcyNSLFbXqNlXiPOQ2faylmFLEMWW3Erjn8fbA8r1NqMz3ofBPtPoyVd/h5fp0m1tzE8z5kJaak9uKNazfeG/k8m2PGTLK8n8VDpPc+FV9qvnmMpjdveGG+nYDPtTlmAPAy3A+Q/AKnUPlSOh4NnWdDFosoXUa6T7mBJhlsAMQDjycp3iSsxDDkgPTAS4nFTXgClhI0yHzoWDXDjVgN/+VTSjhuoh4A1aoi9QES0gpW8y//6ph+WIz04CA9+PJj8dRrPqfLexU+1zwGrBLpAZY/uGp4W1JfnCTSQ6n5uDYY9M/6vJ5PKVYixZU5Lsxldd08tnjsxGor1nl9zA34XPMYsIIUTwptxOpyvA2pD04Taayl42qu4skhilhzqWPV/IcAdY7XrcvzeLHaXiL9cgI+1zxWOJEMWbMRq+F1Sm2mF2VGme9PjTnvJDLOsa6RYiAW0WJKai/euE6kT+mFzzOff4lkeT+Lh0jvfQq1QprHqDQ/6pjVvOGF+XYCPtc8BgDwOtwPkPwCp1B5UzoeDZ1vQxaLKF1Guk+5gSYZbADEA48nKd4krMQw5ID0wEuJxU14ApYSNMh86FjVSEashv/yKSUct1EPEU88U/G8f7E0//KvHg7Uv+VJD4f8e/0QquvTP+uHkFj18odYdT6W0aZ+9gp8rqVYiIX5AVZ6cNXwtqS+OImeE/3vkhzzg6qeX32+RddxafYuVnPJrzfHRqSHU/N59bO5X+YYidaWlfNuwedaioVo8HhSmI1YDW9D6oPTSPMb6XisHBIrVtT1ZnOPnzdfr+NK5zTzz7Hai/eY0/C5NseBxmzIRjJiNbxOqU07MBteCv1+wd8fpDFN7xzq8on+wcf8via1FyuuvfDeyOdZigNOsryfxYMec8mQ1fMVKcbMP+v5jPQHy2T+XSgafK6lWADAq3A/QPILnELlT+l4NHTeDVksonQZ6T7lBppksAEQDzyepHiTsBLDkAPSAy8lFjfhCVhK0CDzoWM1mhGr4b98SgnHbdQv9Mp80r/0c/ieeOqX/veGrQo/IPAHSvPDpX6Q0NfVazUozcNqtHr5efODDL/Giw8gfK6lWIiFfoCN9uCq4W1JfQH+gc+1FAvR0LkqkhGr4W1IfXAayaCKdtxqbopUj857Uk6RrjfnIJ2bIpVPzzGn4XMtxYJCG7KxjFgNr1Nq0y7M86Ywv3dFGtP0zmGs96FoMaXg72uR+uj190Y+z1IccPz4fqbHWzJkFWolt5oHs8mq54fHnELFQbQ/WCbr70LR4HMtxQIAXoX7AZJf4BQqj0rHo6F/9wtZLKJ0Gek+5QaaZLABEA88nqR4k7ASw5AD0gMvJRY34QlYStAg82HFiNXwXz6lhAP8A59rKRZi0XHIxJgPrhreltQX4B/4XEuxEI1YRqyGtyH1AfgHPtdSLCiUAWvFiNXwOqU2gT/g8yzFAQfvZ0CCz7UUCwB4Fe4HSH6BUyTijVgxs3QZ6T7lBppksAEQDzyepHiTsBLDkAPSAy8lFjfhCVhK0ABEg//yKSUc4B/4XEuxYCe8LakvwD/wuZZiwQ54G1IfgH/gcy3FQiLwOqU2gT/g8yzFQaLweqV2gX/gcy3FAgBehfsBkl/gFIl4I1bMLF1Guk+5gSYZbADEA48nKd4krMQw5ID0wEuJxU14ApYSNADR4L98SgkH+Ac+11Is2AlvS+oL8A98rqVYsAPehtQH4B/4XEuxkAi8TqlN4A/4PEtxkCi8Xqld4B/4XEuxAIBX4X6A5Bc4RSLeiBUzS5eR7lNuoEkGGwDxwONJijcJKzEMOSA98FJicROegKUEDUA0+C+fUsIB/oHPtRQLdsLbkvoC/AOfaykW7IC3IfUB+Ac+11IsJAKvU2oT+AM+z1IcJAqvV2oX+Ac+11IsAOBVuB8g+QVOkYg3YsXM0mWk+5QbaJLBBkA88HiS4k3CSgxDDkgPvJRY3IQnYClBAxAN/sunlHCAf+BzLcWCnfC2pL4A/8DnWooFO+BtSH0A/oHPtRQLicDrlNoE/oDPsxQHicLrldoF/oHPtRQLAHgV7gdIfoFTJOKNWDGzdBnpPuUGmmSwARAPPJ6keJOwEsOQA9IDLyUWN+EJWErQAESD//IpJRzgH/hcS7FgJ7wtqS/AP/C5lmLBDngbUh+Af+BzLcVCIvA6pTaBP+DzLMVBovB6pXaBf+BzLcUCAF6F+wGSX+AUiXgjVswsXUa6T7mBJhlsAMQDjycp3iSsxDDkgPTAS4nFTXgClhI0ANHgv3xKCQf4Bz7XUizYCW9L6gvwD3yupViwA96G1AfgH/hcS7GQCLxOqU3gD/g8S3GQKLxeqV3gH/hcS7EAgFfhfoDkFzhFIt6IFTNLl5HuU26gSQYbAPHA40mKNwkrMQw5ID3wUmJxE56ApQQNQDT4L59SwgH+gc+1FAt2wtuS+uIlZqz8nopXqEU3Zs8hUqtxb/E6iRHT99I9Dz5B/T/eKJ73I3yupViwA96G1AfgH/hcS7GQCLxOqU3gD/g8S3GQKLxeqV3gH/hcS7EAgFfhfoDkFzhFIt6IFTNLl5HuU26gSQYbAPHA40mKNwkrMQw5ID3wUmJxE56ApQQNQDT4L59SwgH+gc+1FAt2wtuS+uIltCErGa/KYL3j/keoba9p552TgCErx0N64W1IfQD+gc+1FAuJwOuU2gT+gM+zFAeJwuuV2gX+gc+1FAsAeBXuB0h+gVMk4o1YMbN0Gek+5QaaZLABEA88nqR4k7ASw5AD0gMvJRY34QlYStAARIP/8iklHOAf+FxLsWAnvC2pL14imiGrqFK7M5V44S3xnBkYsnI8pBfehtQH4B/4XEuxkAi8TqlN4A/4PEtxkCi8Xqld4B/4XEuxAIBX4X6A5Bc4RSLeiBUzS5eR7lNuoEkGGwDxwONJijcJKzEMOSA98FJicROegKUEDUA0+C+fUsIB/oHPtRQLdsLbkvriJeIxZCXDlR8znzdvh3Bbjgdp3Lwv01yrVuDyLRKsrsb1CnyupViwA96G1AfgH/hcS7GQCLxOqU3gD/g8S3GQKLxeqV3gH/hcS7EAgFfhfoDkFzhFIt6IFTNLl5HuU26gSQYbAPHA40mKNwkrMQw5ID3wUmJxE56ApQQNQDT4L59SwgH+gc+1FAt2wtuS+uIlohmyfUasTmOSxmPI6nr56trm746lRwuXpSlLT0esK54tErwAn2spFuyAtyH1AfgHPtdSLCQCr1NqE/gDPs9SHCQKr1dqF/gHPtdSLADgVbgfIPkFTpGIN2LFzNJlpPuUG2iSwQZAPPB4kuJNwkoMQw5ID7yUWNyEJ2ApQQMQDf7Lp5RwgH/gcy3Fgp3wtqS+eAnzKlYz3ByNx5BVZq55RezU5d9QzkcKButUZe97uECa88kIn2spFuyAtyH1AfgHPtdSLCQCr1NqE/gDPs9SHCQKr1dqF/gHPtdSLADgVbgfIPkFTpGIN2LFzNJlpPuUG2iSwQZAPPB4kuJNwkoMQw5ID7yUWNyEJ2ApQQMQDf7Lp5RwgH/gcy3Fgp3wtqS+eAlphaxeqWpeNRuPIatWw0oGr0LXq7ZD0Mes7lPrNfhcS7FgB7wNqQ/AP/C5lmIhEXidUpvAH/B5luIgUXi9UrvAP/C5lmIBAK/C/QDJL3CKRLwRK2aWLiPdp9xAkww2AOKBx5MUbxJWYhhyQHrgpcTiJjwBSwkagGjwXz6lhAP8A59rKRbshLcl9cVLRNqywLxdgSJeQ1ZvT6DLRkKvnFXtmVfVeh0+11Is2AFvQ+oD8A98rqVYSARep9Qm8Ad8nqU4SBRer9Qu8A98rqVYAMCrcD9A8gucIhFvxIqZpctI9yk30CSDDYB44PEkxZuElRiGHJAeeCmxuAlPwFKCBiAa/JdPKeEA/8DnWooFO+FtSX3xEtH2kFUrWLlBGo8hqwzdm+/OlaZsLPiWBtJ5L8LnWooFO+BtSH0A/oHPtRQLicDrlNoE/oDPsxQHicLrldoF/oHPtRQLAHgV7gdIfoFTJOKNWDGzdBnpPuUGmmSwARAPPJ6keJOwEsOQA9IDLyUWN+EJWErQAESD//IpJRzgH/hcS7FgJ7wtqS9eIpohqwxWtXWB3k5AG6a6rL5WG6/ckNXn+CpZbtJKe8xKhq/X4XMtxYId8DakPgD/wOdaioVE4HVKbQJ/wOdZioNE4fVK7QL/wOdaigUAvAr3AyS/wCkS8UasmFm6jHSfcgNNMtgAiAceT1K8SViJYcgB6YGXEoub8AQsJWgAosF/+ZQSDvAPfK6lWLAT3pbUFy8RzZBV6L1g9Xlt0uq9X1t0HUe58z99niGryuq6dVnzilm9LUKk88kAn2spFuyAtyH1AfgHPtdSLCQCr1NqE/gDPs9SHCQKr1dqF/gHPtdSLADgVbgfIPkFTpGIN2LFzNJlpPuUG2iSwQZAPPB4kuJNwkoMQw5ID7yUWNyEJ2ApQQMQDf7Lp5RwgH/gcy3Fgp3wtqS+AP/A51qKBTvgbUh9AP6Bz7UUC4nA65TaBP6Az7MUB4nC65XaBf6Bz7UUCwB4Fe4HSH6BUyTijVgxs3QZ6T7lBppksAEQDzyepHiTsBLDkAPSAy8lFjfhCVhK0ABEg//yKSUc4B/4XEuxYCe8LakvwD/wuZZiwQ54G1IfgH/gcy3FQiLwOqU2gT/g8yzFQaLweqV2gX/gcy3FAgBehfsBkl/gFIl4I1bMLF1Guk+5gSYZbADEA48nKd4krMQw5ID0wEuJxU14ApYSNADR4L98SgkH+Ac+11Is2AlvS+oL8A98rqVYsAPehtQH4B/4XEuxkAi8TqlN4A/4PEtxkCi8Xqld4B/4XEuxAIBX4X6A5Bc4RSLeiBUzS5eR7lNuoEkGGwDxwONJijcJKzEMOSA98FJicROegKUEDUA0+C+fUsIB/oHPtRQLdsLbkvoC/AOfaykW7IC3IfUB+Ac+11IsJAKvU2oT+AM+z1IcJAqvV2oX+Ac+11IsAOBVuB8g+QVOkYg3YsXM0mWk+5QbaJLBBkA88HiS4k3CSgxDDkgPvJRY3IQnYClBAxAN/sunlHCAf+BzLcWCnfC2pL4A/8DnWooFO+BtSH0A/oHPtRQLicDrlNoE/oDPsxQHicLrldoF/oHPtRQLAHgV7gdIfoFTJOKNWDGzdBnpPuUGmmSwARAPPJ6keJOwEsOQA9IDLyUWN+EJWErQAESD//IpJRzgH/hcS7FgJ7wtqS/AP/C5lmLBDngbUh+Af+BzLcVCIvA6pTaBP+DzLMVBovB6pXaBf+BzLcUCAF6F+wGSX+AUiXgjVswsXUa6T7mBJhlsAMQDjycp3iSsxDDkgPTAS4nFTXgClhI0ANHgv3xKCQf4Bz7XUizYCW9L6gvwD3yupViwA96G1AfgH/hcS7GQCLxOqU3gD/g8S3GQKLxeqV3gH/hcS7EAgFfhfoDkFzhFIt6IFTNLl5HuU26gSQYbAPHA40mKNwkrMQw5ID3wUmJxE56ApQQNQDT4L59SwgH+gc+1FAt2wtuS+gL8A59rKRbsgLch9QH4Bz7XUiwkAq9TahP4Az7PUhwkCq9Xahf4Bz7XUiwA4FW4HyD5BU6RiDdixczSZaT7lBtoksEGQDzweJLiTcJKDEMOSA+8lFjchCdgKUEDEA3+y6eUcIB/4HMtxYKd8LakvgD/wOdaigU74G1IfQD+gc+1FAuJwOuU2gT+gM+zFAeJwuuV2gX+gc+1FAsAeBXuB0h+gVMk4o1YMbN0Gek+5QaaZLABEA88nqR4k7ASw5AD0gMvJRY34QlYStAARIP/8iklHOAf+FxLsWAnvC2pL8A/8LmWYsEOeBtSH4B/4HMtxUIi8DqlNoE/4PMsxUGi8HqldoF/4HMtxQIAXoX7AZJf4BSJeCNWzCxdRrpPuYEmGWwAxAOPJyneJKzEMOSA9MBLicVNeAKWEjQA0eC/fEoJB/gHPtdSLNgJb0vqC/APfK6lWLAD3obUB+Af+FxLsZAIvE6pTeAP+DxLcZAovF6pXeAf+FxLsQCAV+F+gOQXOEUi3ogVM0uXke5TbqBJBhsA8cDjSYo3CSsxDDkgPfBSYnETnoClBA1ANPgvn1LCAf6Bz7UUC3bC25L6AvwDn2spFuyAtyH1AfgHPtdSLCQCr1NqE/gDPs9SHCQKr1dqF/gHPtdSLADgVbgfIPkFTpGIN2LFzNJlpPuUG2iSwQZAPPB4kuJNwkoMQw5ID7yUWNyEJ2ApQQMQDf7Lp5RwgH/gcy3Fgp3wtqS+AP/A51qKBTvgbUh9AP6Bz7UUC4nA65TaBP6Az7MUB4nC65XaBf6Bz7UUCwB4Fe4HSH6BUyTijVgxs3QZ6T7lBppksAEQDzyepHiTsBLDkAPSAy8lFjfhCVhK0ABEg//yKSUc4B/4XEuxYCe8LakvwD/wuZZiwQ54G1IfgH/gcy3FQiLwOqU2gT/g8yzFQaLweqV2gX/gcy3FAgBehfsBkl/gFIl4I1bMLF1Guk+5gSYZbADEA48nKd4krMQw5ID0wEuJxU14ApYSNADR4L98gsyDFAt2IrUJ/I8UC3YgtQX8jxQLiSDVDfyNFAeJItUP/I8UCwB4Fe4HSH6BUyTijVgxs3QZyQzjBppksAEQDzyepHiTsBLDkAPSAy8lFjfhCVhK0ABEQ/olFPgfKRbsRGoT+B8pFuxAagv4HykWEkGqG/gbKQ4SRao/M3Bl1tyU47HidPk1OcXzfkeKBQC8CvcDJL/AKRLxRqyYWbqMZIZxA00y2ACIBx5PUrxJWIlhyAHpgZcSi5vwBCwlaACiIf0SCvyPFAt2IrUJ/I8UC3YgtQX8jxQLiSDVDfyNFAeJItWfGbg++yPB557/XJ9LPO93pFgAwKtwP0DyC5wiEW9Eeyohi0WULiOZYdxAkww2AOKBx5MUbxJWYhhyQHrgpcTiJjwBSwkaAAAAAAAAAKwyfO4aylO0LK3Y97V4HgDgHbgfIPkFTpGIN2LFzNJlJDOMG2iSwQZAPPB4kuJNwkoMQw5ID7yUWNyEJ2ApQQMAAAAAAACAVWDIApA8cD9A8gucIhFvxIqZpctIZhg30CSDDYB44PEkxZuElRiGHJAeeCmxuAlPwFKCBgAAAAAAAACrwJAFIHngfoDkFzhFIt6IFTNLl5HMMG6gSQYbAPHA40mKNwkrMQw5ID3wUmJxE56ApQQNAAAAAAAAAFaBIQtA8sD9AMkvcIpEvBErZpYuI5lh3ECTDDYA4oHHkxRvElZiGHJAeuClxOImPAFLCRoAAAAAAAAArAJDFoDkgfsBkl/gFIl4I1bMLF1GMsO4gSYZbADEA48nKd4krMQw5ID0wEuJxU14ApYSNAAAAAAAAABYBYYsAMkD9wMkv8ApEvFGrJhZuoxkhnEDTTLYAIgHHk9SvElYiWHIAemBlxKLm/AELCVoAAAAAAAAALAKDFkAkgfuB0h+gVMk4o1YMbN0GckM4waaZLABEA88nqR4k7ASw5AD0gMvJRY34QlYStAAAAAAAAAAYBUYsgAkD9wPkPwCp0jEG7FiZukykhnGDTTJYAMgHng8SfEmYSWGIQekB15KLG7CE7CUoAEAAAAAAADAKjBkAUgeuB8g+QVOkYg3YsXM0mUkM4wbaJLBBkA88HiS4k3CSgxDDkgPvJRY3IQnYClB28Ge0yfp4PHPxHMAAAAAAAAA/wBDFoDkgfsBkl/gFIl4I1bMLF1GMsO4gSYZbADEA48nKd4krMQw5ID0wEuJxU14ApYStB0cPziEvt3dWDwHAAAAAAAA8A8wZAFIHrgfIPkFTpGIN2LFzNJlJDOMG2iSwQZAPPB4kuJNwkoMQw5ID7yUWNyEJ2ApQdvB71sep7/WZxXPAQAAAAAAAPwDDFkAkgfuB0h+gVMk4o1YMbN0GckM4waaZLABEA88nqR4k7ASw5AD0gMvJRY34QlYStDpZd+pFKLVgSApXy4UywAAgBfQeRoAAAAA6QeGLADeh/sBkl/gFCpHSMejoXNLyGIRpctIZhg30CSDDYB44PEkxZuElRiGHJAeeCmxuAlPwFKCTi9f7+0YNmR/2PG6WAYAALyAytHScQAyAsQfyAimrN0BgOMMm7Oair1cS4xBAIC34H6A5Bc4RSLeiPZUQhaLKF1GMsO4gSYZbADEA48nKd4krMQw5ID0wEuJxU14ApYSdHr5c9N9YUP27JrLaOd3f4jlAAAgo+g1Znb4zdAKLfuMEOsBIBEQf8BNVEy9Ur8tAI7z1ju9xRgEAHgL7gdIfoFTqPcj6Xg09O9GIYtFlC4jmWHcQJMMNgDigceTFG8SVmIYckB64KXE4iY8AUsJOj0cOmY0EDJjNV8dniiWBQCAjGLr139SoQrVw2+I0chX/EVac/h7sR4AEgHxB9xExZV0HAAAQOaE+wGSX+AU6v1IOh4N/ftRyGIRpctIZhg30ACwEyneJKzEMOSA9MBLicVNeAKWEnR6+HZ34/MM2V8+LSWWBQCAjMTqKkWsTgROgPgDbqHiSjoOAAAgc8L9AMkvcAr1fiQdj4b+/ShksYjSZSQzTDLSALADKd4krMQw5ID0wEuJxU14ApYSdHr4a33W8wxZxZ7TJ8XyAACQUVhZpYjVicApEH/AaQZOXyb+G7mKLel4txFTxXoAAAD4G+4HSH6BU6j3I+l4NPTvSCGLRZQuI5lhkpEGgB1I8SZhJYYhB6QHXkosbsITsJSgEyXly4WiGas4caCfeA0AAGQksVYpYnUicBLEH3ASZeYrU1+KLYl5274Q6wEAAOBvuB8g+QVOod57pOPR0O9ZIYtFlC4jmWEAuI2VGIYckB54KbG4CU/AUoJOlB92vC6asYrftzwuXgMAABlJtFWKWJ0InAbxB5xGmfpSfJmp2bKbeD0AAAD/w/0AyS9wCvX+Ix2Phn7fClksonQZyQwDwG2sxDDkgPTAS4nFTXgClhJ0Iuz87g86u+Yy0YzV7D+5V7wWAAAykkirFLE6EWQEiD/gJFZXyWJ1LAAAZF64HyD5BU6h3n+k49HQ71shi0WULiOZYQC4jZUYhhyQHngpsbgJT8BSgk6Erw5PFE1Yztd7O4rXAgBARiKtUsTqRJBRIP6A08RaJYvVsQAAkLnhfoDkFziFeg+SjkdDv3eFLBZRuoxkhgHgNlZiGHJAeuClxOImPAFLCToRfvm0lGjCcv67Mbt4LQAAZDTmVYpYnQgyEsQfcJJYq2SxOhYAADI33A+Q/AKnUO9B0vFo6PeukMUiSpeRzDAA3MZKDEMOSA+8lFjchCdgKUHHy57TJ2NuV6A5dGyjWAcAAGQkfJUiVieCjAbxB5wm0ipZrI4FAADA/QDJL3AK9T4kHY+Gfv8KWSyidBnJDAPAbazEMOSA9MBLicVNeAKWEnS8HD84RDRfJb7bVUesAwDgHbZ8d5Z67f8v1fnsDOVb9VuQwOyffMd1HacEc/TNTQaJ55OVB1emzlnNz/6kLnv/pBVf/yPOs1dB/CU3yR5/fiHSKlmsjgUAAMD9AMkvcAr1PiQdj4Z+/wpZLKJ0GbMRdnfZdQA4gjnWomElhiEHpAdeSixuwhOwlKDj5fctj4vmq8Tf664KfgCYVA8AwF1GpvyPiq37XTRZ/MgF07+h+8rVoIsmfCme9xPKIOt/8L/ivHsFxJ9/SYb48yPmVbJYHQsAAEDB/QDJL3CKRLwR/R4WslhE6TJmI0wy0gCwA3OsRcNKDEMOSA+8lFjchCdgKUHHw75TKaLxGo0jR2aKdQEA3GHqV3+dvwpxzs9pf/Ypl4z9QjzuV+5d/mvQ+JTiwC0Qf/I5P+LF+PMz5lWyWB0LAABAwf0AyS9wikS8Ef0eFrJYROkyZiNMMtIAsANzrEXDSgxDDkgPvJRY3IQnYClBx8PXezuKpms0fvy8klgXACDjUavWLpkbMr8yiQmWaWHz22LnGTEeMhrEXybCg/GXGdCrZLE6FoDYTFi+hW7MniMmz79W77xrRy/eQKUr10xTrviLVWjIjCXnlY3WTr7CpahNn6G0+cTv511nN9H6ccs9uejVei1ozpYD4rWZmc9O/4/KV68dHKMpaz4XyygSGd8tp85Q7scLizFmJ9wPkPwCp0jEG9GeSshiEaXLmI0wbqAtOkYApAseT+ZYi4aVGIYckB54KbFkNEPXL6JDa4sE2bCkcJhftxZJF2oLAsl0jYb6ADCprvRy9IuPxTccAICM2t8xjWEC/A8zxcpvcnf7GMRfJsRD8adWZjf6/Exwmwy1Qvvmxb+k7atPUFti5H7mRfrXiB3i+WTluoW/BOdNofabxsprYAeJGrKNOvURy2mqN2yTpryVdpw25BRW+hHLdMyMLN75Fd2VO19wfJp1/0Aso0hkfGHIno8VM0uXMRth3ECTDDYA4oHHkznWomElhiEHpAdeSixu0H/DJvp6zX2iSZrM/LU+K6V8uVB8swEAyKiVieGHW6xMzHyE5lwZGVJ8OA3iL5PjUvypD4xTq3P9ar5G4or314rH/YYyaatuPUPrT+OD5EBiaAPt/YnzxPMS2pxTxpp5Nezszfup+AtVz6szWjvL9pwIXpMRRmi0fqhVoNpozghzOJmo264H3X5fHqpUp2nw65pD34nlEhlfGLLnY8XM0mXMRhg30CSDDYB44PFkjrVoWIlhyAHpgZcSi1s033iGBs5rJRqb6eWvFQH6sGmArr4ioIItSOE8Ado9Wi5vBz/seJ12f/OD+EYDAJBRK8Pwb+JAk9EftoT4A5yMir9e+/8bNOzCbavYQ/z5A9NcXjH/5+DqZykOAIhGIoZsr4+nRr1GG7bcYIvVjj4fbfWlHcTqh/7X/KdKVsiQLRSSAW6Yjpy3xtI8xjO+MGTPx4qZpcuYjTBuoEkGGwDxwOPJHGvRsBLDkAPSAy8lFjdRibfMlA20e1ke0eRMBGXGln3ynBFrZlIH+bpEwapYABJHfbBOmodZkKlRJpVaOSjFihMg/gDH6fhTdb+05YzYNvA3ajsKrJYF8ZCIIevENYnUmQhW2vl/9t4EbJKiyvp/QUFGxu3vNx/KjIgb4gIiOoIr6KCgAsKIiIKi4gDyKYOgAg4KOI4wIqCMiojYgGirODQCLYvi24ANsokg0CzaLTs0yCo02ND5r5NVt+pW1M2syKzItc55nt/TXVmRW8R9IzJP3YyUbFBkgYqBCLNQjGh8J/OgIrt3132/1H+cHyTNQyuZwFJui+13TiyHbUo5ZA5bc+xKxqneN+bwdbfpWy4JXWdiniYZ1lnrF59pyI7iY2ZJGdcI0waaZbARkgUdT26speETw1QBkoq3OpYq0R3wHYu+Es/papmeWbjgf7rG63ovHGTEwqQ9as/u8tVXm4mWnjq6Xh6YFUtIfvqPijMzjCjKeskS449YFBV/MGMxx2i8H8bcVPKCcx6Kzr2TpizxI48RKiYl1oP5iGkLxmWTpu1HjMq0R+FDMe583QxO+YwXj4mhKd/peVVd3HNJKutbDriGJYxNq5w79YNvOQs5f32c2F7SulnrF8toyI7iY2ZJGdcI0waaZbARkgUdT26speETw1QBkoq3OpYq0R0wOuTrbr82eviSjU3z0wfJjl11lZno4qNHv997++TvsvDoRetGN95y4ciAQgjxp29OEKJAlqIVL6Fh/BGLouKPmbEEoN8p8ykA0lzEQEvDMt9grOksTgGZl+68smDcfrCPLKZwXtIMw9nr7+yfk0ydIAaiXiaI0YkXmIm5iPLuPKnWNrDs4G+dEC/TxyLb3OtLR5jblLJJmaoypYDsx7dcEmIQ63LWlBRC1voFNGRH8TGzpIxrhGkDzTLYCMmCjic31tLwiWGqAEnFWx1LlegOWHfMobJlNePMWl/uuna/6Kp7qn0jMyFNB49uxjeoLcsU23D2oejhx1dEogvuWT703T2PrYjWOvvBof/r9aeeXjwU/ZbytsYfYAxOQEHx96VrHx3aPplSeu3/sd89asYJIZq8hqwAs/AH51wc7XHAIdGbtti2v45rAPrsRxubReFzHDobVMxUN5M1yei01vE1HNOMTtmmfCfbRNsgS/nY02ajs/9w88h6vuWSsLJhk+oEZK1fQEN2FB8zS8q4Rpg20CyDjZAs6HhyYy0NnximCpBUvNWxVInugN3OedJsWQ3M2P137E5ZsM2b7DLjYFYsIeFoo0GxzcUPR8ueiPoG16qn3R9dfO/jfUMstAHWSkOtFw94O7kVN6Foq0HGGJyQAuIP2ZDP1i/wIlMPXiR46q2j172EaNIyGvMAs04yP7XBlrYfvU5SxqaYdigzDssoFNIMQxiPriks5qNrvFqZoxrMNytG5riygpSzjk3QxyFz2mqwT3e+Wd9yLj517p5T1voFNGRH8TGzpIxrhGkDzTLYCMmCjic31tLwiWGqAEnFWx1LlegO2OqgwSTZsovnzkTPetrghV7/8aGZ6OGz7LJpMCuWkLC856JHzBvVprL66Q9ESx9dEe39h+HHkmFYPbB8RbTVbx+mGZaB9X/9VzNuQtG2+AOMwXCEjD/MSWvtg0wpPdMfL/my4oUQIashK+aZlRkqWBmU4/aTZHwKoQ1Z3/OtmyHrntvpl99oTh3hHq9vOU2auSq462etX0BDdhQfM0vKuEaYNtAsg42QLOh4cmMtDZ8YpgqQVLzVsVSJ7oCtDlrImy0LQ/YNr+zSqYaYD73D35RlViwhxdC2+TvdzEQLbV65RpaYaZDejpQ7Zslj8XfQcTc9NlR+eecfmG16X02n6Hlk2zh/LGMwHCHjD9uy9tFkEBOcFmMCeqYsX/BF0shjoKW91AlMYsimmakhCGXIphnT7rn4Go6+xm0SmKP1+LMWxi9IS2sfn3I+7SHz3eq6pCE7Sh5vxMfMkjKuEaYNNMtgIyQLOp7cWEvDJ4apAiQVb3UsVaI7YKuDdrnt+iOixy94pmmejgPTFuClXp3q8Jq2gFmxhBTHmme16wYdZtjih5+InjU/+RH4JKNCHiuXzMYDFy3rb0uMDxhg+E6bbq01O3pmRZEvvmlb/AHGYCACxh/moh3ZfsNxjX9Oi5GDXowdcDXnkiXJ5DHQZB2Yee5j77+85rbYyMP3eaYsKNqUC2XIgjwv9Tr8xFP668MUhQHrlkO9fuHr3xvaH17CpcuKeYvPek5YqX8xWn3LyXJBr+d+J1hlaMiOkscb8TGzpIxrhGkDzTLYCMmCjic31tLwiWGqAEnFWx1LlegO2OqgLa656/bowcu3ME3UcSw7ZyZaa42ZaPXVZqKlp9plmBVLSPG0LWtsEjPMNRyQeXjbsif6j5jL4+Zp29D7aQtFZo+1MWuRMRiWEPGHlzfF2+sZcE1HsqI5LUYYkKlvxQ0hQAy0cbiZkta8pJqNNttyqLzPfpLMwZCENGTFkHTPA7jnklTWt5xVVgxhC21u+pbTSPum1ZM2kOW4aMiOkscb8TGzpIxrhGkDzTLYCMmCjic31tLwiWGqAEnFWx1LlegO2Oqgk8AUBpaZOg5kyW71hnRD9qY//cjcJyEkHJij0bpBbSpu1phFkpGF/+vHfyF5BNw1I5K24e6r6TzltAfMuAlF2+IPMAbDESr+3nh+u6YSmSTG8B2nxRgGmfpW3BAC8hqyAPOSvusDHxsyEF+7yRbmy6LS9gND74N7fDb6+SXXD61TBCENWYBMUz03K84FGbM6G1WXxTQBUhamtXXO7jaBVT84tv865ocj9a+zcLOUE8Qg9Zk+QoxbmWaBhuwoebwRHzNLyrhGmDbQLIONkCzoeHJjLQ2fGKYKkFS81bFUie6ArQ46iTuvPdA0U8dlwMpLvjZcJ3keWWTfWvskhIRjiwun46VeenmSUeGaFhr3O9/1ms4LznnIjJtQtC3+AGMwHKHi76W/esjcflOZJAub02LYWHFDCCHThPYDLL+gKPJ4Iz5mlpRxjTBtoFkGGyFZ0PHkxloaPjFMFSCpeKtjqRLdAVsddBKPXbi2aaYCmSd2vRfORFcfP1h+7hFdMxbfHfiR4XU0K85bLZ4WwdovISQM//77YdOoDcBg0FlcYkBo08HHqEgqZ32nHyVvEzBMrbgJRRvjDzAGwxAq/jg1S3Ic4YcCTs1yf3TmbdmufwkhpG1oP8DyC4oijzfiY2ZJGdcI0waaZbARkgUdT26speETw1QBkoq3OpYq0R2w1UFbYH5Xy0gVZFqCzmmb4IVeSdmxwq03fNvcNyEkDKfe+rh5c9p0YFho+b59XLIYIW2oueX0ZzHRIDcrsun893WPmXETirbGH2AMTk6o+EOmrbX9pqIzV63vQVKM4f+cFkNRwssLCSGkCWg/wPILiiKPN+JjZkkZ1wjTBpplsBGSBR1Pbqyl4RPDVAGSirc6lirRHbDVQVvc84fdTRNVA1P26L0HGbFg3bVmohM/b5d3efiSjc19E0LC0TazgoRh1dMeiH5zV3Ev9BIYf8QiZPzhpU3WPpoKp8UIy9POKHaubEIIaQLaD7D8gqLI4434mFlSxjXCtIFmGWyEZEHHkxtrafjEMFWApOKtjqVKdAdsddAuV93zSLT8N88xTdTQLLpjsXkMhJAwfPaqdj42TiZjp0uXmfESGsYfsQgZf++7pH0xxmkxwoE5hq24IYSQaUL7AZZfUBR5vBEfM0vKuEaYNtAsg42QLOh4cmMtDZ8YpgqQVLzVsVSJ7oCtDtpl8Z9/YZqnRYAXh1nHQAgJAx7VbNsci2QykJ147p3FZ8cCxh9xCR1/mPrA2k/T4bQYE9KbruBjv3vUjBtCCJkmtB9g+QVFkccb8TGzpIxrhGkDzTLYCMmCjic31tLwiWGqAEnFWx1LlegO2OqgXe77/Q6meZrGg5dvkWu9Ry9a1zwGQkg4vnTto0M3qGS6KdugYPwRTej4g+kPk9faF5liev3ND/683IwbQgiZJrQfYPkFRZHHG/Exs6SMa4RpA80y2AjJgo4nN9bS8IlhqgBJxVsdS5XoDtjqoDWYrmDFeauZ5qnF4xc8M7r5j9/vr4/s2qzTHeAFYvoYCCHhwSPCIzesZHromROYb7OKF9ww/qacguNviwsfGdoPIYDTFRBCSBftB1h+QVHk8UZ8zCwp4xph2kCzDDZCsqDjyY21NHximCpAUvFWx1IlugO2OmgNzFXLNLVAVuw1d90+so2rl94b3XvlR8x1LO6+eq+RbRBCwvPG83vzA9K0mErWPOvB0qYqsGD8TTdFxt+Ztz3OLFnSZ6VeH3PkDY+Z8UIIIdOG9gMsv6Ao8ngjPmaWlHGNMG2gWQYbIVnQ8eTGWho+MUwVIKl4q2OpEt0BWx20BiarZZpq3KzYJHyzZVHGWp8QEhZkprXxBThkPOv/+q+VmrGA8Te9lBF/zMImGsScFSeEEDKNaD/A8guKIo834mNmSRnXCNMGmmWwEZIFHU9urKXhE8NUAZKKtzqWKtEdsNVBC8h2tQxTTVJWbBK+2bIwb631CSHhOeDqR6OnnaGyyZix2GowZ2cV0xQkwfibLsqKP+wDj6hbx0CmC7xIEFnTVpwQQsg0ov0Ayy8oijzeiI+ZJWVcI0wbaJbBRkgWdDy5sZaGTwxTBUgq3upYqkR3wFYHLdx2/RGmWQp8s2KTwDyxeIGXtW0A09ZajxBSDL+564k4o+wp1mO+NMhawXsueqS2pgTjr/1UEX/YX9/sZxxNJZi64rjFfzPjgxBCphXtB1h+QVHk8UZ8zCwp4xph2kCzDDZCsqDjyY21NHximCpAUvFWx1IlugO2Omjh4Us2TjRLs2TFJoEXht117X7mPvAiMXxvrUcIKQ5klf33dY/F5skLzml/dtka+80xl7cBzNH5tgsejr507aOVT0/gC+OvPdQl/k699fFBLNGUnQ567QwznmYsIYSMov0Ayy8oijzeiI+ZJWVcI0wbaJbBRkgWdDy5sZaGTwxTBUgq3upYqkR3wFYHDa67/doRkxRzuxYxlUBStuxNf/qRWZ4QQkKBPtpaTkgZMP7KARnYW1z4iGnakXaCOWM5TQEhhNhoP8DyC4oijzcinkrPYjElZVwjTBtolsFGSBZ0PLmxloZPDFMFSCre6liqRHfAVgcN7rz2wCFzFFmxmP/VKhsCK1sW89NaZQkhJBToo63lhJQB469ckC352tm/mgYeaSCGqY7M7CNveMxsf0IIIV20H2D5BUWRxxsRT6VnsZiSMq4Rpg00y2AjJAs6ntxYS8MnhqkCJBVvdSxVojtgq4MGj124dmyKFpUVmwSyZR+5eIN435i2IMTUCIQQkgT6aGs5IWXA+KsGTGOw+++WTcW0GKDNU2MAmLDvu2QZpycghBBPtB9g+QVFkccbEU+lZ7GYkjKuEaYNNMtgIyQLOp7cWEvDJ4apAiQVb3UsVaI7YKuDhikKQ7TorNg07lj0ldiQvfWGb5vfE0JICNBHW8sJKQPGHykDxhkhhBCN9gMsv6Ao8ngjWAf0LBZTUsY1wrSBZhlshGRBx5Mba2n4xDBVgKTirY6lSnQHbHXQmK6gzKzYJDCP7d1X72V+RwghIUAfbS0npAwYf6QMGGeEEEI02g+w/IKiyOONYB3Qs1hMSRnXCNMGmmWwEZIFHU9urKXhE8NUAZKKtzqWKtEdMCGETDPoo63lhJQB44+UAeOMEEJIEpZfUBR5vBGsA3oWiykp4xph2kCzDDZCsqDjyY21NHximCpAUvFWx1IlVkdMCCHTCPpoazkhZcD4I2XAOCOEEJKE5RcURR5vBOuAnsViSsq4Rpg20CyDjZAs6HhyYy0NnximCpBUvNWxVInVERNCyDSCPtpaTkgZMP5IGTDOCCGEJGH5BUWRxxvBOqBnsZiSMq4Rpg00y2AjJAs6ntxYS8MnhqkCJBVvdSyEEEKqh300qRLGHykDxhkhhJA6kGc8wjqgZ7GYkjKuEaYNNMtgIyQLOp7cWEvDJ4apAiQVb3UshBBCqod9NKkSxh8pA8YZIYSQOpBnPMI6oGexmJIyrhGmDTTLYCMkCzqe3FhLwyeGqQIkFW91LIQQQqqHfTSpEsYfKQPGGSGEkDqQZzzCOqBnsZiSMq4Rpg00y2AjJAs6ntxYS8MnhqkCJBVvdSyEEEKqh300qRLGHykDxhkhhJA6kGc8wjqgZ7GYkjKuEaYNNMtgIyQLOp7cWEvDJ4apAiQVb3UshBBCqod9NKkSxh8pA8YZIYSQOpBnPMI6oGexmJIyrhGmDTTLYCMkCzqe3FhLwyeGqQIkFW91LIQQQqqHfTSpEsYfKQPGGSGEkDqQZzzCOqBnsZiSMq4Rpg00y2AjJAs6ntxYS8MnhqkCJBVvdSyEEEKqh300qRLGHykDxhkhhJA6kGc8wjqgZ7GYkjKuEaYNNMtgIyQLOp7cWEvDJ4apAiQVb3UshBBCqod9NKkSxh8pA8YZIYSQOpBnPMI6oGexmJIyrhGmDTTLYCMkCzqe3FhLwyeGqQIkFW91LIQQQqqHfTSpEsYfKQPGGSGEkDqQZzzCOqBnsZiSMq4Rpg00y2AjJAs6ntxYS8MnhqkCJBVvdSyEEEKqh300qRLGHykDxhkhhJA6kGc8wjqgZ7GYkjKuEaYNNMtgIyQLOp7cWEvDJ4apAiQVb3UshBBCqod9NKkSxh8pA8YZIYSQOpBnPMI6oGexmJIyrhGmDTTLYCMkCzqe3FhLwyeGqQIkFW91LIQQQqqHfTSpEsYfKQPGGSGEkDqQZzzCOqBnsZiSMq4Rpg00y2AjJAs6ntxYS8MnhqkCJBVvdSyEEEKqh300qRLGHykDxhkhhJA6kGc8wjqgZ7GYkjKuEaYNNMtgIyQLOp7cWEvDJ4apAiQVb3UshBBCqod9NKkSxh8pA8YZIYSQOpBnPMI6oGexmJIyrhGmDTTLYCMkCzqe3FhLwyeGqQIkFW91LIQQQqqHfTSpEsYfKQPGGSGEkDqQZzzCOqBnsZiSMq4Rpg00y2AjJAs6ntxYS8MnhqkCJBVPCCGEEEIIIYQQQrLTs1hMSRnXCNMGmmWwEZIFHU9urKXhE8NUAZKKJ4QQQgghhBBCCCHZ6VkspqSMa4RpA80y2AjJgo4nN9bS8IlhiqIoipo6cXCkqhTjjypDjDOKoiiqDipqPMJ2gWuEaQPNMtgIyYKOJzfW0pD47IUrRVEURVEQB0eqSjH+qDLEOKMoiqLqoKLGI2wXuEaYNtAsg42QLOh4cmMtDYnPXrhSFEVRFAVxcKSqFOOPKkOMM4qiKKoOKmo8wnaBa4RpA80y2AjJgo4nN9bSkPjshStFURRFURAHR6pKMf6oMsQ4oyiKouqgosYjbBe4Rpg20CyDjZAs6HhyYy0Nic9euFIURVEUBXFwpKoU448qQ4wziqIoqg4qajzCdoFrhGkDzTLYCMmCjic31tKQ+OyFK0VRFEVREAdHqkox/qgyxDijKIqi6qCixiNsF7hGmDbQLIONkCzoeHJjLQ2Jz164UhRFURQFcXCkqhTjjypDjDOKoiiqDipqPMJ2gWuEaQPNMtgIyYKOJzfW0pD47IUrRVEURVEQB0eqSjH+qDLEOKMoiqLqoKLGI2wXuEaYNtAsg42QLOh4cmMtDYnPXrhSZUkqnhBCCCGEEEIIIYRko2evJErKuUaYNtAsg42QLOh4cmMtDd84pgJLKp4QQgghhBBCCCGEZKNnryRKyrlGmDbQLIONkCzoeHJjLQ3fOKYCK6ljIIQQUg/YR5MqYfyRMmCcEUIIqQNZxyOUBz17JVFSzl1fG2iWwUZIFnQ8ubGWhm8cU4GV1DEQQgipB+yjSZUw/kgZMM4IIYTUgazjEcqDnr2SKCnnrq8NNMtgIyQLOp7cWEvDN46pwErqGAghhNQD9tGkShh/pAwYZ4QQQupA1vEI5UHPXkmUlHPX1waaZbARkgUdT26speEbx1RgJXUMhBBC6gH7aFIljD9SBowzQgghdSDreITyoGevJErKuetrA80y2AjJgo4nN9bS8I1jKrCSOgZCCCH1gH00KYN9D/1J/2LMh932/5a5HULSYJwRQgipMxh7rOVJyHjVs1cSJeXc9bWBZhlshGRBx5Mba2n4xjEVWEkdAyGEkHI57LgLon8/aM4I6KOt5f/5zbPM7RCSh5PPvTt645Yf6l+QpfGazd4b/WD+TeZ2CEmDcUYIIaTOYPyxlichY1bPXkmUlHPX1waaZbARkgUdT26speEbx1RgJXUMhBBCyuU7P7mqPxj6cMh3zjW3Q0hefLMXmbVIJoFxRgghpK5g/LGWJyFjVs9eSZSUc9fXBpplsBGSBR1Pbqyl4RvHVGAldQyEEELK5/2fOLg/IKbxjh0+aa5PyCT4ZC8ya5FMCuOMEEJIXcEYZC1PQsatnr2SKCnnrq8NNMtgIyQLOp7cWEvDN46pwErqGKriuT94nBBCppbnff3G/oCYxvO/vNBcn5BJeeG+88yYE17yye+a6xGSBcYZIYQQHyzPoEgwBlnLk5Bxq2evJErKuetrA80y2AjJgo4nN9bS8I1jKrCSOoaqsDphQgiZJtbd+cv9QdHi5e/d01yPkCAc/0j0ynd+2Iy99f/lvdE/fvduez1CssA4I4QQ4oHlGRQJxiFreRIydvXslURJOXd9baBZBhshWdDx5MZaGr5xTAVWUsdQFVYnTAgh08S4LFlmx5KiScpeZNYiCQnjjBBCyDgsz6BIMA5Zy5OQsatnryRKyrnrawPNMth8+cb8S6M11l5nLFvstIe5fpXIsR94/Bnm93XijCXLo8133C163Tu2iU698RGzTJXoeHJjLQ3fOKYCK6ljqArd+V5xw82EEDKVfHSvA/oDo2bLD+1hlickJJdc86foze/ZcSj2XvP2f40WXHq1WZ6QPDDOCCGEWGhPwPIMigRjkbU8CRm/evZKoqScu7420CyDzRcasuVAQ5YKqqSOoSp052t1zoQQMg38/NyF/YFR872fnm6WJyQ0h377hKHY++yXjzDLETIJjDNCCCEu2hOwPIMiwVhkLU9Cxq+evZIoKeeurw00y2DzpUmmpkuTj71u6HhyYy0N3zimAiupY6gK3flanTMhhEwLbpYss2NJmejsRWYtkqJgnBFCCHHRnoDlGRQJxiNreRJynd6zVxIl5dz1tYFmGWy+0JAlQMeTG2tp+MYxFVhJHUNV6M7X6pwJIWRacLNkmR1bHy6+/pbo0MvuiHZbeFf02l/+JWbm1Ptbx/858Cdx7K356W+a3zeV9c65N26zjy5cGh18yR3Rr6691WznqmGcNZumxBkhhNQN7QlYnkGRYDyylich1+k9eyVRUs5dXxtolsHmS1ZTUx69xxQG+3/n5HjdtdZ9VXTMrxeZy489/4Z4vZMuuz3acZ8vRS945Wvj78C2u322/33atnUZTdZj9zkGXXaTbXbql9vwbVtGe371e/G6ux58VOay7pQF+vN3z7u+v/6aL35FtOdhxw1t33cfk6DjyY21NHzjmAqspI6hKnTna3XOhBAyTUiWLLNj68GxV9wWvfXce0zzpY2s9LOl0bpbfzR68g//bH7fJmCcHXH57Wa7lw3jrL3UKc4IIaSuaE/A8gyKJKs3In5Kz15JlJRz19cGmmWw+ZLXkN3gLVv0jU2Yiqdc95C5HObjCZfc3F/mAsP1J1f9JXXbSXOuZjl232MYVxZoA9S3bJIha60D8uxjEnQ8ubGWhm8cU4GV1DFUhe58rc6ZEELAj6+6Ndrzwrti0wI3uGvOv9e8+W06f3fslXEf/fTDzzW/byrPnn9f3G4A2X8woKx2rguINxzr0Hn8/IHhzy1l1RP/aC5vKy89697K4pFxZn/XRqqMM0IIqTvaE7A8gyLJ6o2In9KzVxIl5dz1tYFmGWy+iKmZBrI2v3n2lXF5bSRqIzBpOfjw5w6Jl2+3x/59cxXldznga/FyeWFY2jYsshiyeY5hly8c0S97+KkX9k1RObY8ZS1DFvuWdSUzOM/xTIKOJzfW0vCNYyqwkjqGqtCdr9U5E0KmFzy++5mL7myt+ZrEGvvNMZe3DZi0O16wNDp/0S1m+1cFstlWPa13nFNijk0tqn3R11jxUBSMsymiwjgjhJAmoD0ByzMokqzeiK+RleS7aAPNMth8yWvIulmlSct//qdHo5dvtImZ6equk7SNJHwN2SzHINmoYohqZH9igGYpK/txDdlx9ZVlH5Og48mNtTR845gKrKSOoSp052t1zoSQ6QTzKMKwG7qhpWnRDpy2fNrp98XZz1YclA3mfRw6VtJ+VCxuveBuMy5CwzibQiqIM0IIaQraE7A8gyLJ6o34GllJvos20CyDzRdfU1NwjcVxy8VQTDINkREqhm/SNpLwPfYsx5C2TXc7WcomGbLj6jHLPiZBx5Mba2n4xjEVWEkdQ1XoztfqnAkh0wWyYrc7/+7hG1kyFWA6iiqzZZGx2D8emv/TR6/NMaWGFR+hYJxNOSXFGSGENAntCVieQZFk9UZ8jawk30UbaJbB5gsNWRqyQMeTG2tp+MYxFVhJHUNV6M7X6pwJIdMDzNj+fIo0KqaStc+8t5I3k2MuTz4+ToSiXsLEOCOaouKMEEKahvYELM+gSLJ6I75GVpLvog00y2DzpWhDNs+UBVZZC99jr/OUBe4xucuz7GMSdDy5sZaGbxxTgZXUMVSF7nytzpkQMj0wM5YAmPIw560YKQq8cMc6FjKdYLqUImKQcUY0RcUZIYQ0De0JWJ5BkWT1RnyNrCTfRRtolsHmS9GGLMj6Qi1rGxZZjr2uL/UaV49Z9jEJOp7cWEvDN46pwErqGKpCd75W50wImQ76cyoya2y66bX/RxcuNeOkCPqPkDP2iCL0y5cYZ8SCL/kihBAasnkQU3Mc47JYk5YDyfK0tmu9MMzahoXPsYtZ63sM48oCbYD6lk0yWn3qMcvx5EXHkxtrafjGMRVYSR1DVejO1+qcCSHtBxlCzz5DvcCLTD14rHve1beZ8RKa/jQZhCiQvWjFS14YZ8QidJwRQkgT0Z6A5RkUSVZvxDWyNnjLu9+1/qZbXrneplv+S29RrCTfRRtolsHmSxmGLDjpstujHff5Un97MEGRrXripbf0y4zbhksWQxb4HIMuu8k2O/XLbvi2LaMD55weG6OuAepT1j23rPWY5XjyoOPJjbU03DimSlJSx1AVuvO1OmdCSPtBhpB1o0qmlF4GIV7yZcVLSPASMb3PKtlw9qHo4cdXRK6Ou+kxs3xR4DjueWxFtNbZD5rfj2Obix+OlndOY6vfPjy0POn8dNlJ9x2MXjwce0WYHwXqEmeMsRrFGAgcZ4QQ0lS0J2B5BkWS1Rtxjaz1N9nyM7Js/U23vEWMWVnmrq8NNMtgI+GRTFUfAzRL2byE3IeOJzfW0pD4jIOYKk9JHUNV6M7X6pwJIe0HGUIjN6olQ6OinkZF0S/4qtNUGVb9r376A9HSR1eUHod5QWbzxfc+Hv3izuXRBfcsH/ouKb50zNYmBnvxsOMFYabOqEucMcZqFGMgcJwRQkhT0Z6A5RkUSVZvxDWyhg1ZYctb5P/u+tpAsww2kg95ARgyUI89/4b+cslQ1dMbZCmblzL2AXQ8ubGWhsRnL4ypspTUMVSF7nytzpkQ0m6QGTRyk1oBNCrqaVT8x8XFzq+49YL6vEgurY2WPRHVo13GIOewbeeY3XNJOj+J273/sKxeMdhhvXPuNeMmK3WJM8ZY/WIMhIozQghpKtoTsDyDIsnqjbhGlm3IDjhizsKh9bWBZhlsJD/yAjALeflXnrJ5KWMfOp50nI1D4rMXxlRZkoq3GqUKdOdrdc6EkHaDlzfFN6U1zBwDNCqqBfNuWnETijrN65lU//hh4LZOEOpMZsl21hnO0pbH/vmx/vcw5nV5bdQjtrXkO30c8v9jljzWK5WeNX7gomX97cy99W9DZZPOr84xGGp+z7rEWVL9MsaqhfPIEkKmHe0JWJ5BkWT1Rlwja5whC978np37xqw20CyDjeQH87h+9n9+FE8HIMbnBm/ZIjrg2HkTlc1LGfvQ8eTGahoSm70wpsqSVLzVKFWgO1+rcyaEtJs3nEujAqJRYbPm/GIzx7B9a79V4NNGkrWN/+M7/YOBlFv88BPRs+Y/0C8rn7H9BzpBi5i1tmNlSuP/iF+JJb0/OT7B/VtBWdk3Piedn95mUplK6P1IhJcOWrGThbrEWVL9MsYqJGCcEUJIU9GegOUZFAm8ka+f8FtvxE951Sbv3hSst+m7j5Zl44Axu867fkBDlgSDhmzDJBVvNUoV6M7X6pwJIe3mpWfRqKBRkY4VN6Gow/zFQlL96xh0y+h21+Xc9azPGr0dvQ/8X+IW5dJixI05N86xrvw4oSWxL2XqFoMh5jGuS5wl1S9jrHqKni+btI8fnDK/n3GVxjYf+OjIut//6c+jd233waFym229XfSt4380UjZtP695079E+33pq9FFV90wsl5oxh3Hh3fbMzrzgkvMdevEZYsWR+/Z4cPRGzd7V2H1Jvv4xxe/PJp72jlmGZBWp1j3Ax/fI5p3zvlD61x89R+jV77uTWZcTYL2BCzPoCi0wVoeW0cv2/xrNGRJEGjINkxS8VajVIHufK3OmRDSbmhU0KgYx/xrijMqMHejtc8qSKp/HR9uO+u4yhqDbkxILOjjcI8p6Rhl25as7G+9rsanTJngvKy4yUpd4iypfhlj1YJzs+KGkDTyGrJ77vtFs5wAY1OX99lPaHPOwuc4xhmQdaAMQ/YX518cveiVG8Z1svcXvmyWAXnqtI2G7Hs+8rn4/zt/+rDowK+fPlLGxTWyfKYsEF7/7p2il77z2L6BZhlshGSBhmzDJBVvNUoV6M7X6pwJIe1m7TNpVEA0KgxKeJR389l7RvdbEUn1j7jrhGC83C2j4zNLDGI72uzX29H7cPeXdIxpy2U/SWU0PmXKBP2TFTdZqUucJdUvY6xaQsUZmS7ETDvyuyeY31uIUQeTzc2GPeXs86K3b/2+kW2m7efs31wWr1OGEZp2HOf+9oq+0fz8l64fzV5y1UiZaeITe38+rof3f3T31PpIq1MYx1Kn2nylIZvPkIUR++VvnR2vrw00y2AjJAs6ntxYTUNisxfGVFmSircapQp052t1zoSQdlP3l93QqKiWp51e7Mtu9rzwLnO/VWDVP2IDmc4ybYV8lrjS8ZklBvV6+A5zDndCJXcMYn0x/11kPmOf+PIpUyYwUq24yUpd4syqX8ZY9YSKMzJd5DFkDznqmNR1xLDVZtu4/cj3aZmYIfA5XxiRZRxLndGG6bE//F+vtkv63srmpSGb3ZAVI1bQBpplsBGSBR1POs7GIfHZC2OqLEnFW41SBbrztTpnQki72e78u80b1LKxbtJpVFQP5hi24iYU866+zdxvFaD+rWklJIaschI3WJ4lBuX/ohNv/lv/Ox0HbkxYMYK/C/lBQZZpJN637fzbtBg89LI7zLjJSl3iTMeOFmOsWkLFGZku8hiyRayTZ5t58NlPklmITN5/+/fP9R/jB9b8qDB0YT4uvOK6uDzKIfv3gK8cHn8Pg1KWA0zv4E47ABP0jW9/d78M1tfz7Lomp/6ss5T1frOg60nqI2l6BJ86lWxbybKlIetnyK63yVZ3yf/d9bWBZhlsRfCN+Zf2YzKJtdZ9VfSTq/5irk+GOWPJ8mjzHXeLXveObaJTb3zELFMWOp7cWEtD4rMXxlRZSuoYqkJ3vlbnTAhpN7gRtW5Qy0YbEFo0KiqiN13BRxcuNeMmJHWZNoPUC/ydnr8o3HQZjDNiETrOyPSQxwgV8w/rwZDEtAWWUadJ249MWVDGNAE+52tldOr5VF3c4xZD9qP/79MjZb/2reP6dafR2biSgWwh5ZIMWWsdkCXbV7alzwvnlDSlxLg6teqThmy6IQsjdr1N3v2+eHlvmbu+NtAsg60IaMiGhYYslVtJHUNV6M7X6pwJIe0G84PihtS6USVTTM+QPfHK28y4CclnLrpzdP9k6tnxgrA/BjDOiEXoOCPTg5hpaVhGHEw2neUpbLb1diPzyoJx+8E+spjCefExZIGb0YnPWE9ns6IOrPlRpSwMSMme/f5Pf943dPVymQ5AzEoxKrFvnXkLQ1hnqbomp3yWY5FjFHM3i/Ep5rM2ca1pKIS0OsW8vBInens0ZA1DdtP3vHe9Tbf6tRixoiTfRRtolsFWBGLIHnj8Geb3JBs0ZKncSuoYqkJ3vlbnTAhpP/0X3vRMOEJA0dMVCPhR4Nnz7zOPgUwn+JHoV9feasZLXhhnxKWIOCPTQ15DVoAReOLPzog+sc/nhx6xF6NQyvnsx3p0PzR5DNm0R/bFCB2XTWqV08utbc+fvSj67g9PHqrbcYasu/20Y08iy/EDn7ZNOi4asuONrCTfRRtolsFWBDRkw0JDlsqtpI6hKnTna3XOhJD2M/+aW5klS/qs1DPmj7j8djNeiuDgS3pTZ/x89HjI9FHUVBmMM6IpY0oW0l58DUpfYNwd9NVvxNvUZlvafvQ6SY/Wi4GHMuOwTEPB53xds9PKGNUgC1UbmNrMlTLuNtOWp02P4BqwSZ/H7TcJn3p26yHNkEW9WEY7Ddn2G7JiNm6x0x7R/t85OV4P0xkce/4N8fdf/dn50Ubv2LYfK2u++BXRJw85ZsiY/PDnDonNylOueyjacZ8v9cvtedhx/X3IcrDdHvuPGJsnXXb7UBl3P0mmqJzrrgcf1V9mlZXtv+CVr+3vY9vdPts/T72eWxfH/HrRyPZ+/qdHo5dvtMlQXZWBjic31tLwjWMqsJI6hqrQna/VORNCpgM8tmndsJLpZL1zysmO1TAGp5zeDwGv/eVf4mxWK0ZCwDibckqKM9J+shqyPhmXYgJqU3LcfsYZh2Uasu7j+WUasvo8t//IbvGLvI6bOy867dzfDNW7u57v9mV5EmnmquBuK2sMARqy02PIbvCWLfpmpRiPYkpaaANUDNn3//sXRsodcOy8ePvucr3+CZfcPGSUamCOSjkcD4zab559ZX8Z9u2WE7NU9pG2fT2XblJdwGjWhqxs3z2WMtDx5MZaGr5xTAVWUsdQFbrztTpnQsh0gBtTPKI+cvNKpg481o2saStOiuYN5/6lexycPmMqWXP+vaU8Qs44m27KijPSbvKYadYj7RoxAfMYsmlmagh8zhfnp8ukmdDWcU9iyCYdn3sM7nq+29fbdJGyaW3g1g2gITt9hmwSOtNTTEgs1yZpUgYozE0s19sQUxTLpOzhp144ZGrqjFv3GGT9Xb5wxNBx7XLA1+LlYiy7RrMc+xu3fP+QsYpy2iyV7evMXL19MXOT6kKW45jFnK3CjAU6ntxYS8M3jqnASuoYqkJ3vlbnTAiZHmDCPe303hyLNCqmEkxdcewVxb/IKwn8MLDd+Xebx0baDbKyyzLJGGfTS5lxRtpNHjNN1oEpiwxObfSd/ZvLYlMP3+eZsiC0QeeSdhx4AZW8pMs1MMWI9H2p16SGLLYn5VCnb9/6fUPH5a7nu31ZbpH24i7BKpMnhmjITo8hqw1Nl+Mv+nP03ycviHbe95D+9AWuoeoalEnb1eYm1pfsVZ3h6paV78Qkls+y7ie+/K3oJa9+w5ABK/uVdfTxCu4x+hwzsoCrMmOBjic31tLwjWMqsJI6hqrQna/VORNCpot5V98WrX1mL1OWpux00GtnmPFVmrGa/7j4zsGPA+oYSTvBXJ5VPD7OOJsuqooz0k7ETBuHazDK2/uT2GjTzYfK++wnLes2FHmPI21eV7f8JIasGJXWfoBstwhDVto0zViV7elzpiHLKQssXINUf5f2qL9ryI4zXpOWp+1DcPclnzGFAfb7g0tvi01XnG+SaaszXjV6GoRxx6yPKWl7RaPjyY21NHzjmAqspI6hKnTna3XOhJDp4/xFt0Sbz94zfDNLo6LVIGusqmkKkkAcYr5P84VzjMdWsPWCuyuPO8ZZ+6lDnJH2kdeQBZjX9F3bfXDIqHzNm/5lJGsWpO0H5t4HPr5HNO+c84fWKYK040g6dgGZqv/275/rl8dxI2P2zAsuGSo3iSGLZTojVo7ra986Lt6uGKHuelm2byEGqdXOLmLcypy6NGRpyFokmZBibGI7W+/y6fgFW4ed8pvouN/8cSTjtGhDVm8b5yafsV8xXuX/sj0595CGLMp9/fRL4vOvKktWx5Mba2n4xjEVWEkdQ1XoztfqnAkh0wuyJfHiE+sGlzQQw1zCXIpHXH672f51ARlth152R2yq9LO3SSNBvL313Huigy+5o3aPjTPO2kOd44wQQuqI9gQsz6AoaMiOkmRCJm3DmgIghCHrm3Eq5fc/5mfxcch6MFaxzb2PPHHoWPJMWTDumKVuxAwuEx1Pbqyl4RvHVGAldQxVoTtfq3MmhBBMY7DbwrtoUrQEmBWYP7Mu0xMQQgghhJDq0J6A5RkUBQ3ZUZJMSG06yvKTLrs92mSbneLluvwkhqx8RsbpnocdN1QWLwCD+aqNTymPF3npeWNxvNgG5rh1jVIcH47Z96VevsfsW8ch0fHkxloavnFMBVZSx1AVuvO1OmdCCCGEEEIIIYS0E+0JWJ5BUdCQHSXJhNRTFlhoA3YSQxbL0qYtsKYGQDYsvrMyYbHcPW/f7ec5Zrds0eh4cmMtDd84pgIrqWOoCt35Wp0zIYQQQgghhBBC2on2BCzPoChoyI6SZEICnRELNnjLFtEBx86LDVhtZE5qyALsa8d9vtTfF9h2t89Gx55/Q7+MIGaolTlrGbjA3T7KIWP2xEtv6ZfJesySeVvmC750PLmxloZvHFOBldQxVIXufK3OmRBCCCGEEEIIIe1EewKWZ1AU02LIkvai48mNtTR845gKrKSOoSp052t1zoQQQgghhBBCCGkn2hOwPIOioCFLmo6OJzfW0vCNYyqwkjqGqtCdr9U5E0IIIYQQQgghpJ1oT8DyDIqChixpOjqe3FhLwzeOqcBK6hiqQne+VudMCCGEEEIIIYSQdqI9AcszKAoasqTp6HhyYy0N3zimAiupY6gK3fmefuXt0Wdm74s2//kj0Vo/XD70HSGEEEIIIYQQQprPW+ctiz7xqwei711y19ByyzMoChqypOnoeHJjLQ3fOKYCK6ljqIp+53vicpqwhBBCCCGEEELIVPFE//+WZ1AUNGRJ09Hx5MZaGr5xTAVWUsdQFcMdMSGEEEIIIYQQQqYRyzMoChqypOnoeHJjLQ3fOKYCK6ljqAq3A95o7v3RXvOuiw4/7bLo+/MXEkIIIYQQQgghpCV84/RLov1OvTra/CfD0xUAyzMoChqypOnoeHJjLQ3fOKYCK6ljqIrnnjR4POGNc+81O2xCCCGEEEIIIYS0C9eUtTyDoqAhS5qOjic31tLwjWMqsJI6hqrQne9n5l1rdtKEEEKaxXs/9qlojbXXycUH9/isuc228Pkjjo1ev9lWQ+e855eOMMu2he+ddn600yf3jY768Vnm92WAY9htvy9H//zWdw3V/Stft0m0xfYfib5y7E/N9aaRr514arT2yzaoRWzW6VgIIYSEB0/Gak/A8gyKgoYsaTo6ntxYS8M3jqnASuoYqkJ3vt8+42KzkyaEENIsaMjafPEbc0bOd80XvTw6+Fs/MMu3gf0O+05sqD1vnVdWYsjCiH3/rnuN1LsFjNnvzPu1uZ1pgoYsIYSQMtGegOUZFAUNWdJ0dDy5sZaGbxxTgZXUMVSF7nytzpkQQkh7EEOy7SZkEmJUw5yclvP/xH8c0j/nsg1ZmLGbbvW+eP8Ahut/HfPjoTKHfv/kaNudP9Ev8+o3vZ2mbI2gIUsIIe1HewKWZ1AUNGRJ09Hx5MZaGr5xTAVWUsdQFbrztTpnQggh7YGGbNeQfevWO5jft5EqDVmpb594QyYvyk5b+9QdGrKEENJ+tCdgeQZFQUOWNB0dT26speEbx1RgJXUMVaE7X6tzJoQQ0h6m2ZDV2Zo0ZItHTw/ha+RlMXBJOdCQJYSQ9qM9AcszKAoasqTp6HhyYy0N3zimAiupY6gK3flanTMhhJD24GvIigkDE+/rPzpjaA7Q9d/wtqF1v/Gj+ebLmrCPpJc1uSbPET84PXrTO/91aP1xL3rCo+7uOnhB1If//fNDj7y7j827uCYTXvrlbnfjt28V7fOVo4bKCT51dcypC6KXvnrjeJmcr35MH3Wlj9v6/t0f2CXTo/zaEHWxjLWs551GXvNb6hLtaO23qlgDeeMC5bLu113X/R4go3jDN7+9vy03hixC1J/7PSGEkOajPQHLMygKGrKk6eh4cmMtDd84pgIrqWOoCt35Wp0zIYSQ9pDHkH3Hdh8eMm90piW2J2ZNGq6Ro02eLXf8t8RtJB2nZH0moY/R15BFuXEvn7JMUZ+60obsTp/cN/F8YV7qunHJMr+qryGb97zTKMLEqyrWJo0LfJ91v2n1Ny6ek2IkRP2FaktCCCH1QnsClmdQFDRkSdPR8eTGWhq+cUwFVlLHUBW687U6Z0IIIe0hqyErJs37d9s7NnlgBu3/te/GZbTJCBNIZ9ehnLzdH99rg9TaPjJJ5WVPWHeXzx7c/87NsNTrukYYshjlO3c9bWRZWZvyuLy7XaynDbm04wHj6grgfKW+9HElfa+PLaspNm7KgrznnYZvnPlSVayBUHGRN8bd9tbHI7GG5XoO3g/u8dmhdULVHw1ZQghpJ9oTsDyDoqAhS5qOjic31tLwjWMqsJI6hqrQna/VORNCCGkPeQzZpIw7n7lJpYy7P739cUah+71sM+txwXhKMmT18bhmluBzLknHpA0x63z1Nqy20esnHV8Sae00yXmnkbbPPPhsz6d9ktZPirVQcTHJfrUJOu54kuopVP3RkCWEkHaiPQHLMygKGrKk6eh4cmMtDd84pgIrqWOoCt35Wp0zIYSQ9pDHkM1qAGqS9uezfVk3j7lkkWbI+mwzyRT1ORe9rpWFOe77tGMfR9q5TXLeach2kwzqIqgq1iaJi6T96nW1CTrueJLW88Gn/mjIEkJIO9GegOUZFAUNWdJ0dDy5sZaGbxxTgZXUMVSF7nytzpkQQkh7SDJdXPKaMDAO8bKtzxzyrehdO3wsXj+vyZN0rLIcyEu8sD29rkWSqZnF7JSMRm00+pzLOFNz3PdFGLKTnncaZRiyRcdaGXGR1QSV/WSNAYuQ9UcIIaTZwAt4/ld/H73o0z+M/v2gOaUBE5aGLGkyOp7cWEvDN46pwErqGKqChiwhhEwPRRiy1tvnXUKZZIIYUxqUw5viZZ5OlySDTS9PymQULKPR51y04WqVqdqQzXPeaSTtc1LKjLUy4iKLITtJDAhF1R8hhJBmU5UhC8SEpSFLmoiOJzfW0vCNYyqwkjqGqqAhSwgh00NoQzbJGH37ez8U7fOVo/ovGspj8ow7Vmx7wze/vb9fDdb55Be/OlQ+ydAaZ4ZqLKPR51zqaMhOet5p+MZZFsqOtTLiIq8hO+54LIqsP0IIIc1GewKWZ1AGNGRJE9Hx5MZaGr5xTAVWUsdQFbrztTpnQggh7SGkISsmFEjKTM1iOLn4HiuMqk98/itm5p/edpKpmcXoknNmhqxdThh3vmnAOJSpKGRfVcRaGXGR5ZhDxAAoov4IIYQ0G+0JWJ5BGdCQJU1Ex5Mba2n4xjEVWEkdQ1XoztfqnCdl7i9Oi04983jzO0IIIeXia3KOM2F8zSExgkKZZD4g00+2rQ2ypGPOYnRJlmHbDNk85z0OWSfL8ep6kPWqirUy4iKrCTquTq1jLqP+CCGENBvtCVieQRnQkCVNRMeTG2tp+MYxFVhJHUNV6M7X6pwn5cKzPxtd/cv3m98RQggpl1CG7DgDEWgjqGyTzDIh09ZNMi01Sefscy51NGTHfSf4tLWFtB/wNfLkePQ6VcUaKDoushqy447HOpYy6o8QQkiz0Z6A5RmUAQ1Z0kR0PLmxloZvHFOBldQxVIXufK3OeVKW/voV0SOzzza/I4QQUi6hDFkfg1AbcmWbZFbGYtox6+NJMq1kv3nORZtiVplxpllRhuwk5+2DtIPPujKHKdDnWGWsFR0XPvvV6447Hquty6g/QgghzUZ7ApZnUAY0ZEkT0fHkxloavnFMBVZSx1AVuvO1OudJ+OkvfhZFC2Zizj7rcLMMIYSQ8kgygFx8TBgx28D7d9t7yPh8/6579b8TkoylrGaVNi/Xf8PbhubDdPettz3OmNLn8+4P7JJ4Pu66PudSpSE7rs3znrcPOK/Xb7ZVfxvW/KWHfv/kofl/0aaucVxVrIEi4yJpv2nryvFgHf3iOj1VhxtDRdcfIYSQZqM9AcszKAMasqSJ6HhyYy0N3zimAiupY6gK3flanfMkXHHOx/qG7A2/epdZhhBCSHmENGS1iWgBY+3fDz7cNIkmNcnwnayfBMwzvc44UzPJnNJoQ07IWldWmSINWX18gt5H3vP2BdvfdudPmNt1gWFr7afKWCsyLvIYsjoWLKx5fouuP0IIIc1GewKWZ1AGNGRJE9Hx5MZaGr5xTAVWUsdQFbrz/e4ZF5kddF7u//Xz+4bs4wtWjU6YP2uWI4QQUg4hDVkgZpWUBfoN+do80kbipCYZOOIHp8dGn943yia9RT7pWFw+f8SxQxmbYOO3b2VuE/icS5WGLNDZk0n7yHreWUF7vXeXT0UbvvntQ/tAvKDNvnLsT831hCpjDRQRF3kMWQFtqusSdaEzZl2KrD9CCCHNRnsClmdQBjRkSRPR8eTGWhq+cUwFVlLHUBXP/cET/c73oJ9faXbQeTj9zO/2zVhh9uyDzbKEEEIIIYQQQggpFyRl0ZAlJB86ntxYS8M3jqnASuoYqkJ3vu89+Tazk87D1b98/4ghe+u5G5tlCSGEEEIIIYQQUi57zbtuyBOwPIMyoCFLmoiOJzfW0vCNYyqwkjqGqtCdL3j/z24JMnXBI7PPHjFkwdxfnGaWJ4QQQgghhBBCSDl8Zt610QtOenTgB5z0hOkZlAENWdJEdDy5sZaGbxxTgZXUMVSFNmND8cGT55tmLPjivMPNdQghhBBCCCGEEFIszzvpb8by7lSGlmdQBjRkSRPR8eTGWhq+cUwFVlLHUBWjHfHk/Hj+zqYZCy47ZyNzHUIIIYQQQgghhFSH5RmUAQ1Z0kR0PLmxloZvHFOBldQxVIXufD8/e2/01nnLhpZlZe2T/ho9OruaacYKb557tbkuIYQQQgghhBBCiueff/ZotMs5Dw4tszyDMqAhS5qIjic31tLwjWMqsJI6hqrQne8VN9w8MX++8pumCau54/JPm+sSQgghhBBCCCGkPLQnYHkGZUBDljQRHU9urKXhG8dUYCV1DFWhO1+rc87KA7/d1DRhNY9d8E/muoQQQgghhBBCCCkP7QlYnkEZ0JAlTUTHkxtrafjGMRVYSR1DVejO1+qcs3D1osujJ857imnCutxw9anmNgghhBBCCCGEEFIO2hOwPIMyoCFLmoiOJzfW0vCNYyqwkjqGqtCdr9U5Z+GWK75imq8Wd1+6k7kNQgghhLSTH191a7TnhXdFbz33nui1v/xLtOb8e6OZU+8nDeHZ8++L2w3stvCu6NgrbjPbuS4w3ppN0+KNkCajPQHLMygDGrKkieh4cmMtDd84pgIrqWOoCt35Wp1zFv564Yam+Wrx+PlPj668/kZzO4S0Fd4cNps23hwyJptNE2Ly4utviT5z0Z2MrZaCGNzxgqXR+YtuMdu/bBhv7aZu8UZIW9CegOUZlAENWdJEdDy5sZaGbxxTgZXUMVSF7nytztmXaxZdaBqvaSy+6lhzW4S0Cd4ctpsm3hwyJttNnWLy0MvuiI+nf3w/f6CLOl7SUJy2fNrp98U/7lhxUBaMtxZTw3gjpE1oT8DyDMqAhixpIjqe3FhLwzeOqcBK6hiqQne+Vufsyx2Xf9o0XdO49+KtzW0R0hZ4c9hiGnpzyJhsMTWKSZj+251/9/DxkakA2fZl/xjAeJteqog3QtqI9gQsz6AMaMiSJqLjyY21NHzjmAqspI6hLC4873+juxe8qc/Cszfp89BFr88NpiCwTNc08AIwa1uTctPvDzcHGkLKgjeH00tdbw4Zk9NL2TGJWMMUCvH+afZPJWufeW/0q2tvNeMjNIw3Uma8EdJWaMgSkg8dT26speEbx1RgJXUMZXLeeb+KHlqwjmmSNpm/XfAP0Z+uOtEcZAgpC94ckrrdHDImSZkxSeOfAPQ56HusGAkJ442AsuKNkLZCQ5aQfOh4cmMtDd84pgIrqWMom9POuyu64bzs0wz4cPv/zkT77zgTPetpMwiwmHXXmolO/LxdPgR/ueR90VXXXW0OMISUCW8OCajTzSFjkoAyYvLgS+7o7o/G/3TTa/+PLlxqxkkoGG8kpqR4I6TN0JAlJB86ntxYS8M3jqnASuoYqmLLnyyMrv7lq0yTMw83/3QmWmuNgRHrss2b7PXywqxYUid4c0hianRzyJgkMSXEJMzeZ5+h5icmU8+qp90fzbv6NjNeJoXxRlyKjDdC2g4NWULyoePJjbU0fOOYCqykjqEqpOP9r1P/K57T1TI9s7D39l3j9WPvmomW/Hiw/KzDBhmzc784vE5emBVL6gRvDolL1TeHjEniUmRMfuaiO819kiml9yMA5jC24mVSGG9kiILjjZC2Q0OWkHzoeHJjLQ3fOKYCK6ljqArd+S66djb664UbmuanD8vO6WbHbrjOTPTwWaPfH/e5MFmyy37zouiGq081BxNCqoI3h2SIGtwcMibJEAXH5LPnV2v+bzj7UPTw4ysiV8ueiKK1zn4wtQyky8G4vvjex3vfdHXBPcvHbmN5Z/FWv324f0yCu45sS76757EV8b71//X6jaUXc0XMX8x4Y7yNUGC8EdJ2tCdgeQZlQEOWNBEdT26speEbx1RgJXUMVaE7X+mQb798vyDZsi6L53azZCcxZO+8fI/oyutvHBpACKkDvDnkzeEIFd8cMiYZkyMUFJPHXnHb6L5KJqmt5t76t2jxw09Ez5r/gHd7Yh0dExJ/ehnw2d42Fz9sxrKO35AxVquY7cXbf1x8pxk3eWG8JW+P8RY+3giZBrQnYHkGZUBDljQRHU9urKXhG8dUYCV1DFWhO1/dKU+aLWshGbIHfsT+Pg1mxZI6w5vD5O3x5rCam0PGZPL2GJPhYxJz0+rtV0FSPevlPm2x+ukPRLd1AsQ18q11x20P21r66Ipo7z8sG1qO9R5YviLeh88xZSH09kKAF8pZcZMXxpu9PcZbl9DxRsg0oD0ByzMoAxqypInoeHJjLQ3fOKYCK6ljqArd+Vqdc6hsWcmOXX21mWjpqXaZJJgVS+oObw7t7fHmsEsVN4eMSXt7jMkuoWPyDef+xdxPmSTVs17u0xZJZr/FuO255r9F2vFJvEJ6O1LumCWPxd9Bx9302FD5pOzwKlhz/r1m3OSF8WZvj/HWJXS8ETINaE/A8gzKgIYsaSI6ntxYS8M3jqnASuoYqkJ3vlbnDCbNlhUztnP6mV7oxaxY0hR4c2hvjzeHXaq4OWRM2ttjTHYJHZMvPetecz9lktT2OrsaZZKmt9DxpdsNSoq9pH0KiDfJBre+B3ob+v8S9/LjwYGLlg1lluM8EGP4Tsf1uGOqCitu8sJ4Y7yNw4obQkgy2hOwPIMyoCFLmoiOJzfW0vCNYyqwkjqGqtCdr9U5a2793YHR4+c/3TRPkzjrsIEZe+Ln7TIWzIolTYI3h7w5HIcVN0XCmGRMjviDS+kAAL1YSURBVMOKm7xUPV8xkDZwJW0iZbK2hY49N+7GbW+SeHO3jeOQTHF8JxndadvQ+6ma+deEm7eY8cZ4G0fIeCNkGtCegOUZlAENWdJEdDy5sZaGbxxTgZXUMVSF7nytztnl6kWXRw/8dlPTRNUsP3cm2n/HrhG76ir+mbHMiiVNhDeHvDkcR9k3h4xJxuQ4Qsbk2mfW7wcAfEb86ekpJmkLrKvbWJalbU8b89b3QG/D/b/799PZfT/e3HO1tuHuqxJ606ZcfP0tZuzkgfFmb4/x1qGAeCNkGtCegOUZlAENWdJEdDy5sZaGbxxTgZXUMVSF7nytztkCUxhYZqoAM3arN3TN2PVeOBNdfbxdzuLPV37T3CchdYY3h/b2eHPYoaKbQ8akvT3GZIcCYhJz0o7sp2SsekZ7SxsllXFJihE3QxqM2578eKDXcZcnxUratt3vfNeriqedfp8ZN3lhvNnbY7x1CR1vhEwD2hOwPIMyoCFLmoiOJzfW0vCNYyqwkjqGqtCdr9U5W9xx+adNMxVoM/Zj75qJHj7LLpcEsm+tfRJSZ3hzaG+PN4ddqrg5ZEza22NMdgkdk9udf7e5nzJJqmdMkaGnlhjXFhJXbia1nqJClvlsD+vpmHe3nxQrbnwnlbO+c3+oqBpMoWLFTV4Yb4y3NELHGyHTgPYELM+gDGjIkiai48mNtTR845gKrKSOoSp052t1zhaPXfBPppkKjvtc14w98CP29+N44rynxNMiWPslpK7w5pA3h2lUcXPImGRMphE6Jg+97A5zP2XitoEgZjumt0AZN8tZS9oWIE613FgDSft0wY8KWnqqDTdW9Pbk2CEds245/VniFNLnUwm9bOyPLlxqxk1eGG+MN5OC4o2QaUB7ApZnUAY0ZEkT0fHkxloavnFMBVZSx1AVuvO1OmcXzO9qGalg2Tkz0VprdA3ZNDZcJz1z9pYrvmLum5C6wptD3hyaVHhzyJhkTJoUFJOY/gDnObI/Mt304u3EK28z4yYvjDdiUlC8ETINaE/A8gzKgIYsaSI6ntxYS8M3jqnASuoYqkJ3vlbn7HL3pTuZJiq44H9sA9ZlnCH71ws3NPdNSF3hzSExqfDmkDFJTAqMyc1n7xnaByGgqCcEGG/EgtMVEJIP7QlYnkEZ0JAlTUTHkxtrafjGMRVYSR1DVejO1+qcNVdef2P0twv+wTRRQ3PNogvNYyCkrvDmkFhUeXPImCQWRcXk/Gtu5Y8ApM9KvX7niMtvN+NlUhhvRFN0vBHSdrQnYHkGZUBDljQRHU9urKXhG8dUYCV1DFWhO1+rc9b86aoTTfO0CPDiMOsYCKkrvDkkmjrcHDImiaaMmNzxgqUj+yXTy3rnFPuDFOONaIqON0LajPYELM+gDGjIkiai48mNtTR845gKrKSOoSp052t1zpp7L97aNE/TeOC3m+Zab9lvXmQeAyF1hjeHRFOHm0PGJNEUHZOYKgMZuNa+yXTx7Pn3xT8KWXESCsYbEcqIN0LajPYELM+gDGjIkiai48mNtTR845gKrKSOoSp052t1zgKmK3jivKeY5qnF4+c/Pbrp94f310d2bdbpDvACMX0MhNQd3hwSoS43h4xJIpQVk9jH006/r7tfTpcxlSAz/9grypk7m/FGyow3QtqK9gQsz6AMaMiSJqLjyY21NHzjmAqspI6hKnTna3XOAsxVyzS1QFbs1YsuH9nGVdddHf3lkveZ61gsvWyXkW0QUnd4c0jqdnPImCRlx+S8q2+L1j6z90MAY2466LUz+pqy+z/G2xRSYbwR0ka0J2B5BmVAQ5Y0ER1Pbqyl4RvHVGAldQxVoTtfq3MWYLJapqnGzYpNwjdbFmWs9QmpO7w5nEJqfnPImJxCKo7J8xfdMnixnHNMpJ1gSowysrAtGG/TR5XxRkjb0J6A5RmUAQ1Z0kR0PLmxloZvHFOBldQxVIXufK3OGSDb1TJMNUlZsUn4ZsvCvLXWJ6Tu8OZw+qj7zSFjcvqoQ0zCDH7tL/9iHh9pIEafseb8e2vzdnvGW8uoebwR0ha0J2B5BmVAQ5Y0ER1Pbqyl4RvHVGAldQxVoTtfq3MGt/7uQNMsBb5ZsUlgnli8wMvaNoBpa61HSFPgzWHLaMHNIWOyZTQkJpGlvdvCuwaZ2qTRIMa2O//uSrKvfWC8tYu6xxshTUd7ApZnUAY0ZEkT0fHkxloavnFMBVZSx1AVuvO1Omfw1ws3TDRLs2TFJoEXht15+R7mPvAiMXxvrUdIk+DNYbtow80hY7Jd0LAghBBCSB60J2B5BmVAQ5Y0ER1Pbqyl4RvHVGAldQxVoTtfq3NedO3siEmKuV2LmEogKVv2z1d+0yxPCCGEEEIIIYSQ/GhPwPIMyoCGLGkiOp7cWEvDN46pwErqGKpCd75W53zH5Z8eMkeRFYv5X62yIbCyZTE/rVWWEEIIIYQQQggh+dGegOUZlAENWdJEdDy5sZaGbxxTgZXUMVSF7nytzvmxC/4pNkWLyopNAtmyjyx8RbxvTFsQYmoEQgghhBBCCCGEDNCegOUZlAENWdJEdDy5sZaGbxxTgZXUMVSF7nzdjhmmKAzRorNi07j98v1iQ/aWK75ifk8IIYQQQgghhJB8aE/A8gzKgIYsaSI6ntxYS8M3jqnASuoYqkJ3vm7HjOkKysyKTQLz2C69bBfzO0IIIYQQQgghhORDewKWZ1AGNGRJE9Hx5MZaGr5xTAVWUsdQFbrztTpnQgghhBBCCCGEtBPtCVieQRlUYcgSEhI31tLwjWMqsJI6hqrQnS8hhBBCCCGEEEKmE8szKAMasvXjZe841FxObNxYS8M3jqnASuoYqsLqhAkhhBBCCCGEEDJdWJ5BGdCQrR+oP2s5sXFjLQ3fOKYCK6ljqAqrEyaEEEIIIYQQQsh0YXkGZVCWIUv8Yf0Vh28cU4HFjoEQQgghhBBCCCGkCw3Z+sH6Kw7fOKYCix0DIYQQQgghhBBCSBcasvWD9VccvnFMBRY7BkIIIYQQQgghhJAuNGTrB+uvOHzjmAosdgyEEEIIIYQQQgghXWjI1g/WX3H4xjEVWOwYCCGEEEIIIYQQQrrQkK2OfQ/9Sb9efdht/2+Z2yH+SF32wpUqS1LxVqMQQgghhBBCCCGETBM0ZKvj5HPvjt645Yf6dZvGazZ7b/SD+TeZ2yH+SH32wpUqS1LxVqMQQgghhBBCCCGETBM0ZKvFN0uW2bFhkPrshStVlqTirUYhhBBCCCGEEEIImSZoyFaLT5Yss2PDIXXaC1eqLOmAJoQQQgghhBBCCCH+9OyVREk5ywwjNuOyZJkdGw6p0164UmVJBzQhhBBCCCGEEEII8adnryRKyllmGLFJy5JldmxYpF574UqVLWmABx98kBBCCCGEEEIIIWQq2e8/D4t+PO8M8zuQ1cCS8pYZRpJJypJldmxYpF574UqVLWkAq7MhhBBCCCGEEEIImQZoyNYDK0uW2bHhkbrthStVtqQBrM6GEEIIIYQQQgghZBqgIVsf3CxZZseGR+q2F65U2ZIGsDobQgghhBBCCCGEkGmAhmx90FmyzI4thqzxTAWWNIDV2RBCCCGEEEIIIYRMAzRk64VkyTI7thiyxjMVWNIAVmdDCCGEEEIIIYQQMg3QkJ2Mk8+9Lzr8pNv77PnVG6M9DrlhiA994dpo8z1+58U7PnFJ9Oq3fyjabNfzze8t3ve5P4zsExx6wq394zrxF/eYxz9tZI1nKrCkAazOhhBCCCGEEEIIIWQaoCE7yjd+fEdsYh7wrSV9cxOmpxigb9j50ujFW11QGC9593xzeSg23OG3/XPZ8lO/75/jPkf8sW/gwmi26qbpZI1nKrCkAazOhhBCCCGEEEIIIWQamEZDFoYjskdhQn70oOtiY/ItuxRrsjYVmM+oH2T5or4O/M5Ncf3NPedes27rTtZ4pgJLGsDqbIriuT94nBBCCCGEEEIIIcQby18ISVsNWTyiD+MQUwiI6bredheapuMkrLf9RdE797mqz8ePXBx96js3DbHvCbdGR517f2EcdPKdI/sE+rg2KiirF/X6gf2vic1a1Pec0+8226MuZI1nKrCkAazOpiisjpUQQgghhBBCCCEkCctfCEkbDFmYgF/+3s2xKTip8fqyf104Yq66huopNyyPzrwlajT6fLShK+e+4Y4Xm/Xjw8u2XRi3w65fvj7OqP3uvLvMdquCrPFMBZY0gNXZFIXVsRJCCCGEEEIIIYQkYfkLIWmiIfvtk++K5zvFvK6YD9UyBZMQw/VfD7g2NiD/44e3x6bkD69cZhqX085PrnlsyLR9/8HXxfWHzGCrfpOASS7z1SKT1mrXMsgaz1RgSQNYnU1RlNmhEkIIIYQQQgghpJmU6R80wZDF9AN4wdY2e18VZ19ahp+LTCWALFfJcG1DZmudOG3xE3G9wtT+xDf/nDmz9l92vTw21svMoM0az1RgSQNYnU1RlNmhEkIIIYQQQgghpJmU6R/U1ZDFNAQw63xetiVZrzAFvzxvaXT8pQ+bBiIpB2TVHn72vXFG7db7Xu1l0uLlYZjrt2hzNms8U4ElDWB1NkUxSYd69dIHo0OveSDa4/IHojd3AgjMnHo/qSn/PNtto10uezDa/8oHot/c9oDZrlXCmGoWTYgpgbHVLOoeW4ynZsF4IiGpWzwxfppFHfsjxlCzqDqGJvEPslInQxZv7kcmLOYftUw7AQYfphxA5uvR5z9omoKkXsAkRybtTv91Q/TGf7vcbFcB5izMeGRGW3EyCVnjmQosaQCrsymKrB3qLfc+GB30h06wnMuBug2sddb98WB+4z12e5cBY6pd1CGmBMZWu6g6thhP7YLxREJSdjwxftpFFf0RY6hdlBlDWf2DSaiDIQvjDS+ASnsZ12Z7/j7a+3s3R9+78K+m4UeaBaaPQDYz5qRNmo8W01N8YP9r4mxpK27ykDWeqcCSBrA6m6LI0qHil9M1znQG7Z9zEG8kTrs95bQHor1/3704s9q+KBhTLaImMSUwtlpEDWKL8dQiGE8kJBXEE+OnRVTUHzGGWkQFMZTFP5iUKg1ZZMTiMfWkeWHxuDtMO8792n4wxQGyZzH9hBULmD84RMZs1nimAksawOpsisKnQ8VjLEO/nnLAbheqPXFxdu6tdhyEhDHVciqIKYGx1XJKji3GU8thPJGQFBxPjJ+WU0J/xBhqOSXEEPDxD0JRlSGLqQk23OG3I8bbRjtfGk9FgHlILeOOtBuY7wedfGe0iTFtBYz7Pb96Y3TyufeZMeVD1nimAksawOpsimJchzr/pgeiZ5wx2sk3gQ1nH4oefnxF5GrZE1G01tkPppaBdLlVT7s/uvjex3vfdHXBPcvHbmN5Z/FWv324f0xNAL+sHrmouLmIioypurZ52ramgaJjSmBsdcXYCgPjqSvGUxiKiifGUn0JGU/sj7pif5QfxlBXjKHJGecfhKRsQxZmGh5Dd802TEnw32fcY5p0ZDo56tz74yxpN1YwxzCyq634GkfWeKYCSxrA6myKIq1DxcBtde5NAYP2PY+t6A/wwtxb/xYtfviJ6FnzH0gs44J19AAuA7w7qPtur7aoCzQ8zuTGxKQUHVN1bXPfbWWlEfFWcEwJjK3uZ8ZWGBhP3c+MpzAUGU+MpZoSMJ7YH3U/sz/KD2Oo+5kxFIY0/yA0ZRqyMNH+ZdfhFzrhBV2YlsAy5AgBMGbdF4HhxV955pbNGs9UYEkDWJ1NUSR1qHikpf8rakNJGiz1cp8BdfXTH4huW/bEyK+u1rqNGKA9wa+quIDTcTEJZcRUHds8y7ayEmIbZRI6pgTGFmMrZGwxnhhPTYqnpLrVy33qn7FUHJPEE/sjxtCk/RFjiDEU+vo7yT8ogjINWTczFnOGcn5Y4sunvnPTUPwgU9aKszSyxjMVWNIAVmdTFFaHuvR+Z36hhpI0WOrlPgNqll9TmzZAjwPzD4V4W2dZMVXHNvfZlvsLPjhw0bL+sm0ufrj3oNXgkSxcaC59tPvYln5MSy/vXIf2j0uO49g/P9Z/3Avbx/Hrz7L/oggVUwJji7ElhIgtxhPjSWhKPDGW6h9LIE88sT9iDAl5+yPGEGNICHn9bfkHRVGWIXvoCbcOmWkw1yzTjZA0kE2tX/y1zxF/HIm1NLLGMxVY0gBWZ1MUVoeKxxqsjrxpJA3UevDVg6ErPTjqQRZKGjh9Ljaaxo4XT/6LalkxVdc2H7ctdxty8bb3H5bF6+pf+HFxmPT4l14Pn3FRKWXlO/ksx6S39UDnylL2UyQhYkpgbDG2NJPGFuOJ8aRpQjwltStjqV6xBLLGE/sjxpAmT3/EGGIMaUJdf1v+QVGUZcjq7Nj3H3ydabYR4oPOlMUUGG6spZE1nqnAkgawOpuicDvUW+59MPq/Z5YzeBdN0sB/3E2PDZUZN5i76MF93MDeeHrzD/3mtvwDeJkx1YQ2t7blXsjpbUp5+U7j7tv9jHXlYtLdx7jPhREgpgTG1jCMrclii/E0DOOpGfGEumQs1TyWQMZ4Yn80zNTHUI7+iDE0DGMoewwl4foHRVKWIfu6HS/um2hHnH2fabQR4gOmuZBYetm2C0diLY2s8UwFljSA1dkUhduh7v373qDW67SbjDVY4mJBD3humSxgXfcXzUm2V2e2XJh/8C4zpprU5u628Gu6XCDi//oiVl9EQnI+7r7x2b0g7uyiXheEPSaJKYGxZeNui7HlB+PJxt0W48mPsuIpqW4ZS/WLJeAbT+yPbNxtsT9KhjFk426LMZQd1z8okrIMWTHQuobsvabRRogP2pAFbqylkTWeqcCSBrA6m6JwO9S1zrI77yZiDdR43EQGyKQyLlhnmZoLSLAGUJ/tNY7OhdxTOhck+KXdjR8fyoypOra577Zw0XfTI09EL/nlg9HCvzw+dNGp0dtz9512LOMuAK1zK4wJY0pgbDG2RpggthhPjKcRGhBPjKWGxBLIEE/sjxhDI2TsjxhDjKERAl1/u/5BkVRhyOJlXpbRRogPe3/v5qF4cmMtjazxTAWWNIDV2RSF7lAvu7M3iHQ665EOvIEkDY6YzyhpDiALGShlHVmOX1HdZT7baypHX5/9F9WyY6qObZ5lWzhOTPr/hwce7y/H9vUv+e4Fof7OvajTx+Z+N+5zGeSJKYGxxdhKI2tsMZ4YT2nUOZ6S2pWxVM9YAuPiif0RYygNn/6IMcQYSmOS62+g/QPr+5BUYciCfU+41TTbCEnj8LPvHXqpF3BjLY2s8UwFljSA1dkUhe5Q979yMDC1gaSBGr+E4vETPJ6CMu4jJlp6cMRgreUO5iBpn21gu9/aMZRG2TFV5zb32RYu9iD3okyWQ53rv5ELQEjWkXOFrLJSrg4XhHliSmBsDWBsjZI1thhPAxhPo9Q5nhhLzYolMC6e2B8NYAyN4tMfMYYGMIZGmeT6G2j/wPo+JFUZsuAjh/0xOm3xE6bxRojLf/zwdjOO3FhLI2s8U4ElDWB1NkWhO1R0zlanTQhY55fZf01lTGXD9+KyLeSJKYGxlQ3GVjqMp2wwntJhPPkzbbEExsUT4ycb7I9GYQxlgzGUDe0fWN+HpEpDFrzx3y6Psx4tA44Q8L0L/xpttufvzfgBbqylkTWeqcCSBrA6m6LQHeqbO0FgddqEgGeccb8ZQ2kwprKBx6iQRWB910byxJTA2MoGYysdxlM2GE/pMJ78mbZYAuPiifGTDfZHozCGssEYyob2D6zvQ1KFIfuvB1w79BnAcPvyvKWmIUemk6POvd+MlU32+N3QZzfW0sgaz1RgSQNYnU1R6A61zMnfSTPJOgk8Y8oP/DKPx7hkbiqrTFvJ+2IBxpYfjC0/GE9+MJ78YDyNZ5pjCaTFE+PHD/ZHyTCG/GAM5UP7B9b3IanCkIXZhjlk19v+oqHlYKOdL42/+8k1j40YdKT9nHLD8uigk+8cMV2FT3zzz/E0F3qZG2tpZI1nKrCkAazOpih0h7rGmfw1lSTQeynAjffYcZQEY4okkjOmBMYWSSRHbDGeSCKMJxISj3hi/JBEPPsjxhBJZMLrb6D9A+v7kFRlyAKYrphHVn+n2Xrfq+OsWZh02rQj7QIG63+fcU+003/dMPLCLuGd+1wVHX/pw/119HdurKWRNZ6pwJIGsDqbotAd6j/PcvAmyax2evb5hhhTJI08MSUwtkgaWWOL8UTSYDyRkIyLJ8YPScOnP2IMkTQmuf4G2j+wvg9JlYas8MMrl0UfP3KxmTErYEqDvb93czyfqLs+aR5oc7ykC1MSJJmwWA6TVhuxgi7nxloaWeOZCixpAKuzKQrdoW65sB6Dt35zpajp8/rgLZ36jZtAHpNxpcuhTF0mmcfjT1YMpVGXmCoTq61B09q7DPLElMDYGixnbI2SNbYYT4PljKdRGE/pMJayMS6e2B8NljOGRvHpjxhDg+WMoVEmuf4G2j+wvg9JHQxZQR5XRzakLu+y4Y4XR+8/+LrY0LPMOlI/0E5oLxiseJGb1a4CpitA2bRpK3R5N9bSyBrPVGBJA1idTVHoDnWXy+oxCM299W9DBqwYtJOaslUNtnL8v7hz+dA5JB2PvqCo0wXCZhdk/zW1LjFVFkltDZrW3mWQJ6YExtbgO8bWKFlji/E0+I7xNArjKRnGUnbGxRP7o8F3jKFRfPojxtDgO8bQKJNcfwPtH1jfh6ROhqwGGZSYSzZpLlEN5p3F9Aaf+s5N0eFn3xuva20ziTOWLI8233G3aM0XvyL65tlXmmVCcMIlN0cveOVroy122iP+LPt93Tu2iU698ZF+ubm/v6v//6pxj9kHGKloB7QH2gUGutVuGpi0yJL2Ndj1um6spZE1nqnAkgawOpui0B3qKX/uDUK9uWWqYPXTH4huW/ZEPDjq5SEGyqoGW9nvtp2BX+8/6XjkomLvPyyr1QXCQX/IPnjXIabKJKmt9XdNae8yyBNTAmOLsZVG1thiPDGe0mA8JcNYys64eGJ/xBhKw6c/YgwxhtKY5PobaP/A+j4kdTVkNTD4kDmb9ni7C6Y/QKYtTD4Yu3hjf9JctGI6rrH2OtGuBx9llgmBjyF7wLHzope97i3RT676y9C6VZFmyGLuV9Qrslnxsi3Ut4/5KmAaCrRNnixnvR031tLIGs9UYEkDWJ1NUegOden9D0bPOMPuuMtCBkf3102Nm0ELDly0rL8Mv3iK5JdPGL1LH+18UMtQVi/Xb9iU4zj2z4/1H3PB9jFg68+yf2uf8p0+Nhz7cTc9Fv+/aRcIl91px1AadYipMklqa8ALwlHyxJTA2GJspZE1thhPjKc0GE/JMJayMy6e2B8xhtLw6Y8YQ4yhNCa5/gbaP7C+D0kTDFmXo89/MJ5PFtmXvgatgPIwDmHuIoMTZuJW/3ZQ9LyXvip6z8f3jtZa91WFmaE+2aYf/twhhR5DVr517p+i57/8NdFG794lri9MFYH6S5vv1wLlJYsZJq61ryzobbuxlkbWeKYCSxrA6myKwu1Qt/tt9QORNkkhGWAFd9DUA6qbYQujdPHDT0TPmv9A6nr4jMFcysp38lmOSW/rgeUr+mZv0j6zHI+AMmIO1+UCYZ1f5v8ltQ4xVQZpbY3PTWrvMpgkpgTGFmPLIm9sMZ4YTxaMp2QYS9nxjSf2R4whiyz9EWOIMWQR4vrb9Q+KpImGrAte9PXleUv7WZpZzMIXbfnr6Dkv2Thac733R2tvenScJbvR9kf3s2thIEqGrZCUaTuOOhmy+nyQfYzzBDhvIJmuL9j8lGiNF24Q149bd0mI6Y32QLsUMc+v3p8ba2lkjWcqsKQBrM6mKNwO9Te3dQevujzigkFWzFkxZl0jVQ+iUl6+07iDrftZD+juPtI+p+3TvSjQZbH/2k8y34uD79+Yf/CuW0wVRVpb43Mj2rsMAsSUwNhibA0xYWwxnhhPQzCexsJYykDGeGJ/xBgaIkd/xBhiDA2RI4aScP2DImmDIWuBaQ5gNiKTFsZqklH7grcdF5uwz3/z4X1z9rnrbha96N2/Gir3oi0XRP+43vtGvnvl+34TrfP6D0Rrb7B59I5/v7Rv4u7y1Uuj9d/6wXjbYOOtPhV96D8XRM9bd8Pozdv8W3xsXz/nnuhN7/lY9Kq3bBUddsZt8f+lPJByFjBR3/e5n0XrbvTufvnnvujl0WY7/3f0if+5Pj6GLT59Rf/YXr3dKdGaL9+qW/YFL4/W2viAofMDL9z859Gar9y2v71/evXHohe8fW6qIYt6xYu6sD8cV9b5e/Oij8GNtTSyxjMVWNIAVmdTFFaHuuPF9RvAMVBKRio+60dT8H/9aIoMxCI9IOvB1hqgZXDOYsgm7VPKWMKx+wz+dbhAWP/cyQfuOsZUSMa1Nco0pb3LIERMCYwtxpZm0thiPDGeNIynZBhL2ckaT+yPGEOaPP0RY4gxpAl1/W35B0XRVkM2DRiHeOnU//v2n6L13/qh6LkvWi964y4L4mP7p9d8MjYs1/6XE4eOOcmQtZZLVqkYm8Jz19lkyNwcWvdd58T/1+XTslLXeuNXhspqnve6z8RlZPtWGSDlQNIx/9PLN43WfMmro/XeunNsuiLjFfWXN0s4FHLcwI21NLLGMxVY0gBWZ1MUVod64z3VzTuEXznl8RG9XAZcbYDe9MgT0Ut++WC08C+P941aF709d7BNG3zd/Y37rJF9WhPLA+wX5vK+1yxrxAXC/JsmH7yrjKkySGonaWvEp09b1qG9yyBETAmMLcaWZtLYYjwxnjSMp2QYS9nJGk/sjxhDmjz9EWOIMaQJdf1t+QdFMY2GrCBTCOgXeWEZ5kxFdqp+lH/7A6/pZ5u+9f8NXlzlGrLaBP2nf/5036Rd+63f7RuepiHbKwdD+DkveGX0wnf+or8PF8nkRbkXvP3H/eUwVXWGrz4W7FP28cp3fS1ets7rd4rndYUx/erNPhwv2/b/HRJ97cw74xd2HX7qhXH9YHnaNAtVIOcM3FhLI2s8U4ElDWB1NkWR1KH+6E/V/JIqRqd+9ATo+V1lGSZtx0u3/vDA4/3legDGZ9eQ1d+5pqoejLMYskn7nL17ef/XWRcc+3md72p7gdD7JX3St3BqqoqpMkB7prU1Mrh92rKy9i6DAmJKYGwxtvBvqNhiPDGe8C/jKR3GkicTxhP7I/ZH+HeS/ogxxBjCvyGvv5P8gyKYZkMW87Wu+eJXRN88+8r+sjOWLI8233G3kXlcZfnr3rFNdOqNjwwt3/S9H4+nHYCR+YUf/iH6p5duGL367R/tm7nCDv9xRt8IxaP+ekoBTHcQT6uw2T5xxu5mn/xN/DkJvFwL2/zoIRdG23325OjN2+/fn77gpRu9KzrwJzf3p0R43jrrD53Lz//0aPTyjTbpn0va3LbfmH8pDVkqnKQBrM6mKNI61P2vrG4AxyCq5ZqxAMYn5GapynJouZofSExUSNbRUw1YZX0MWXx29/mByx4emmDeRcqLWWyVAVVcIKzU+3fLheEGbqHKmCoKxNC4tkY7J2VMa9p6QVhkTAmMLcaWFRd5YTwxnqy4yEvb4omx5EeoeGJ/xP7IiossMIYYQ1Zc5CXNPwjNtBqyYkrCbExCZ86mGbJ6uZV1K8g+xdy0tun7Ui/Zj3Xcsr0ijrku6HhyYy2NrPFMBZY0gNXZFMW4DnWPy9UA3vuFrS60+SK+ajBwL71/NB5CUOeYIsVRZEwJjK3ppKjYYjxNJ4wnEpJQ8cT4mU5C9keMoemkiDFtnH8Qkmk1ZCXzMw1tZNbJkNVm8ta7fDr65CHHRIed8pvouN/8MV4u26MhO0rWeKYCSxrA6myKwqdDxdsYn3J6/QZu/WIvEg78im7FQUjqGlOkGMqIKYGxNV0UHVuMp+mC8URCEjqeGD/TRRH9EWNouihqTPPxD0IxjYasGJJpxieMURieBx5/Rvw5aR0xLF1z0zIw3cf/8xqysh05NsE9lqyGrM8x1wUdT26spZE1nqnAkgawOpui8O1QL7vzwWizC5wBvKJfV5EZ+/DjK+LHUJgdOwFO++HNm6f82W7/IqhTTJFAVBxTAmOrhVQYW4ynFsJ4IiEpMZ4YPy2k5P6IMdRCSo4hX/8gBNNoyKYZkIJVRkxaySQVYxPLXFMVy3b5whH9ZdYLspIMWXdeWxdtksp6J112e7TJNjsNHYuvIYtlvsdcF3Q8ubGWRtZ4pgJLGsDqbIoia4eKtzP+8ywH7UaScLG11ln3R0cuKjYrKA3GVIOpaUwJjK0GU8PYYjw1GMYTCUkN4onx02Bq0h8xhhpMxTGU1T+YhGk0ZPf/zsmxyehmmGrEtNTmqDXNwYZv2zI2QrW5KWauWxbTC2iT1zJG5dhAkgmqpyywkAzbLIas7zHXBR1PbqylkTWeqcCSBrA6m6LI26FevfTB6NBrHoh/YV3jTA7mTWK10x+I3tz5g9/79w9Gv7mtmhtRC8ZUc6lrTAmMreZSx9hiPDUXxhMJSR3iifHTXOrSHzGGmktVMZTXP8jDtBmyYmaOmxYAiDmq51Y94Nh5feNy290+G51y3UOm6YmM1R33+VLf2Nxuj/2j7553/VhDFsfnZrrKNjU6IxZs8JYt4mPTGbZZDFnZ5rhjrgs6ntxYSyNrPFOBJQ1gdTZFUWaHSgghhBBCCCGEkGZSpn8wrS/1Is1Gx5Mba2lkjWcqsKQBrM6mKMrsUAkhhBBCCCGEENJMyvQPaMiSJqLjyY21NLLGMxVY0gBWZ5OVR249xVzuUmaHSgghhBBCCCGEkGZSpn9AQ5Y0ER1PbqylkTWeqcCSBrA6m6w8ceFa0UP33WJ+pymzQyWEEEIIIYQQQkgzKdM/oCFLmoiOJzfW0sgaz1RgSQNYnU0WHr5tfhQtmImW/elI83tNWof6+9seir5y6bJomzP/Fq39o0E5QgghhBBCCCGEtId3nvG3aL8LH43m//HhEW9A0OWt70NCQ5Y0ER1PbqylkTWeqcCSBrA6myz87Q87xobs45e/2fxek9Shfu2yR2jCEkIIIYQQQgghU8b/O++x6La/PDTkEQBdxv0uNDRkSRPR8eTGWhpZ45kKLGkAq7Px5v6l0YoLnhEbsuChv9xol+thdajIitXLCSGEEEIIIYQQMj18fPaxIe8A6O/d70JDQ5Y0ER1PbqylkTWeqcCSBrA6G18euflHfTMWPHrDQWY5we1QL77loaHM2I3m3h/tNe+66PDTLou+P38hIYQQQgghhBBCWsQ3Tr8k2u/Uq6PNf3LXkEcw99rh6Qv0d3p5EdCQJU1Ex5Mba2lkjWcqsKQBrM7Gl+VXbTdkyD5xyfpmOcHtUDFnjHx+49x7zc6aEEIIIYQQQggh7UObstufPZwlK8uBXl4ENGRJE9Hx5MZaGlnjmQosaQCrs/Hi/qVRdP5qQ4Ys+OvSy+zyHdwO9W2nLe9//sy8a80OmhBCCAnNez/2qWiNtdfJxQf3+Ky5zbbw+SOOjV6/2VZD57znl44wy7aF7512frTTJ/eNjvrxWeb3RXLMqQuil75647ie13zRy6ODv/UDs5xGr5PGK1+3SbTF9h+JvnLsT83tfPEbc+JyvvslhBBCQoOnY8UTWOfHy1P9gyKhITs535h/6ci1iMUWO+1hrk+yo+PJjbU0ssYzFVjSAFZn48OyJUePmLHgsev3N8sDt0PV0xV8+4yLzQ6aEEIICQ0NWRsx6DRtN+v2O+w70dov2yB63jqvrMSQ/cR/HDJU3z7x5WvIaqzt0pAlhBBSB1yfIMk/KBIaspNDQ7Z8dDy5sZZG1nimAksawOpsfFj+u81MQ/aJC9cyywO3Q9WfrY6ZEEIIKZNpN6jEqIY5OS3nL4ZoFYYsMnM33ep98f633PHfvI9DG7JpBu4RPzi9v30rpmnIEkIIqQPaF0jzD4qEhuzkiCF74PFnmN+T8Oh4cmMtjazxTAWWNIDV2Yzjob/caE5XIDx8x7nmem6Hqj9bHTMhhBBSJjRku4bsW7fewfy+jVRpyH7txFPj7FzE2xe+/v2+yTpuighfQxbosm670pAlhBBSB7QvkOYfFAkN2cmhIVs+Op7cWEsjazxTgSUNYHU241j2pyNNI1b42zW7mOu5Har+bHXMhBBCSJlMs0GlszVpyJaD7PvVb3p79J15v/Y2xLMYsiDpHGnIEkIIqQPaF0jzD4qEhuzkZDVkz1iyPNp8x93iKQz2/87J8bprrfuq6JhfLzKXH3v+DfF6J112e7TjPl+KXvDK18bfgW13+2z/+7Rt6zJtQMeTG2tpZI1nKrCkAazOZhyPX/5m04gVVixcw1zP7VD1Z6tjJoQQQsrE16CSzEYYXF//0RnR+3fdq39BuP4b3ja07jd+ND/abb8vR//81nf1y8g+kl64JNtHOWRL4tHzN73zX4fWT3tZEzj0+yePrIOXPH343z8fm39SThuxFm62Jl765W5347dvFe3zlaOGygk+daUNRjnfbXf+RL8c6koft/X9uz+wy9B5jUPa2sLKUM163uOwTFXf+MtqyCZtl4YsIYSQOqB9gTT/oEhoyE5OXkN2g7ds0TdXX/eObaJTrnvIXH7qjY9EJ1xy85ARq4Hh+pOr/pK6bWzDPY4mo+PJjbU0ssYzFVjSAFZnk8Zf77naNGFdHrn1lJF13Q5Vf7Y6ZkIIIaRM8hiy79juw0MXgzoLEdsTYzUN1wDUhizmFk3aRtJxSkZkEvoYfQ1ZlNNmqoVlivrUlTYYd/rkvonni8xRXTcukmmq95+EtLWFbo+85z0OK9Z8jVYasoQQQtqE9gXS/IMioSE7OT4v9Vrzxa+Ivnn2lXF5MU2xfNeDj+pvJ2k5+PDnute42+2xf99cRfldDvhavFxeGJa2jTah48mNtTSyxjMVWNIAVmeTxqM3HGQasC5/+8OOI+u6Har+bHXMhBBCSJn4GlSuKfj+3faODTmYd/t/7btxGW2awSjU2awoJ2/3x/faILW2j0zS/zrmx/11d/nswf3v3Mfb9bquUYgsT/nOXQ/bTZuyQB6nd7frGpZpxwPG1RXA+Up96eNK+l4fm5Xdmsa4KQvynvc4ZLuuiZy0XJPVkOWUBYQQQuqM9gXS/IMioSE7OXkNWZ3Zmrb85396NHr5RpuYma7uOknbaBs6ntxYSyNrPFOBJQ1gdTZpPHHJ+qYBO8L5q0UP3r90aF23Q9WfrY6ZEEIIKZM8hmyScTbO6NNl3P3p7Y8zCt3vZZtZj0sbn2mmapIB6HMuScekDUbrfPU2rLbJalBq0tppkvNOI+14JQZBkrmc5Xx1WbddacgS0nx0n5GG9aNRlqlY0vZjTYdTNKGnkckCpiKyltcFGc/H9e1pbYp1ramRZEzJ+iPkOLQvkOYfFAkN2cnJO2WBa7AmLZfpCpIyXjFXrBi+SdtoGzqe3FhLI2s8U4ElDWB1Nkn8delltvmawCN//v7Q+m6Hqj9bHTMhhBBSJr4GlY9R50PS/ny2L+smGbKWwZhGmiHrs80kk9DnXNJMQ5/v0459HGnnNsl5p5HUdmDcubpl0vYJw+L1m20Vl7Ni2jfeCSH1Rf6Ox+H2Jz5TsejyPvvJ2v/mJeuxh+STX/xqtM6rN8o0vpaN7zWKT5u644OMP6HbWvsCaf5BkdCQnRwasuWj48mNtTSyxjMVWNIAVmeTxGPX728ar0ks//2WQ+u7Har+bHXMhBBCSJn4GlT6ZifLI/IwDvGyrc8c8q3oXTt8LPGGx2f7Sceqb7Akawnb0+taJJmaWcxO63F7n3MZZzCO+74IQ3bS807CZ7vjjGBdHz4gRqy69413Qkh9kb/jLGOR9Mv423czSr9y7E/6P+TobabtBy9axDpl9CV5jj0k6O/TfqSrA3KMmLc97VjT2hRjlRjfeqyiIUtDNo2iDdk8UxbQkLXJGs9UYEkDWJ1NEk9cuJZpvCZy/mrRQ/fd0l/f7VD1Z6tjJoQQQsrE16DyMRkF67FKF3d/PttPO1YxCDUoh8cPZS5alySjUC8flwEqRuIkhqxVpmpDNs95J+FTH7rMOIM6jX9+67tSDXnfeCeE1Jc0Uy0J6bPG9UG6Px23H/l+XH85KXmOPSR1N2S1YYq56n3aLOl7GQf12EZDloZsGkUbsiDrS71oyNpkjWcqg1bMzmyxYsHMbBqXHv/sCDx++Zv9uPSfbdN1DJhzVrax8OxN+rif7zj31d5ccPZ/mB05IYQQMgm+BpWPqQaSjNG3v/dDcWaP3Cy5+/PZ/rhjxbY3fPPb+/vVYB08dqnLJ5ma48xQjWVu+pyL3odVZtwxFGHITnreSUhZXyyTN8uxpeEb74SQ+jLOVLMoYp0828xD1v1IebevlH5UxgyMI8gIlfEKYE7atBdM6vEGWcLb7vyJ/nfoV615dXFdgH792z/7Vb88yn7001+Iv8d+9Hbcl3OOQ9ePnGPSj4U+deka0G69hSLJeE1aXgQ0ZCfH56VeYFwWa5qZKtMWWNu1XhhGQ9YmazxTGbVidmbjFQtmFlkmaVN5ZPbZ0dlnHW524oQQQsikyM3JOIPKx2TUxltSZmrS/kIYsgJu7j7x+a+YWbp620mmpl7ua0zqm7+mGrKTnreF3qYvVvuOqw9ffGOIEFJffEw1F90XYXzCD4TjTL+0/ciUBT4/Sk1K1mNPMhDd87F+QAXSP1r9t2xTj3Mu7n7FkN1qp11HyuKHUmuM8O3n5Rh1O2B/SX38uNiR7emxjYYsDdk0yjBkwUmX3R7tuM+X+tuDEYuM2RMvvaVfhoZsOlnjmcqhaHZmtRULZg6xzM2mccOv3hWd9IuzzQ6cEEIICYGvQTXOZNQ3bmk3LWLkufsLaci6IHNWtq1vspKO2fdcgNzQts2QzXPeFj51Ieiy7v5pyBJCBPk7TsP6G0cfpzMxBWSFunOzgnH7wT7G9WuhyHrs6KPdPl4vkz7V7cPlKRbdzyZtC+Xev9veQ2OqzMGq60WPF5J9i6mN9Lgsy2X/48YWQcYNfbyyzBrHpE2tdvvGj+b361hvj4YsDVlSL3Q8ubGWRtZ4piZQGdmyx31uJlp9tZlo6an293lhViwhhJCy8DWoxhlrPoaZNvzc/fkYd9ax+pqIlgmZtm6SaalJOmefc9Hr5qlP3/O2SDu3Sc7bQm7E07Yn6HNyy2fZZxq+8U4IqS/jjFKQ9jeOvuYLX/9+9N5dPjU0zY1rAvrsJ+vj9ZOS9dhlfJE+VMYL+Yx6Qtbtvl89Oh67ZH2Na8imGZ7Sj+vvsL7bHlLO7etlua8hm2XbwKdNk8afrGPtOJKM16TlRUBDljQRHU9urKWRNZ6pCVVktuxZh82gIYMbssyKJYQQUia+BtU4k1FugPB90k2LvhFy95fXkAU+JqLO0JGbvLRj1seTZADKfvOcizYY62TITnLeLvocfI9Rtg10vYyrD198450QUl/k7zipf80K+tNdPntwvE3dV6XtR6+T1CfpfmscaeNXGknHLvuWZda56P5WQN/ozgObZMi662r0WOuuD2QMc43XpOUWPvXrto3UgwXO3TLY3boMRZLxmrS8CGjIkiai48mNtTSyxjMVSCGzZZefOxMdtWfXjAWhDNnHZv+eL+4ihBBSOr4GlY/JKKYnSHqMUaO347P9pGPVN2Xrv+FtQ3PXuvvW25YbPyy3brT0+eibNHeb7rp1N2THtXne83bRN75J9eCiz1vfkI+rD198450QUl/k7zhrv5Jm8kmfqo3DcfuRdZK2q/utcSQZsnmPHcBwlWWWKQoO/f7J5lQIen/uuj6GrC5v7Tup7sbVqUaPMUm428kaO0DagIbseEl51wjTBpplsBGSBR1PbqylkTWeqYBCtuxxX36xaYb6snjuTLTpBl0jdr0Xdv8fwpC99dyNo7m/OM3sqAkhhJAi8TWospqMFjBL//3gw/vb0cbaJIasfDfuBhHmol5HbvzwnXWjhe8tI1ljZdPU3ZC1bqb1PvKet4sYu5YJkIasp9t5XH344hvvhJD6ksdUQ7+S9ncvfarur8btx1qnCPIcO5C+fo8DDvUyFDGHKuZ2xcvK9P5cQ1W269sXu+sDOea8hqxP3ctYotsvT+zQkKUhS+qFjic31tLIGs9UYKHyd9rpTdETv13HNEbHsff2M9Gqq8xEh+46Ez0wfyba6g2TGbLMiiWEEFI1vgaVj8kIcJMEM08bfq983Sb9RyDlJgrL9c2Nz/bHHSveeo1MH71vlMX8eDprVkg6FhfcoL7pnf/a3ybAi1SsbQKfc6nSkAX6RWdJ+8h63hp9/FmPT9oZyHHRkCWECHlMNf237z6Sj7HD6k/T9oM+2JoqoAjyHDuQcQJjMPp7fR4yTmEd/F+Wy/Z0H+kawrJdLPvop78wdDwytuhjKcKQ1cdvfQ+sMnlih4YsDVlSL3Q8ubGWRtZ4pgJLGuCh+26J/vaHHU2TNI0bfzgTPXxW9/+YumASQ/bXZ20efe20c83OmRBCCCGEEELIKGKqjcM1Aa05UzV4ikOX99mPNiqLJOuxu+tZmaSSQWqhzUe9b1muf3h0ceukCENWjinNWNXGsRxPXQzZ755xUd90XftHNGQJyYKOJzfW0sgaz1RgSQNIB/PIradEKxauYRqm48hryD684JnRXqccF3ew7z35NrODJoQQQgghhBAySl5DFmDOVGT+azNRP8Why6btByYfnr74yrE/HVqnSLIcu5CWSQrDcrf9vjyyvU9+8atD5WBIYhoDfK+NUnkqRdYFVp2ENmTFILXa10WMW3myoi6G7F7zruubrm87bfmQCSrLgV5eBDRkSRPR8eTGWhpZ45kKLGkA3cnkzZbNY8gu/91m0byrFw91su//2S3xL2RWR00IIYQQQgghhOQhjwFJiuUz866NXnDSo30/4MCLHx3yJ7RXoJcXQdsN2W/Mv7T/Y4HFBm/ZIvrkIcdEp974iLl+3TljyfJo8x13i173jm2GzmHu7+8aKtc2dDy5sZZG1nimAksawOpssmbLZjFkH/h1NytW9rX92Y8NdbSEEEIIIYQQQkgonvM/t0TP2XzXaI3Xvyd6zvcfMsuQ8njeSX8bWfba/10e3X3fsC+hv9fLi2DaDVlhi532MNevO5Yhe8Cx86KXve4t0U+u+stI+bag48mNtTSyxjMVWNIAVmcDHr3hINNQtchiyJ76i/cPdah/WvpQ9M4zRjtkQgghhBBCCCEkL8+Z83C0xqs2GRhOH/2GWY5Uy/onL48uvuWhIT8C6DLud6GZFkP2wOPPML8//NQLoxe88rXRmi9+RfTNs680yzSND3/ukGitdV9FQ9YgazxTgSUNYHU24IlL1jcNVYsshuyjs6tFa5/015H9fe2yR2jMEkIIIYQQQggJw/GPdjNj114nes6/7meXIZXxxlOXR3v/5rHotr+MmrFAl7W+D8m0G7LAp0yToCGbTNZ4pgJLGsDqbP669DLTTE0i6xyyu//vD839EkIIIYQQQgghhMCIfcEXz4le9oH9o498at9Ceeu2H6Ihm1DmpMtuj3bc50vxdwBZtNZ8s2KA/uiKO6NdDvhav/xbttkxOvb8G4bKAtkuMnOl7La7fXakLKYjwPZ0OXebesqCU657KP6/lAV6Kgaf/cr2sN7+3zk5LoNz++z//Cj+/64HH9UvC37+p0ejl2+0SelTPuh4cmMtjazxTAWWNIDV2Tx2/f6mkZpEVkP212dtbu6XEEIIIYQQQgghBIbsPx19e/T8r/4+Om/hbwtnyU03m8cBshpYUt41wrSBZhlsRZF3yoITLrl5yLjUuOajGLLv+fjeI2WzbNfNasV2rXJ6m76GrO9+ZXt42ZmUx7Z/evW9pvFaVXaxjic31tLIGs9UYEkDWJ3NExeuZRqpSWQ1ZDFtwUN/udHcNyGEEEIIIYQQQqabMqcsGEdWA0vKu0aYNtAsg60oxDAcx3Z77D+0npihu3zhiH5GrGSsYrk2IKUsjNL/+tE5I2W1iSllsT9ru1JWMk/1y7rAV392flxOMlW1ISvlxCC2zN1x+5Xt6X3obVjbdZeVgY4nN9bSyBrPVGBJA7gdzcN3nGuaqGlkNWTBsj8dObJvQgghhBBCCCGEEBqy4RhnyCIT9IBj5w2tI9mkbjYoEMPSNVndTFhdVgzLJJM1rSy2i2kF/vvkBdGJl94ytI5eL82QzbJf97Mu62bDVjVdAdDx5MZaGlnjmQosaQC3o/nbNbuYBmpoHr/8zSP7JoQQQgghhBBCCKEhGw7rkXrMpQrTEWbnnocdN1QepD3eL4zLSBUwD6uYtbJdN/PUKiuf3f3iez2PrY8hm2W/1vYE14CtaroCoOPJjbU0ssYzFVjSAG5Hs2LhGqaBmsj5q8Um7ooLnmF/n8Jf77l6ZP+EEEIIIYQQQgiZbmjIhiPJNBTjEd+5RqWPIasNz6IMWXDcb/449GIxQQzTMg1ZKSvbTjvvotHx5MZaGlnjmQosaQDdyTxy6ymmcZrE45f+c/TXpZfF62JO2OW/28wsl8SjNxw0tH9CCCGEEEIIIYSQNhqy6213Yd9A+96FfzVNtiJIy+LU0wJoE3ScgekCY9LdBhBzU0zLLFMH6O+Eub+/K34J2Sbb7JRqoLpGaZ4pC5IMWamb/Y/5WWXTFZy2+Akask2VNIDuZP72hx1N43SE81dLNFOXLTnaO1v2iUvWN7dBCCGEEEIIIYSQ6aWNhuw2e1/VN9D2PeFW02grgnGP1cv32oAUUxKmJ6Y00MYkXqoFQ9KdQxbb2PBtW0bHnn9DfxuTvNRLjE981nPH6ukW0gxZ1yD23a+1PY18j7l3cXxVTFdw1Ln392PpDTtfOhJraWSNZyqwpAH6ncz9S72MVJ0Vm0SWbNlx2yKEEEIIIYQQQsh00UZDdp8j/tg30V72rwtLy5L1medUzEqdESuGKJa7WGYnlm30jm1HyroZr1m3a5UDaQYqphVwy/nud5whC2T7adm8RXHKDcujjXa+tB9LH9j/mpFYSyNrPFOBJQ0gHcwjf/6+aZj2ScmKTcInW/ax6/c31yWEEEIIIYQQQsh00kZD9uRz74uzGcVIW2/7i6LDz77XNN1C4mPIJk1dgGxUd/7WbXf7bD8LVoBxCnPyR1fcOVQeZS1T090u9ovMVZ0JC2COfvZ/fjRkpCIz9YBj5w2VcQ1UnA+mNUB5vdxnvz6GrM7etb4viuMvfXjIjN1wh99GJ/7inpFYSyNrPFOBJQ0gHczyq7YzDVPgkxWbxLhs2ScuXMtcjxBCCCGEEEIIIdNJGw1Z8I0f3xG9bNuFfUMNfPzIxXHWo2XANQUxZMvOFq0KH5M7JJgzdu/v3RxnVuvY+XJnmRVnaWSNZyqwpAHQuTx0X6d1z19t1DDNkRWbBLJlH/j1M0f30eHhO8411yGEkNAsXXp3dObZs9FR3/p+9IWDvxbtufeB0du2+GDMU56xTm15w1vfGx/jzh/fJz7uw448Jj6PP/5xiXmehBBC6g3HI0IISaethiz49sl3xZmN2ljbcMeLY8OtqcbsNBmyModtWgZtKGDEHnTynUNZsQCm/qEn3GrG1ziyxjMVWNIA6Fxglrom6SRZsUm86ke3Rr8+a/ORfT127R5m+Saw8KJLo1NPOzu+IAXvfM/O8UXqi1+xiXkRWzbPe8nr+xf3cozH/+DkaHbBQvN82gjbiOAmETe8226/q9kGTQc3x7ghvuba683zJ6RK6t4Hk8nhOOYPxyNCCPGnzYYsmHP63dHme/xuyGSLjbZ/XRh95LA/xo+mWwZdXZkGQ1amdZDpDvR8u6H5yTWPRZ/6zk2xUe/GCKa9gKlvxZUPWeOZCixpAHQuQ1MKBMyKdZHOdK9TjhuaW3bFwjXM8nXlxyefFu32yc83/mby/z7vNdEHPvyp+KbplltvM8+1qbCNCPjucT+Mbw6tum0rr3zNO6L/POQoxguplLb0wWRyOI51qXI8+uoRx0TnXXBx9Oebbo2g3191bbzsGWusZ5YPxbSNR8x4JiQ8bTdkhQNhujnZssJme/4++o8f3t6IrNlpMGRlblmYsZh31iozKV+etzT61wOuNeNhve0ujPb86o1mHGUhazxTgSUNgDlexRgtIitWoztUd27Zh2+bb65TF5DlgRuKoi9eqwQXY7hhss6/CbCNiAAzKM0IWvXvnx89ebV/6PDs6ElPeVa08pOfGjOz0soYlLzZfffdo9nZ2eiKK66Ib3KXLFkSzZ07N9pggw3M8vlZqX+MT1r1GfFxP3m1/xOtsvrzzPMDyFjDTRVuEK06qiNNy6RkVuAw09AHk8mZtnGsrPEoib322isenyxhDLPWSWc6xiNfmPFMSLFo/8D6vkyyGlhS3jLDLPCyr32/sTh6nZENKWy979XRvifc2rjMWZIOMmFhusOEdeeHFWDY73HIDZlf3pVE1nimAksaYNmfjiw0K1ZjdaiYLgHZsn/7w45DZesCLkDSLrJWffoLo1WeumbvgvTZ0cqr/H18kbrSk56iLl6rY6WVV+1dOK/eP8ZVnvrcaNWnrW2eD8DFV5MMBbYREZDR8do3bGXW2Sqr/2N887jSSk822yErMF2TdNFFF5nrFELnpv1Jqz49jpmnPOMlI+cNIwCZWVZ91YG2ZlJOU1Zg0/vgUJT3A0394Dg2SpnjURpnnnlmHI/77bdftPbaa8fL5syZEy876KCDhso+85nP7JfJRcPHoyzwCRy7XggJjeUfVEVWA0vKW2bYOPCSpm32vso05gTMJ4ppDZBNCUPPMvpIPUG283+fcU/0iW/+OdrEmLJCgyktDvjWEjNOJiFrPFOBJQ2A+VuLzIrVJHWocbbsVdtFD96/dGh5leBiA48aWRckuMFANsPKT1pt+EK0YeAGCtkYq/z9WuZ54ga7zr+Is43q30ZlgawbPGo3WkcviY2BUJlGGtzIQtpw2XTTTeNlMGLc8iiz2mpFx+NKcbzAAHPrAjeOdbmJmsZMyjZmBU5DH+xLbX6gqSHTNo5VMR5ZYLz5yEc+Eo9HEMYn+Q7mLITY3GGHHeJlKLts2bJ4+dFHH90vm59mjEdZqTrjOTzMeCb1Jsk/qIKsBpaUt8wwX5ANiazZt+wy/DInizf+2+WxQYuXPx19/oOmEUiqAe2BDFi0D9rJaj8N5ofFtASYY9iKixBkjWcqsKQBrM6mKOrUoaaBiy1kN7kXIPjFHzcWneorlTKybpClgYswN6MBhgkuuqx6qpI6tVFZWVFNa6OywOOCVpYKboiKyj7CDSxuZCHc2Mry5zznOfEy3NRKNhJuiufNm9dfjsdH9baKYaVurDz9xUN1gptITAtg1WMZVJlJWcTfKfqa7o3s9GUF1m2crJp6/kBTP9o+jpU9HiGjVfo2jDMwVcWIveOOO+L4gxCDOt4wVmGZSP9fTFlk1oaJ0XqOR1mpS8ZzqUxRxjOpL3XyD7IaWFLeMsPyIOYsMmfxdn3LyHPB/LM7/dcN0d7fuzk66tz7mUlbMMh8RT1jWgmYr6h/q10s/mXXy6N9jvhj9N15+V/UlYWs8UwFljSA1dkURZ061CQwB6B7wYFfiat6tBI3bUkqIusmvln6uzVG6gDZbHX5JbxObVR2+4AmtFFZ4GbOzVSBobfSyquYdZcF60b3fe9739CN63333Retu+66Q+vBkNFatGhR/C/KitzHRAujczMFI0DXD0w0mGlWfRZF1ZmUlfydtjgrsG7jZNGgL8APLOgLAPoFbVTV/wea+tHGcazI8cgC8aTHFRHGqIULF8b/l9hDDLvrIz4RfzKmoSzGOfSXsl2Ysu56uanJeJSVumQ8V087M55J/amTf5DVwJLylhk2KZhv9tATbo12/fL1sZFnGXxJYI7Sd+5zVWwY4g3+mPIAJmITXhpWF1Bfh599b1x/Hz9ycVyf621/kVnfSaDdPnrQdfH0FKHmhc1C1nimAksawOpsiqJOHaoLLiTczK1Vn/aCOEOrU12VUVXWDW6s3ceVkBlQpYFQxzaqMiuqjm1UJriJcx95f9JT/j+zrrKSdKP7yCOP9P7XNVWT5tqDQYNHPiXTCKYsymK5LDvyyCPNdYtg5VWe1qmf4ewWzANn1Wto6pBJWXX2Ymw+tSArsK7jZJHAtNKZhiJkWsO8EjMLqv0PNDWkLeNYkeNREhJb+DEAYwuMV4nHBx54ILr99tvj/+P7LbbYIo4zGKz4QQD/xzLEN7aF/lD+D9AHSoyinCwPQZXjUVaqeAInDflhqNp5qtuR8UyaQ538g6wGlpS3zLDQiEGLlz4hgxaPvFsmoA/I6oTBCKMRhiMetYcBOS3TIHzvwr/G5wujGuePeV5RHyDphVvjQHu873N/iKchOPyk2802LJus8UwFljSA1dkURZ06VA0u/DFRvb6wQFZTFRdbmuqzbjoXXU4GC4wVPLZl1WOR1LGN6pEVVZ82KhNc9A/f/L4kqCmUdqP7xBNPxP/ihgg3qvgOL0jBTdIhhxzSzzDCdhALuNHV28Y6YsrqG+CigfHhZrYUnZlUViZlWgZjPf5OuzQ5K7Cu42TRyMuP5O99m2226fcFTf2Bpn40exwrejxKQsx9/SMA+kLpwx599NHo1ltvjf+fJOn/9HaBHqfcMSwEVYxHWSk743kcaJMkYYyz1imUhmY8k+ZRJ/8gq4El5S0zrAxg0sL8w2PwyMTEy6Hwpn7LMMwD5kIVo3Lrfa+OzUtBsm5dYHZaJmgofnjlMnO/ks0qvP/g6/rHnmVagXFgKgnU84e+cG3ffEU7WO1TNVnjmQosaQCrsymKOnWoAjJ+3Asu3BjgBqFTTYWz8cYb980cXBTDJNA3fFDVWTeYF0vXDy64Lv/dVWZ9FkGVbdSUx9arbqMyQcaKjgdk6IU2+Mbd6IopmybEjBsXAO0O4WbXeoy0SGCe4YUjUncwEYrIaCkzkxJ9ppXBuHjx4ujmm2/ufarH36nQtKzAqsfJKrH6AsScmPzLly+P/23aDzR1pInjWBnjURISg7hGcb+THxKg3/3ud3E8oi/D9SViDv9HtqwI25IfFDAulfFDQVnjUR6qyHgeh1w76IzYtCc98J11DRKaJmU8k2ZSJ/8gq4El5S0zrErEqMWb+5FRi8xNmIjrbXehaTKSYcR0RSYy6g+GN+qzimkHJiFrPFOBJQ1gdTZFUacOVXjne3ZWFxEviW8IOtVTCrjQdYWL4Kuuuqr3qT5ZN3hxjX48CZlSuEm36jQ0VbUR6lIbM6K6ZkVV2UZlgSzC4ccHX1LIza/vje6NN97YN11w8wMzBm0uBiHaWWcf4eZIlmMdvd3SWGnl2DSQOoSZEDJOys6kTMtgFNXp73RAc7ICqxwnq0b6AsSVXo5sajG0Hn/88fjfNNXxB5o60qRxrKzxKAmMISJrrMLYJEIf534P0GfKeIVYR1yj/4MQk4X/SFDweJSHqjKerQQNLMe/eq5ffU0h5jlAG6M9sUymNIAQB1K+KBD3dc94Js2lTv5BVgNLyltmWJ35xo/vGDJsMU8tDEjwuh0vNk3KtgBTWs4VWa44f7xIDfUBrPpqKlnjmQosaQCrsymKOnWo4HOf/8rQxQPeJNqpmlLQxgwulnARpbO17r333vjfOmXd4KU7uDCV+kIGnFWvIamyjaQ9cJMCcwZtIBfEdX1svYo2KhM82q3joaibpElvdHFDhOUiMV8lmwVx465TJpi7VZseb9vig0EemceNdNmZlEkZjMgKE1133XW1+jvV1D0rsMo+uA4gZiD8OCexopEfBGDKXnnllf24aswPNDWkKeNYWeNRGnossn44QlxJH4YfEGQqFw36NolR/ECAZfI0iHwukqLGozxUlfGclKBx8skn9z51hWtQdyzS1xpa+odJtKfV9iGpc8YzaTZ18g+yGlhS3jLD2oIYldrAFcTY1Ewyt60PmJLB2i+mbJDjkoxWYe4595rn1nayxjMVWNIAVmdTFHXqUPHLrVw0AMyD1KmW0oDBB8H008tx8Sy68847e/9LVtlZN91Hkwb1hjkirfoNQdVtZBk9qMu6P7ZeZhuViRsPRT8+GOJGF1l1EMohDlBGbnzdjLuyWfnJqw/VZ4iXS1WRSZmWwfirX/0q/m6cqvg71dQ1K7DqPrgOII7kxzmYsjDp3TJipiBOMLa739f9B5o6UvdxrMjxCH0RYgT9jw9yrQIhVt2xCJmX8rQPYs36cUnGKgjfI84hrIf+Edc91g8SoShiPMpKVRnPaG8I/QeuO1D3OkFDhO+SxiG0DX7sERMWbYayaHu55sB1irVuUGqY8UyaT538g6wGlpS3zDBCqiZrPFOBJQ1gdTZFUZcOFb+A68eRMJdf2XPhycUuLqTdi2dcGIvRg8yu8847r1ZZN+4k/rMLFpr1PAl1aKMmP7ZeRhuVDebY7MfDU59rnvc4qrjRFbMG8YTPiAUIN05l3OimARNB6vR5L3n9RFlJVWVSSn0mZTCeeOKJ8ff4AeUnP/lJrf5ONXXLCqxDH1wGiAUf8Pct8WD9mIL+QpQUL2J6YRuIL/QndfmBpo7UeRwLMR5ZJGU7ZhHi1d0upiGQ8QxjD+LPLSNTcEgs6uscCLHqrhOSkONRHqrKePZJ0IDQb+BaE+0kxiuuK9BOmNLAuv4AaGusCyVN3ROSOmU8k3ZQF/8AZDWwpLxlhhFSNVnjmQosaQCrsymKunSoe+59YP9CIX4cqYK3RONGTC6O5Zds/b02epKy76rMulll9X/s1yFuTKx6noQ6tJG+GG7iY+tFt1GZDGcjvSRXPFR1o4u/XdwMAfwfcSHmjgjr6XXKY6Whed/wd2fV/ziqzKREnU6SwVj136mmTlmBdeiDiwLjq/zglleWoaXHDBi07vegzj/Q1JE6jmMhxiMLiQX0U+iT9I+DvlgZ2gL6Ool76wcsrA/pJ0JQBn2hGHq6fHjCjEd5KDLjeRy+CRrjhDaFMavXB2K0w1C37iWKoA4Zz6Q91MU/AFkNLClvmWGEVE3WeKYCSxrA6myKog4dKuYz0hcJVcz5JeCGTowc3PS7v1zje/0rOC6m9fdCFVk3uAHR2Vy4mLXqOw91aiNtuuqbFAE34HKxnGScV9E+oMg2KhNkViBbRs4jj9lX9Y2uGLDa0IUpJKYfpMuXCTJZpW6REYnMSKsdkig6kxJ15IPUMdrY+rtCG4rEdNVU9XfqUoeswDr1waHB35302RD+bmGEZgGmaVI2GvoJ2b41ZiCu8D3A/+v1A039qNs4FmI8SkLiIG2smRTEnEy7JD8KCGIM4lpGLwcid3loJh2P8lJUxrMPaBPfBA08kbX11lv37xfwHeJFTFcI7YptyvcQ+pSyf+ipOuOZtIc6+AdCVgNLyltmGCFVkzWeqcCSBrA6m6KoQ4eKx0AHF11rDl08hAIXPcio1GZOEpItA1kXTDr7DhfrSTeBVWTdaOMA80SFutgquo1gtsCQsdrDQuofatpj60W1UZkgs0LOIW82UtU3upKBaRmBInd5megXcWTNSioikxJ/U6jDSYS/c3e74zIYq/o7dak6K7CMcbIq5G8Uj/m6fXkoYGyJKYu/ffd76Y/wQ4IsQ8zjs0iXn3bqNI6FGI+SkLiwsvxDgZiXqQhwbaO/Q3YlhO/1ciDx7C4vgknGozwUlfGcBYxXkyZoIG6kjEx/gPEKQvsl3T8UR3UZz6Rd1ME/ELIaWFLeMsMIqZqs8UwFljSA1dkURdUd6plnz6qLrnUKmazfnXMrq6wLYZ1Bg4st90IN4CK77KwbN3MlxCNJRbeRfjQ5r/RNtKCNc9SzawZV0T6giDYqG525kvcxwqpvdCV7xcq0RExA7vIyQQak1DGyknwNjyIyKWFMSZ1AuPmEGZoFmG55Mhir+jt1cf9uy8wKLGOcrBK0H1S0sS4Z11a81P0HmrpRp3EsxHiUBH4kgvADL57OweesWDEloD9D/wihj3PHQxm/ZIomfI+nBKS/xL+6fFHkHY/ygG0XlfEM0M+UmaCBMpIgIO0oP0IhpnD9WqYxW1XGM2kXVfsHmqwGlpQnpM70wpUqW9IAVmdTFFV3qPoN4E/+uzWGLhpCINkFuGjFhZV1wZUGsrFwwWxtG+aAmDrWI9FAjIMys26e9JRn9esUF7VWvWehyDaa1sfWQ7dRmVxz7fX9Y8cNed5H4dF2UFU3unKDJDdC2B6WyY0u/q/LV8GqT1u7X9e+BmARmZRVZzBW9XfqUlVWYNHjZNVoc8L6PgTo++Vv3n1RD6j7DzR1pA7jWKjxKA2Jz0mE/srdrjbzEJtuGYxNErOIX5SXWBRZ85MWRZ7xKA9FZjxXlaCB8U2+x2f5cUgL1yDuekVRdsYzaR9V+wearAaWlCekzvTClSpb0gBWZ1MUVXaouJnV8xyutPIqQxcMIZCLJNeMCQXMCXl5jTxSq6km62b4kaRJ5jssuo2kfabvsfVwbVQ2+mZpUsOvqhtdxBuUdnNU5o1uEk9e7dn9ut754/uY7aEpKpMS9QRZPzqFJCmDsS7Zi1VkBZYxTlaNmBUQ/m51ZrUvMFSTfjyFca/NWOtHBfm+zj/Q1I/qx7GQ41EaiFHEhC+ISRGuO9yYQ18q82EnmXiyDblukWxN6weFMsg6HuWlqIznqhM0pI+RtsbxSP8F4bjcdYqizIxn0k6q9A9caGBRFBVM02bIHv+Dk/sXBKv8/VojFwwhEMPPynoJhVwku49Eg6qybp78d8/p1+0kbwUvuo2KNswBLpTr+Nh6qDYqm7dt8cH+cePRN+vcslD2jS4+y42RGHxiDOOGS5etGhiqUtf/93mvMdtDU1QmZdUZjHXKXiw7K7CMcbIOoG3l7zavLBME/YvEiJXdBpryA00dqXocCz0ehQCPpYvQd7pjFOJLYhJjmGvy4bP80I8+EWMWlsk6RV4vpZF1PMpDkRnPVSdoyDhqjWMid3mRlJXxTNpJlf6BCw1ZiqKCadoMWfzCLhcD+OW9UwXBgYEA4UbPNXZ8gEGTNLeTNvpwoWxd5InBUHbWjf71e5IX0BTdRqgPqYdpe2w9VBuVyS233tY/ZjCz0srmuRXFpDe6yJSVzFkx/TC3MIS2TvpbrxK8lEvqGxmwVruAIjMp8XcjqiKDscq/01HKzQosY5ysEzCfEA8+iFEPWeMAlokQM+73oEk/0NSRKsexqscjC23m48d693s9hi1cuDB61ate1f8OsYgfB+SHCfRv8vQQvhNZPzyUhe94lJciM56rTtCQ+wWrrxK5y4ukrIxn0k6q9A9caMhSFBVM02bI4hd2uRgo6iUluLGHMTOJ3PkMAYwFuRnEzZx1gVxt1s1KnXodPFqLrAOrDcZRRhvJze8kauZj62HaqEyGsvVWf55xTsWR5Ub3rLPO6pt6+BfmjTz2DuHGTMxBfAchVhAzept14Mmr/Z9+nadloBWdSYn6ryKDsY7Zi2VmBZbRBzcR/WMoYsL9HjEhSoqPJv5AUz+qG8eqHI+SwI9PkPUDgJh1rhDD0geKcN3qvohUYr7K2PQdj/JSZMZz1Qka0tfIOIhtYZvYtrS/u06RlJHxTNpLlf6BCw1ZiqKCaZoMWT3XIX5x75x+oeCm3r24SgIXbXJxZJmtMHLkl3brkWiAZVgXqirrBtkFUsdHfev7ZjukUWYb4eLVbYc05KYHwo2Lm1GHNhPzyGqjOrQPmLSNykZnr+DGzDqnoshzo+saiPi7xvo6XvB/+XvGDZMbS1Wj34iclsVSViYl/nZ0lmIak2Yw1uXv1KWsrMCyx8mmgLaHEBuW8YFYEn3ve98bGsPx943YbOoPNHWkqnGsyvEoCVxvQNpMRczJo+wixC76MikP4f/oM+VN/C7YjoxpkjlbNr7jUR6KznhG/VWVoIG+RL7HZ5ixMraJcGzuekVTdMYzaS9V+QcWNGQpigqmaTJkv3vcD/sXAXV6azQuksT4wcWxe2GFiyq5gMZNnPVreV2ybp606jP6dbzbJz9vtkMadW2jNj22Pmkblc3nPv+V/vFiLk3rnIoi6Ub3pz/9abwc+tvf/hbHhBisEGIBf9Mwbd2MIwFtLjFTNxNm5Sc/tV/nyB6y2gXULZNy0gzGemcvlpMVWNc+uGrEVLHiSuJu+fLl8b9abfiBpo5UNY5VOR4lIcYrYhQ/IgGJp8cffzz+F4Lxb60P0LchLjFuYXsYkxCHYvohjqvq/3zHozyUlfFcdoIG2k76LBnL5EdktDH2gx+ZqmjTojOeSXupyj+woCFLUVQwTZMhi4FfLgLqMi+evmiyLqx01iVu1N785jcPrVu3rBudxbXt9rua7ZBGHdtIP67chsfWJ22jsvnAhz/VP96VV3maeU5FkXajK5IsyiSQTYftyE0QlqG9ZTv4112nalZaedV+nb/yNe8w26VumZRZMhi/+MUv9pfX9e/UooyswDr2wXUA7Q+5P86IGfvYY4/F/8JIadsPNHWkqnGsyvEoCcQL+j1XWHbyySf3PnVlZVtKDGvhelSuTS1TsEx8xqO81C3jGf0A+goIbZAnQUP3SyiLsUz3L1W2JSgy45m0m6r8AwsashRFBdM0GbL68dq6vBlXbvZhuooBoL+zLrKhumbdrPyk1fp1/Ia3vtdshzTq2EZycSxmmqaJj61P2kZlo+d3Q6aMdU5FkXSj++ijj/b+15WVNQ2j1loXZSU+tPFXK1ZauV/nSfO81S2TUsyDtAxGV3X+O7UoIyuwjn1wHcDfLWT9OCNmLNTGH2jqSFXjWJXjURqIIfwohbhCrCIOpa9CnyjXMZCe2959+sctayUKlI7HeJSXOmU8o718EzRQzrp2QPtJGYxn0tbod6CqxzBQZMYzaTdV+QcWNGQpigqmaTJk3/menfsXASs/efWRi4QqwEUzJI8UCbiokl+zIfwfF8ty0wZhGS6c65R1g7esSx0/7yWvN9shjTq2kWQjuJlRkj0JNemx9UnbqGxe/IpN+scb8i3+viTd6OIHE3yW9tOPwONGSZbjBgjGi/s3nXRDVRf04/GYZ89tl7plUqKeIffv9MQTT4yXQzDOmvJ3alFGVmAd++A6gNiwfmDB+HDSSSf1PnWFGHNND/Qbjf2BpoZUNY5VPR5NghitGLtkGcYmSH4cAIhdjGdYZmVgVsG48Sgvdcp49k3QkGko8BltimtRMXJF+KyNd7SjrI8+R2+7bIrMeCbtpir/wIKGLEVRwTRNhixehCIXAXV5czRu8iDc7GPeKFx06UdnRU3KupE6BlY7pFHHNhLjFRe4aAegDR2oSe0DJmmjssHNdj8mangDjPaEpF0B2haCWaPL4u8d5ZJeoFInnvL0F/fr/Y9/XDLSLnXLpMRNJtSmv1OXMrIC69gH1wXEQlIWYtt/oKkjEqfAiuUiqPt4lIZcW+ofBuT/evyqI+PGo7zUKeMZ/QmEMUgvd/sKSLehFsaopOsLXH/IdtCXWWVKocCMZ9JuqvIPLGjIUhQVTNNkyNb1Qjrpsffzzjuv97+ucLPXhKybVZ/+wk4dv7Rf13mpSxvhwtWq4yY/tt5to249F/VyoFDAeJJjhSFlnU+VyCOfup2lbV1DtjngBVKDv0WrXeqWSZmUwYhj1WrS36kL+kSp86KyAptsONUBGFuQNrja8ANNHaliHKv7eJQG4k36My0sw3fWOvVg/HiUlzplPKMNIJimaQka+A7lMR6hDNDZsOhvsB5+OMLLxLAMYx7GMwjt7Y6BZVNUxjNpN1X5BxY0ZCmKCqZpMmTxaMzgwmvVkQuEKsHFFOY5xAUULrbk1+smZt1IHYOlS+822yKJurYR2qNNj61P0kZlg0ez5VjxyLZ1PlWC9kM7WtLx0CS08YcbVqtd6phJ2ba/Uwupc2C1y6TUeZxsAu38gaae6L+Fssaxuo9HbcRnPMpL3X6ASkrQuPDCC3v/6/YtKOeui3FOpu7Rwr0FflCEsG7VL/UCRWU8k3ZTlX9gQUOWoqhgmiZDtq4vY/ABJgGEf2VZHbNuVlrpyf06zvMoUlPbqCntAyZto7LBy4vkePFSI+ucSFh8XrrRxEzKJv2dJlF0VmCTx8k60MYfaOpIVeMYx6Py8RmP8lLHjGcrQQM/LOIHRjFWIT024Xv54Qc/JmJ9lNc/LMKsrYMZW2TGM2k3VfkHFjRkKYoKpmkyZJv89uimZN0gU07qGBl0Vjuk0dQ2akr7gEnbqGz+85Cj+sdbh5dHTQN4uYnUOV56YrVLEzMpm/R3moTUOSgiK7DJ4ySZHqoaxzgelY/PeJSXJmY8w6SFrB8WMZ7psjBgUQ5PjtTlKY8iM55Ju6nKP7CgIUtRVDBNkyH7uc9/pX8R8KSn/H8jFwl1pilZN5hLUuoYc0xa7ZBGU9uoSVlRk7ZR2Xz3uB/2j3eVpz7XPCcSFvztSZ3vufeBZrs0MZOy6dmLZWQFNnmcJNNDVeMYx6Py8RmP8tLEjGeMVVBTf1gsMuOZtJuq/AMLGrIURQXTNBmyhx15TP8i4Mmr/cPIRQKZHGRUSR0j08pqhzTYRsUzaRuVzeW/u6p/vJh3DI+7WedFwrHK6s/r1/nxPzjZbBdmUpZPGVmB7INJE6hqHON4VD4+41Fempjx3PQfFovMeCbtpir/wIKGLEVRwTRNhuyPTz6tfxGAC7zO6ZPAPPnv1ujXMS50rXZIg21UPJO2URXox+Pr8Eb/NqOzMJ+xxnqJb0BmJmX5lJEVyD6YNIEqxzGOR+XhOx7lhRnP5VNkxjNpN1X5BxY0ZCmKCqZpMmRxIYcLOrkQwIVepwq82HDDDaN77rknWmuttczv60SVx7rq017Qr9/ZBQvNdkiDbVQ8k7ZRFWjzDzfi1nmRMOCxTanrNNOPmZTlU0ZW4CR9MCFlUeU4xvGoPHzHo7ww47l8isx4Ju2mKv/AgoYsRVHBNE2GLNDzHmZ5zNbXQKvCaKuLEakfp8Ub2K3694FtVByh2qhszjx7tn/ceMu8dW4kDKus/o/9uj7qW9832wMwk7J8ysoKzNsHE1IGVY9jHI/Kw3c8mgRmPJdH0RnPpN1U6R+40JClKCqYps2Q1Vldqzx1zZGLhSRo9o0H829J3U6SvcU2Ko5QbVQFuPGWY2/K25CbRtfoeEm/nq+59nqzLQAzKcunrKzAvH0wIWVQh3GM41HxZBmPJoEZz+VRdMYzaTdV+gcuNGQpigqmaTNkcUEnFwO40PN9PEkbavL/Y445pjeNfhQdd9xx0eqrrx4tXbo0/rx8+fJoq63ijnpo+bJly4ZMOWzr4Ycfjr/77W9/G1188cXR3nvvHS9ftGhRdPXVV/fX2WabbeJyogsuuMDcp2v+6X3o40o6Dzm2rKz698/v1y2y56z694FtVP82qgLMNSbHjvOwzo9MBsw3qeM3vPW9ZjtomElZHmVmBebtgwkpgzqMYxyPiifreJQXZjyXRxkZz6S9VOkfuNCQpSgqmKbNkAX68aQnPeVZIxcMFtpAE/NMjDGYcGLIuUbbqquu2jfw8PnAAw+MFi9eHD3rWc/qG3X6O0jMPuxDvnPLYp9p5p58ttbTx5p0HvicBWSISJ0ia27p0rvNuveFbVT/NiqbP/5xyVBGpm9cED+04Qd8MjCZSVkeZWcF5umDCSmauoxjHI+KJc94NAnMeC6esjKeSXup2j/Q0JClKCqYptGQ1SZC99fw8dk/2kDD/x944IGRLEb5Lsl4w2eYb7fddlu8Lsw1Mf7kOzHm3H246O2k7TNt/+4+3LJZ0BkrH/jwp8x6zwLbqP5tVAVDWUmecUH80Jkr226/q1n/LsykLI+yswLz9MGEFE2dxjGOR8WRZzyaBGY8F09ZGc+kvVTtH2hoyFIUFUzTaMgio+LFr9ikf2Hw5NX+z8iFg0uagTbuO2Q4aknWpM7ERFmdqelux9qWT/alayim7cPapw9uxgoyR6x6zwLbqP5tVAU4bp3J8qSn/H/m+ZJs6PgACy+61Kx/C2ZSFk8VWYF5+mBCiqRu4xjHo2KYZDzKC9qSGc/FUXbGM2knVfsHGhqyFEUF0zQaskC/IRyZXeNeSKONsDSTLIuBNi770t2OzpQMlX2ZtB4++7FSnBkidYksA6u+88A2qn8bVYHO3ENcrPzkpxrnTHxZaeVVJooPZlIWT1VZgVn7YEKKo57jGMejsEw6Hk0C9iX75VgWlrIznkk7qYN/INCQpSgqmKbVkAV4ZEYuEFZ56nNHLiA0aQaa+5025dz5SXVZbe7hO3d+Ur0PGIN67tC5c+cOZV8mPdbu7kNvx92H+9kHZIRIHSJTBG9et+o6L2yj5PPAZx+KbqOyQeaezsp8ytNfHN/EWedOxrHSkNmH+MiadcZMymKpOiswSx9MSFHUdRzjeBSSycejSWDGczFUkfFM2kld/ANAQ5aiqGCaZkMWFwX6IiHt4ksbYWkmmZh7YtrhezHcIDHo9HblEffLLrssMTNSbxc68cQT+yaiu0/r+GQfev9WOf15HCs/efWh+kOmiFXPk8A2Sj4PfB5HGW1UBZi79P8+7zX981r1aWtHMyutbNYBSUbP6QazD2+btup7HMykLIrqswKz9MGEFEHdxzGOR2EINR5NAjOew1JlxjNpH3XxDwANWYqigmmaDVmgH1EC+CW3Uy2VAFNQzD7r+zqx0sqrxpkgUm/IoipqXkO2UT7KbKMqwM2anvMNj8TxEUN/nrzaP/TrDhz1re+b9ewLMynDU5eswDr1wWS6aMo4xvFoMkKPR3lhxnNIqs14Ju2jTv4BDVmKooJp2g1ZXHy9bYsPOhdfqzoXFcWAbEf9GLv7yHttWWnlaNWnvaC0iyy2UQ5KbqOqGM5m6b4dmdmZ41hpKBMJ7PbJz5v1mwVmUoalTlmBVfbBZIpp2DjG8SgPxYxHk8CM5zDUIeOZtIs6+Qc0ZCmKCqZpN2QBLvD1HIi4ASjrF3GZkxRyH5WvJZ2L0lX+fq2hi6wy3pbKNspARW1UFbh5k3ONY+PpL4zf6GvWzZQTPz6oMlbAO9+zc7CMM2ZShqGOWYFV9sFkCmnoOMbxyJ+ix6NJYMbzZNQl45m0izr5BzRkKYoKJhqyXXChry++cDPMuaOGgUmATAF9kXX8D04267MI2EbjqbqNqsLNTMLcb09a9elmHU0r+FvRc7kBmAchb36ZSRmAGmcFsg8mZdD0cYzj0XjKGI8mhRnPeahfxjNpD3XyD2jIUhQVTDRkB+CCf+hms8OTnvIs52JjOsHFs87YAl84+GtmPRYJ2yiZurRRVSCjRT9mCHADNe2GEbKzkN2j6wV/Q0VlrDCTcgIakBXIPpgUSVvGMY5HNmWPR5PCjGd/6pzxTNpBnfwDGrIURQUTDdlhcPOLjCR9QfHkv1sjvlHuVNdUgpttXR+4eP7ucT80668M2Eaj1K2NqgJzvw29kKPHKqs/b+puonBzhJdruXUBk6DoudzwNzpk2jGTcixNygpkH0yKoG3jGMejAVWOR5PCjOfxYHyve8YzaT518g9oyFIUFUw0ZEdBhpd+Y3jM01/cuVnAS2qmZw4pzP+oH50FuAnHzbhVb2XCNupS5zaqCryJ/nOf/8qwIdgDN8JPWvUZ7X3scKWV4xvF7o3vS0bOf+eP71Pa4+/MpPSniVmB7INJKNo8jnE8qsd4NCnMeLZpWsYzaTZ18g9oyFIUFUw0ZG3wq677qBLAL8Bt/2UcF5j6sVkBN991unhmG9W/jaoE9YAbPreOBNxMwSBEXXZvqppnIsmx46bevSnS4LHBhRddatZTkTCTcjxNzgqc5j6YTM40jWMcjwZUNR5NCjOeBzQ545k0lzr5BzRkKYoKJhqy6fz45NOG5kMU8Ggp3iLaloswPC6LmwHr5ggXWP95yFG1ffSIbVT/NqoS3PjhBtCtsyTcx+7qhptJlsZr37BV5TdHMCKYSTlKm7ICp6UPJpMz7eMYx6Nmm3XMeG5HxjNpJnXyD2jIUhQVTDRk/cAcUu7jSgIumJH1hRtsZAfghqNTtbUFv2xLJgNult15CzV77n1gfAFq1UndYBvZ9UK64EYBj9Ftu/2uZj22BZif+Fu4/HdXmfVQBcykHIC/6bZmBbapDyaTw3EsGY5HzQbtx4znLk3NeCbNo07+AQ1ZiqKCiYasP2m/jCdRl+yGLFkMADcJeDzLqoc6wzYiPsAgxByniJW3bfHBGCvDr87A+JJjh5mBx9zrbuhNayblNGUFNrkPJpPDcSw7HI+aCzOeOT0BKY86+Qc0ZCmKCiYasvmAsYCML3d+xKaCi+kPfPhT8UV0W7JU2EakaN6x/Uf7F2Xghj8uNsuRYdqcScmswAFt64PJ5HAcqw6OV8XBjGdCiqdO/oH0o53rPoqiqMkkHYrV2RRFnTrUEOAXcmQ44SYD2QEj8yXWDPyqjePEr/p4k/epp51tnlebYBuRIuANbn7alEnJrMDxNK0PJpPDcaxecLwqB2Y8E1IMdfIPpB/t2SkURVH5JR2K1dkURZ061DojbVNFG5EHo/MW/nao/j/yqX3NcmR6ee/HPjUUI5f/nlkjeWh7JiWzAsej/46AVYbUD7Zbc6Ah22z2/uIh8XWoXHew/ci0USf/QPrRnp1CURSVX9KhWJ1NUegOlSQjbSNYZUhxPP+rvx+q/5d9YH+zHJleEBM6RhAzVjnizz8ccnX0zA8dHT39bXtFq792p+ipG7zPNDnryuqv2Do+7r9//ceiZ37gG9H/2X+BeZ5kGP13BKwypH6w3ZrDK7bcZait/uno281ypJ68bPt92H6E9LD8hTKRv8OenUJRFJVf0qFYnU1RWB0rGUXaRrDKkOKgIUvGQUO2Obz8vXsOtdXzvn6jWY5Ug24bYJUh9YPt1hxoyDYb93pjrcOvNcsRMg1Y/kKZyN9hz06hKIrKL+lQrM6mKKyOlYwibSNYZUhx0JAl46Ah2xxoRtQb3TbAKkPqB9utObAPbDbr7vzlofbj9QaZZix/oUzk77Bnp1AUReWXdChWZ0OqRdqGbVQNnEOWjAMxoWMEMWOVI9XD+RPrjW4bYJUh9YPt1hzYBzab/f7zsKH2O+WMs8xyhJDikb/Dnp1CURSVX9KhWJ0NqRZpG7ZRNeBmRdc/bmascmR6oSHbHGhG1BvdNsAqQ+oH2605sA9sNl/8728Mtd+P551hliOEFI/8HfbsFIqiqPySDsXqbEi1SNuwjaqBhiwZxyf3O3goRs4459dmOVI9NCPqjW4bYJUh9YPt1hzYBzabrx9z/FD7ffv7J5nlCCHFI3+HPTuFoigqv6RDsTobUi3SNmyjaqAhS8bhPkLIjJX6QjOi3ui2AVYZUj/Ybs2BfWCzcQ1ZfLbKEUKKR/4Oe3YKRVFUfkmHYnU2pFqkbdhG1UBDloyDhmxzoBlRb3TbAKsMqR9st+bAPrDZ4PpCtx+mMLDKEUKKR/4Oe3YKRVFUfkmHYnU2pFqkbdhG1UBDloyDhmxzoBlRb3TbAKsMqR9st+bAPrDZuIYsrj+scoSQ4pG/w56dQlEUlV96cCeEEEIIIYQQQgghyfTsFIqiqPyyOhdCCCGEEEIIIfXjVcYyQki59OwUiqIoqo1ip1+tXrXJe9bW9b/eplsu6X1FUbHW33TLI3WMrL/Jlvv1vqJqJvz96rbC33fvK6oG0m0Deoupmovt1hyxD2y2XrnJluvq9ltv062u6H1FBdaKBTNzogUzkUXnu4t6xSiKoiiKarP0hRfoLaZKEg1ZapzW22Srg4ZipPO59xVVM9GMqLd024DeYqrmYrs1R+wDmy1ek5ajaHZmtRULZpZZZmyf2Zl1e8UpiqIoimqr9IUX6C2mShIvfqlxoiHbHNGMqLd024DeYqrmYrs1R+wDm61Oez1Tt1+nPe/rfUUF1IrZmR1ME1YzO8NrPYqiKIpqu/SFF+gtpkoU24BKEw3Z5ohmRL2l2wb0FlM1F9utOWIf2Hzp9gO9xVRArVgwc6Zpwio6ZZigQVEURVFtFy+8qhfbgEoTDdnmiGZEvaXbBvQWUzUX2605Yh/YfCErVrfh8zfZZLXeV1QARbMzzxk7XUGPFbMzG/dWoyiKoiiqjdIXXaC3mCpRbAMqTTRkmyOaEfWWbhvQW0zVXGy35oh9YPPFNixWK2ZndrfMV4sVC2aO7q1GURRFUVQbpS+6QG8xVaLYBlSa1t9ky911fKy36Va8QK+peCNbb+m2Ab3FVM3FdmuO2Ac2X512W6Tb8JWbbMmXSwXUigUzF1nmq0Wn7H14AVhvVYqiKIqi2iZ90QV6i6kSxTag0rTeJlt9ZDhGtpzT+4qqmWhG1Fu6bUBvMVVzsd2aI/aBzVen3WaH2/Ddm/a+oiZUNDuztmW8pjI7s01vdYqiKIqi2iZ90QV6i6kSxTag0kRDtjmiGVFv6bYBvcVUzcV2a47YBzZfnXYbMmTX32SrLXpfURMqmp05yDRdU1ixYGZub3WKoiiKotqmoYuuDr3FVIliG1BpoiHbHNGMqLd024DeYqrmYrs1R+wDmy9cY+g2xDVI76up0YrZmS1WLJiZLYD7LNM1jc46y5xtBCGanZm6dqUoiqKo2klfdIHeYqpEsQ2oNNGQbY5oRtRbum1AbzFVc7HdmiP2gQF0wpKoSp73b18e+nt71gE/NsuVQoVaMTuz8YoFM4ssk7TJdM7pDhjOvdOkKIqiKKpK6Ysu0FtMlSi2AZUmGrLNEc2Ieku3DegtpmoutltzxD4wgCxjclqpWHih1ooFM4dYxmZojvvcTLT6ajPR0lPt70PQOZc5nXN6Zu/0KIqiKIqqWvrCGfQWUyWKbUClCfO36fjo3PCe2fuKqploRtRbum1AbzFVc7HdmiP2gQFkGZPTSk3Uy5a9wjI5Q3DWYTM418IMWWbFUhRFUVRNpS+cQW8xVaJ4A0OlCW841vHRYbb3FVUz8W+53sLfkqa3mKq59N8U6C2maij2gQHUNyQXXzEzZ8mmU8cJi++omyErimZn9luxYGaZZXrmYfm5M9FRe3bNWFCEIeuRFbtah5s69I+jw187/EOH0PpYh4O6/61ch3fAuc6LP41Kvre4vMNTO4je1AHLd4g/hZNsdxwh94vzds9vUr2gw70dcJz6/1WpiHOE6hTfFEU1RfrCGfQWU6E0Z8lqHXboXFgeNHPi4qM7F5qzijOx/Hkf+eJdug14A0Np0ZDNoP6NbDWsu+XOup2iVb91uVmuFOos63jbxJwl7X5ZinXOBaL/poBVJjhtb8OCREM2gPpx2LlOnEadsHhJvw5qqGh2Zt0VC2YusszPLCyeOxNtukHXUFvvhd3/hzRkO8e4CJm93aNOlBh+rokEw+qxDq+LP4WRGL91MKzEFDymQ9J5og4sY1rOQxt6RRmyrsraT2hNgyFbp/imKKpJ0hfOoLeYmlRzlmzQuaic22HZ4OI6mScde230rC/8OHr5O3fkDQw1JBqyGWT8bU0tdZZ1vG2ChmzzoSGbSzRkA6gfhzRke0tqqUmzZffefiZadZWZ6NBdZ6IH5s9EW70hnCHbOa5DOscHg2ickowpMZeSskfzqE6GFTIZYbZu1AHmoHVMSYYshPW1kUtDNl00ZCmKopKkL5xBbzGVV3OWrNu5mJw3uKDOxkrfvyFa5dtXfL2zHZ8LKWoKREM2g4y/qamlzuof5+IrYtOhNfTOa2oM2cWLRuug0Vw0NW1YkGjIBtDg74uGbM01SbbsjT+ciR4+q/t/TF0QwpD1zIoVPbnDaR18jCnXgBS5xq0YhoIYmmLCucshbFuvow0tWe+jHbAfKQMzT+8rSzave8xJ5lyaIesao1Ubsj7tI/9369I1EK360G2UllEsZYDeRpIh6xtXaUrbr0iXwfff6f2ry6VtZ1zd5Y1vCPs9vQP+FvG91EfS3xJFUW2TvnAGvcVUHs1ZsnvnQtLIiF08N/6uOz/Wc3qlUX7jDjusfujZjxjrLOp9v0GH/TrLDoqZs2SLDuv2tkCVoZG2KZe//+9zhv5GX7TD3ma50qiz+sfJufd6NVJPyTHimNukwXlNhyHbtvOcs2TtqWnDgkRDNoAkBmnINuaeZNJs2RCGbIasWC0xfSwTS0sMJ9dMwvpiIGmjDXINXzG19DZcQ87dj3zWZpQYZ7LdLMYy5JqaSSYn9pNkgrnHnbSN0Eraj0/7SP3r9a31cN66Lt1zxWe3Xtx1pE3EUNWxYf0/7bjTNG6/kNuOYpDq9cZtx6fu8sQ3hH1ju3qZriMoa4xTFNUk6Qtn0FtMZVXXMO1dRPc4cfGRnZu6tIn0B4JRG88x62wjkc4F65wle3UYXHx156uFMbNFp0zXwO2auB/pLR+YwZS/zPovD0xnAVNW+LsjLzDLlUad1T9O3sj2ltRTcow0ZJuptp4nDdmJtd4mW20sL80Dz99kk8E1CuUniUGOY426J5kkW3YSQzZjVqwlMfmEJCPMNa0gvQzbScvicw2rJDNOG35WGcuUtEzCJLkGnRyXm43plhPJMeny1jEVobT9jGufpPN0627cOknt6B6T1Y4o45Yfd9xJyrpfLb19n+341F1SvaTFN4Rj0Z+hcX9LFEW1STRkA6ibwdq7gI4voi/qLMuXxYqs2PgxUL29NBbf0d0/5qu1vrfoZQ9SfjLrcIqps/rHyRvZ3pJ6So6Rhmwz1dbzpCFL1UESgxzHGnlPsmJ2Zq8VC2bus8zTJPIasjmzYtMkphLq3jVmXTNQyspnMaB0GS3XsML2LPNXG2SWWWat55pcSUoyySxTDMtwLhauMZdmlIZU2n7GtY/7WeTWp49ZmSTJ5JR6kjpNa9Nxx+2jpP0iLqwYw3LL8E3ajk/d5YlvSNe3SMroeqEoqq2iITuhYgNVLp7jC+g5nWXolAfqZq5u0/n+oPgCuwvK2Z0syuP7bjlMd7BfB3kseYd4mefLwtKJt82s2XEa1Nd0PgYPmvYoPG9km9FOiK02aXBeAzOvO+0MjecmKMmQbWMb5pHUg55GaXBN4wN+OHaf3OGUBq4kBlFn06iGG7JQNDvznBULZs60TFSLrIZsgKzYcRJjSpuUskzMSMsEdQ0tIPc6rmGF9XU5F6xnGYKW0eVryI7bpzZqLZM2Sa6p6ErO3d2fxmdfafsZ1z5ppqLeZh5DVpvXsk+9f70dd5s+cZWkcftN2haWaxN03HZ86i5PfEO6vrXS/pYoimqTaMhOoK5xOrhwhInqamzGa5zhmr2DxVQIsWk7sr2LelMlaBN3v+50CPEN0X1OeUx9sEFvq5SlQV1N580R1DSjjzeyzWintplcg/MamHlxv1vz9sgq6zzboCRDto1tmKbudcNenfPGj7+4bhj8IFcY6LvifeHHarl+wQ3u9GlQJxzHGixMYWCZqRaZDdnZIMbMOLMtzfhcswPMIjfTVEsbStiHa1hZ23cV0pCV/aeZX65JN26bItfULErj9pPWPmmmoq5PbRD6GLJyTG4s6DZJM2ShLHEl8tkv/m/FGJbLOfpsx6fu8sQ3lGTIarl/SxRFtUk0ZCdQfMPSv3DGNAXojAeCMdr/Pg3DyPUVbhq7mZvINhmf7YoyJyw+09n/fZ3lNGWTNKgnGrKgzpr2tqIhW60G50VDtomaRkO2+/JQmK94KueK/vnXhtiondf5v7zUtP1P9QzOffw4NlRXE5Ikq2xefNQeQ/Ygy0y1yJEhe2ZvN5NIDCT38XuRNqREYqYd0OGODuPMJm2+uYaVfOcaYdrIssw7y+iyjtWVGG9Jhha2ob9voiGb1j5u/YvcutMGoRUjbkar1R5SRrar29Fq07TjTlLW/Wrpc/TZjk/d5YlvyMeQhZLOhaKopouGbE51s2N7WSOLl3U+Dz92N2fJ7v0Lyj64qYuzWnuP+oGKpg3oGrkqWzbO1PV7Adm0SbfftIqGbDNEQ7ZaDc6LhmwTNQ2GbHfaAcw7f2YHz6mPcK0TX7/gx1yZcmCbDvIUDkieemC4HOhcf/SvgbBdMOi7xhKbtMik3b1Dvvn666zBedKQbbBWLJhZYpmpFjkM2WWYFqG3q0kkBp9rCMly10yCYCAlrWMZpbLMMrWwLb2OawBaJlTSfrSpaAn7Sivj7ntceS2pr6LNMp/9JLWPnJ+uO6udsb5eV7ch5Na/tJE2bbEOtiv1p9sxyVhMOu4k+ewXwnatc5b9+GzHp+7yxDfk1jfk1jHktgNFUW0RDdmc6t5Q9C4ynQzX7jQF6kYnzp6tXwYqboyGj3Nu7xtKa1A/NGRBnTXtbUVDtloNzouGbBPVVkO2mwE7r4MzZZFF51wxxRHWqeLvs5uxu0PnWGDWwjT2eMlpbBjPi4+5DRqcFw3Zhgrzu1pGahJ5XurV2cfuvd1NKjGJUN9CmvEjRpRlCoqRlbQdyzBz19FmlWXeJZlVaeapbMcymLW0gYb/p21TK61OQspnP0llpJ1/1AF1IfXtlrMMQt1GVmzIPgWsv3kHKavb0WpTKE8djtuvCOckZdCm+3fQ5zhuO751lzW+Iau+IXc9q94pimqDaMjmVPflFN0LRtxAaMGAle+sqQzqpCFjOT4XvmDD1aAtaciCOmva24qGbLUanBcN2SaqrYasnNMI+EG2Z2TWPdM0/gFZMmqtc+nRBvXPx2Mc0+c+KUmyyubFR20wZBfMHG2ZqEnkMmQXzFzU213Zgnnla1RS5SupfcRUHGdKV6U6x1Xd646iqCaLhmwOdacr6GWadP7VQiasXEhaUxnURd0slN1nTlx8SHyc/WPu3PBQwxq0Jw1ZUGdlbat++QBYssrlxUc0ZKvV4LxoyDZRU2HIxi/+PKRzfkW+ob14JRm0bdCgrWjINlDR7MxqKxbM3GGZqMGZnSn7HkPm1uS9Qj2V1j51NhXrHlc0ZCmKKk40ZHNI37S5j/kPvcirZlMAIAMmPr5xb0yG2dzPmmn/CzTGaVAvNGRBnZW1rfrlA2DJKpcXH9GQrVaD86Ih20S13pDt9A9tlLRPk9tIa9BeNGQbqBWzM1uY5mkRzJZmEIkhhTZxH7mmqpdP+9TRVGxKXNGQpSgqQXjjLDIEulmOnQtSRTcDAi88SDXUaMjmUDxHbP8Cc7hz1m8pxksv6iC8rGvIKM5K/PKM+s2BW5YG9UBDFtRZWduqXz4AlqxyefHRNBmyMMxkO8Fw5gPPKtkODdnxGvphMyCTxRQN2SZK2qfJbaQ1aC8asg3UigUzc03zNIXOOmfmXG9Rb7cURVEURZUiGKxeWY6azkVdgjlIQzaHUJeD+h02ZOPH6OIXTEx2Yx9K/ePR8SDAPMaNjHpzcvfz4GJYA5N/GtWvA4+bI0jX2aQkySqbFx/RkB2PJatcXnxEQ3ZCaMh6yTrPrKIhW57knGjINkOD9qIh2zD1pitYZpmnFp2y93XW6fc1yK7tLMs03QFeINZbnaIoiqKowoR5S0fn+8zI4is62xkyZmnI5tDwC7326y2tn5AhPdT+oHOB75E5HX/fNWgdMzd+Sdl0vfhL152PhuprQpJklc2Lj2jIjseSVS4vPpouQxbzdfd+SArEpE81DM6Lhuw44ckNqw0mZZLxiYZsMyXt0+Q20hq0Fw3ZhgnmqmWaWqxYMHNmp/zItXhn2TM7382x1rHolD2ytypFURRFUYUIc3/qC5Q+nWXdqQm26LBpB8xxgvJ4YdOmvUxaaz08Vh/fvKzx6W9Ha+5xePTCHfaOXvy+T7XjYrZI4SZtUI94aVc9f5nutq9ucxip2c2P/g8BQ9ta0lk+Pabs4LxpyPqWr0r986pJW1nl8uKjprXTJIZsHTU4LxqyTRQN2WZK2qfJbaQ1aC8asg1TbLIapqmmU2YoKzZJvtmyKNNbhaIoiqKo4IqzgOSN/qDz/xMXH91Z7m8ExnPNLl402EYayMBdPDfer1Y/G2nxvA6di98eMH3nLNmhwzN7Jdupbh0Om9tYVkehPfRxoo0mFYyT4TiEKTsdL/wanDMNWd/yVal/XjVpK6tcXnzUtHaiIdtMWefZBtGQbaakfZrcRlqD9qIh2yAh29UyTDWxYWtnxT6nw8i7GjrLvLJlYd72VqEoiqIoKphGzVhMOZDfBMv8Yqf4ZU7bdP7FHKPG9y6di8dJH/msm7oZoka9LZ7bK1EvdWNmMK0FpicIpdF49DO9mq6s59svH4AkWWXz4iMasuOxZJXLi49oyFarwXnRkG2iaMg2U9I+TW4jrUF70ZBtkFbMzuxlmaVgXFZsZ93dO2USkycwT2zn+0XWtgFM215RiqIoiqKCCEbgUFZrbMZOnoWKm4zu9u7rMK/z/8Hca/qidiI622nDjXY8x108vYM+N2SG1vcmVB9vES/hijNlVX3UeQ7dUOqfr8fNEaTrZ1KSZJXNi49oyI7HklUuLz6iIVutBudFQ7aJoiHbTEn7NLmNtAbtRUO2QVqxYOaiJLPUyorVwrodUqce6GwDLww7JGEfy/B9ryhFURRFURML0xL0L2IWL+rcHJQzJQAycEfmDI2P4czOd3gZFOaq7R5Ld67a3Tvfwdh1yneYs2SvuFwTFd+YDRniy+J6kXl666i+2R4f75m9peE1HJuYR7fdUxcMzpWGrG/5qtQ/r5q0lVUuLz6iIVutBudFQ7aJoiHbTEn7NLmNtAbtRUO2IYpmZ9Y1TNI7fKYS6Ky7dn8dj/JJ2bKd5Tv0ilAURVEUNZHiN9wPPXZe/jQAMFvji6IOPjfNuJGJjTp13ADLmih9gY9sYndO3bqpm1F9R/+Yizxed18h5qits+Q8fW6OoH75ACTJKpsXHzXN6KtLW1nl8uKjprUTDdlmyjrPNoiGbDOlr9faoEF70ZBtiKLZmYOGzNFuVqxXIo1eF+v1Fqeqs85Itmznc3GJGBRFURQ1VRqas9TTWChCeTIfu2by8JyzTXusvTuFg9Q/MkDrbxrgGAfHPK+3tDgNZVHHddTeR6UG50lD1rd8VeqfV03ayiqXFx/RkK1Wg/OiIdtEtd6QnQLaoP75eIxj+twnJUlW2bz4qIGG7IoFM0t6pqhXVqxWZ51+tmvn/5mmHuhly16h1m33E2sURVEUVbi62Yc6O7bemZlJcqc9aMrLvvQNGShiHtYipKcRmLOk+MeWYuNd1dOcJe19w2v/PGnIepevSv3zoiHbW1JPyTFOYsjGLxnUc6AHYNJxanBeNGTHKZ6j3WiDScEYnlc0ZJtPG9Q/HxqyvSW1FkzRniHqnRUrknU1eaYe6Ox3PxiynXXDvciXoiiKoqZSw5mOzX78ZGhu2cV3dM6t/lmUw9nJzThmqH8BW2K26vALxNo7bcEgHmjI+pavSv3zoiHbW1JPyTFOZsiqObNDsXiyN1XLdmjIjpf742coJospGrJNpw3qnw8N2d6SWiuanTloRcasWNGKBTNHjhiyOace6BzHuthe7yNFURRFUbnUzfLoXog0+aVYUJwBs/i+/vl0X4pV38dputnJeh7W5ky1IMfsa0SF0LB5fUVvafuUtW775QOQJKtsXnxEQ3Y8lqxyefERDdkJoSHrJes8s4qGbHmSc5oG2qD++ZR4PVcnNcyQnUQrFszc4RqyMZx6gKIoiqIqEm4I5UKkqdMVaA29kV9YfFHn3HbvUK/sUzzqr48TN2dN0NCNrcf8sah3mP242Ef75J1uIN5Gf7/tfFkINDhHGrK+5atS/7xq0lZWubz4aJoM2TpqcF40ZJuo1huy8Q/ko9M8NJ6WGXiD9qIh22Ihq9Y0Yzt0vmt2Qg5FURRFNVYnLJ7bvxBpiiGYpu48f72LS5d4SoC9OtTDmB1+UdVFvaX115wlG/ePGwZrmrpZwBcNztNzPUuugd1W9c+Rhqx3+arUPy8asr0l9ZQcIw3ZZso6zzao/YZsO384lfZpchtpDdqLhmyLtQJzzhpmLOh815x7EIqiKIpqlfSFZRsMWQjZsLHZaRiBMXHGbPXnqs1wn0zTumjOknX7xz1umgW0Rf8cHbJmysJM0eu3Vf1z9Lw50nUyKUmyyubFRzRkx2PJKpcXH9GQrVaD86Ih20TRkG2m9HVzGzRoLxqyLVU0O7PaigUzyywzts/szLq94hRFURRFlaLunKuDFyXhc9vUfVx+96ELrpjF93WWV/umfm0YN+0lVai7brZxeszoKTFGOahXyk+4Ye2vu/iO3tL2aXCONGR9y1el/nnxRra3pJ6SY6Qh20xZ59kG0ZBtpqR9mtxGWoP2Gj+O9csGIElW2bz4aAoM2RWzMzuYJqxmdibbNTlFURRFUROo+yj5wIzF2/LbrqE5SHvnjMfvq1JTX+iVRd0511SdK7LeXA/PIdteAyzrOfbLByBJVtm8+IiGbDNEQ7ZaDc6LhmwTRUO2mZL2aXIbaQ3ai4ZsS7ViwcyZpgmr6JRp77sZKIqiKKpWwoW/NgNxMdK2G9UkIbOz+6IJOXdkylbzmI6+CMQUC23UnCXPGa5vIZ42IttcvjrbNs8ctE3RoI6m0+SDmmb0TWtbNa2daMg2U9Z5tkE0ZJspaZ8mt5HWoL1oyLZQ0ezMc8ZOV9BjxexMdUkqFEVRFNV6xS9jcudVjbNEp8OMFcVzoKoLMGQKV/GiL31RD7OxrYpvOiUbOzbAs7/NtZvRPTB282yjKRrEBA1ZUGdNe1vRkK1Wg/OiIdtE0ZBtpvS1Wxs0aC8asi3UitmZ3S3z1WLFgpn2JjtQFEVRVKXCxb6+SInpXIS07QbHV935cwcXYVVkqA6/1KvdbzjtT12Q07ias2SbQV11QOZtW9U/z5x11QY1zejzbat++QBYssrlxUdNa6dJDNnu0xWzQZl0qprBedGQHafu0xqjbTApc5Zs0NtDdtGQbaakfZrcRlqD9qIh20KtWDBzkWW+WnTK3ocXgPVWpSiKoigqiOYs2WHoAgXTFWBZmYIBipdr4VHz7o3MnM5nvBSqOmMNN+eDOkGmcLnHMmSSV7D/MjWpITs83/G83tJ2anCeNGRBnZW1rfrlA2DJKpcXH02XIWv8qDkpEz4ZIduhITte2vwMyWQxRUO2iZL2aXIbaQ3ai4ZsyxTNzqxtGa+pzM5s01udoiiKoqiJ1c0K0XOmntlZlv5m/NCKDWE9Z60mfoS9uhdanbj4yP6x4P9lyr1BbPdj+PkNWdcImSQjqQnqn2uOumqLaMiOx5JVLi8+oiE7ITRkvWSdZ1bRkC1Pck40ZJuhQXvRkG2ZotmZg0zTNYUVC2bm9lanKIqiKGpiDT8WP/lcqTB4kekKgw2PkY/b3tCb8dPwuDGNHxmN94vM2jAv4uoa1st6xwBzuNxHdXDegzrAFBLlmuVlKa8hG9+wDv2g0O7sWGhwrvUw+SCrbF58REN2PJascnnx0XQZshj7Ng3MZOPY4LxoyI4Txna7DSYl/5hNQ7aZkvZpchtpDdqLhmxFWjE7s8WKBTOzBXCfZbqm0VlnmbONIESzM7r/PrwD6tvioA51Eo718g5PjT+Fk9RB0n1NWh25x/OmDlhe1NOvSdvXx1i3ditbRcTJCzrc22FcuxYVo2WoycdOUR7CzUL/wiR+JH6ym794Hk9tjsXbXZS43aH9e5CUIdqd79V5GVlcPkxmrTZFccxlasgQBovb+ct0HkO2+yIv1e4BYrgJGpwvDVnf8lWpf141aSurXF58NE2GbB01OC8ask0UDdlmStqnyW2kNWgvGrIVasXszMYrFswsskzSJtM5pztgOPdOUwQT5q8d/iH+NJAYUG1PvpDzPKbDYx1e18FVUh0hceimDtrEqsKQ9TULqfyahjqmIUu1XEPZl0sm++Wqm6mojENNwgup9EWrF4vv6605rOHzGCbEDTZuhGR7VbzcC8ayPqcqjqFoZTVkuyb8cPzgB4FpUP+cPetK19GkJMkqmxcf0ZAdjyWrXF58REO2Wg3Oi4ZsE0VDtpnS1yZt0KC9aMhWLLxQa8WCmUMsY3NSbv/fmWj/HWeiZz2tn9EYrbvWTHTi5+3yIeicy5zOOVlPESSZjVDR5mId9LEOOP+NOsBws+7R0+oI62sjtwpDFsuSzGQqjGjIUlSj1c0ulEfxkVk42aPw46YewI2Fq0QDNwUrA3IkK1cRYt5XfVOEaR3KVret1Eur4uPAS8/a86bTLIYsYgCZ17o+qpxnuGz1z9ujriBdT5OSJKtsXnxEQ3Y8lqxyefERDdlqNTgvGrJNFA3ZZkrap8ltpDVoLxqyNVEvW/YKy+TMw80/nYnWWmNgxLps8yZ7vbwkZMVqpZmNT+5wWgfXpIEJqY9bm5hiXH20A7JHpQyMLDETgWUg4ljke+DuVxtGcmzYt14vi6EkGa6SBZxkSKXVkWuQlm3IjqszrSxltXR7p2URJ207S1ulxZbvdvCdu2zSc/A1ZN1965gHSXEEyfm5Wel5tplWjyK3Dr/T+1fXG0W1RLi471+UBJh388TFRw+2Z+De6A6ZnBlwsyDjR/qNcn0Wn9krOZkG5nU1NxBWRiiOpS1ZoT6GLOpAv2RtUA+TvfimaRqcNw1Z3/JVqX9eNWkrq1xefNS0dqIh20xZ59kGtd+Q7VxX4VxaxyBJoA0atBcN2Zopmp3Zb8WCmWWW6ZmFvbfvGiAfe9dMtOTHg+VnHTbImJ37xeF18pKSFasFUybNJHK/x2dtaIlRJYaPfHbXwbmJ2WMZvSijP1vmlC4j32O7YpK5Bus4+Zqpbh1owfjS9ZG0jVCyto9lSSajyKd+Lbnnh89uXYzbtm9bYTtpsZVlO/p4QpxDHkPWXUe2qfej5e5TlHWb7vm69Qhhm7oOsA7qNenYKKrhwmPvcoExZ8m4P+TxGp8h+5xeyYGakiEL9S/IOsdclbqZssb0DLExixeZjWYhN0VJhizOuTs3cee8R+YnxkvW2nUD7qPB+dOQ9S1flfrnVZO2ssrlxUc0ZKvV4LxoyDZRrTdkp4A2qH8+HuOYPvdJSZJVNi8+qvk4Fs3OrLtiwcxFlvnpw7JzutmxG64zEz181uj3x30uNkQmzpLtHOMiZPZ2j3qsXGPGlf7eMnYgbQBZZSwTUZtirskkco0zbUwlmVu6zDi5555k6CbVkRy3Ll9HQ9a3fl1Z9SHLXAM+bds+bWXFDaRjy7fN9edQ55BUxpXeN9olrX5d+Riy47aZVo/jzsWtR4pqkfByKLnAmLPEd4BM1sjLpzSJc8iOvogrlcX2HLJm1mSPOUs26JWaTHIDBKpWbH4vvmPoPPvgwhHH2jjE8L5vsMw9N00ndqbhBV6WBnVAQ9a3fFXqn1dN2soqlxcf0ZCtVoPzoiHbRNGQbT5tUP98PMYxfe6TkiSrbF581JBxLFS2rEvnbjHOkp3EkO0c1yGd44Ph5CuYMGkGj/4+yfjTBo9l9ljrJZmBYkohBoAuow0jH/MqTUnGlVUfWCbH4+LuH+eK5eOMu7yytp/ULpbS6tdVknGXpKRt+xqN42LLt83151Dn4Lsda9/Yjs/+fc5v3DZ96lGb3FpYruuRolokbYZa2at5NGfJ7v1t9omzGG1TFDcYI+VTSMp27ZrBgwumQfmjeyUml56ztA7qZo6mGLNtJtA0FE3VoB5oyPqWr0r986Ih21tST8kx0pBtpqzzbINoyDafNqh/PjRke0tqq0mzZS0kQ/bAj9jfp5ExK1YLZk+aKae/9zF7LOPKWs81ZLGf+Pw7yHKrjBhGvuZckrBt2Z+FNmrH1ZEWzhXrJxlwkp3p7k+Tti9r+0ntouVTv66strQ0bttNMGTHnUOW7ehjcQ1ekLQN3/NL2+a4uEa5pHbHcr0fimqRirrAmLNki862z+xuf/Hczuf0LEadqZvK4kWdbSX/utqdYxWPtWO/yJ7cvfdNGPWNz87266T+o/5tBD8a4MazEyNDWdBTNmesq0E90JD1LV+V+udVk7ayyuXFR01rp0kM2aw/MHoxYV8n26EhO17a/AzJZDHFOWSbCeeQDUGSrLJ58VFTxjGlUNmykh27+moz0dJT7TJJ5MiK1YLZY5kzkJiHYhAlmWbaJMxjyMr6aY9ZQ9qY8jWvLMl5WeVku/q7tDpypeuiCFnbt+pXy7d+XfmYkD7b9mmrpHPQ5+vb5vpzqHPIa8hqaSPV2k6emHa3mVSPWjgvqwyWJ+2HohquulxgdI3UM/vHYhIbrNXNjxofozqWOkkbsk3O7hr3Uq+hm2Uasql15apfPgBJssrmxUc0ZMdjySqXFx/RkJ0QGrJess4zq2jIlic5J/QPbZS0T5PbSGvQXjRkG6RJs2XFjMWmsrzQa4KsWC2YPUmmnDbDIDGlLONKDJ68hqz7vRhN+ti0MZXHvBK55+UKx6a/T6sjV+O2Pams7Vv1p+Vbv65cQx5y691n2z5t5RNbvm2uP4c6hxCGLJS2Hev8ZJnvNpPqUZ9j0jGMO3aKarCGpyyo/mVQ8c2smhYgJs6K3a9XojrpG+2Q0yCEEA3Z6dOgHmjI+pavSv3zqklbWeXy4qPpMmQ36GwD/Vg48ELDSTQ4Lxqy49T94dVuh0mY5PqKhmwzJe3T5DbSGrQXDdkGasXszF4rFszcZ5mnSZx12MCMPfHzdhmLCbNitWDCWKYcDBwcl2V+afNKzB0pZ5k9luGlDVl3G5CYovrYtGHka85ZSjpnkWvijSuvJfU2zrjLK2v7Vv1q+davJW2IQu6+fLbt21b4nLbtLNvRn0Ocg5QZ165631a7uMfiCuvrNpH2zrJNtx4tU9ot4+6Holqm4Zd61cfI686Numn8b11U17qCujd99Ty2LOqfR8IFPw3ZgQb1QEPWt3xV6p9XTdrKKpcXH02TIVtHDc6LhmwTRUO2mZL2aXIbaQ3ay28ca5sabshC0ezMc1YsmDnTMlE1y8+difbfMTZAolVX8c+MDZQVqwVjJj4OgyTzScwqQWfjWcZVkolkGU8CjKHNO7hGkxhGeQ1ZOT43g9CVNqzw/3HGpUjOo06GLORTv0nS7W2VH7ftLG2VFlt5DVlo0nPIY8hC7vmMq285RymPc8U2sm7TLePWGYRjle8R3/t3cOuNoloiPSdnHbJQ66r4hgjznMUXo3f0ltZHNGSnT4N6oCHrW74q9c+rJm1llcuLj2jIVqvBedGQbaJoyDZT0j5NbiOtQXvRkG2wMIWBZaYKMGO3ekPXCFnvhTPR1cfb5SxWzBZm9FEURVFUS4Ubz8FF1hW9pZSrExbP69cTTOy6qQ2GLB7L1S/BQJ3PWfKc3rdd0ZAdaFAPNGR9y1el/nnVpK2scnnxEQ3ZajU4LxqyTRQN2WZK2qfJbaQ1aC8asg1WNDtzkGWmAm3GfuxdM9HDZ9nlkkD2bXcvFEVRFEX5S5tgmP+OGtacJVv06wfZsXWaRkHUdEO2O+9ir441ndjUpiwN2YEG9UBD1rd8VeqfV03ayiqXFx/RkK1Wg/OiIdtE0ZBtpqR9mtxGWoP2oiHbYK1YMLPEMlPBcZ/rmrEHfsT+fhydbS/DtAjdPVEURVEU5Sc9bQGyZOtoOFalOUvW7dSJNqz36n1TL/kaslKmSPJoKAYddJ3TkB1oUA80ZH3LV6X+efFGtreknpJjpCHbTFnn2QbRkG2mpH2a3EZag/biONZQYX5Xy0gFy86ZidZao2vIprHhOumZs5197N4pR1EURVGUt5CBiMxPudA4cfEhvW+mW3HWproAq/NFaPMN2aPNbQE9tzEN2YEG9UBD1rd8VeqfF29ke0vqKTlGGrLNlHWebRAN2WZK2qfJbaQ1aC+OYw3VigUzR1smKrjgf2wD1mWsIbtg5qJOOYqiKIqiMmnOkt0HF1vxBdd0m13xNAVD85ku6Sx7Zu/b+qn5UxZsM6hrzeJlne8G02jQkB1oUA80ZH3LV6X+efFGtreknpJjpCHbTFnn2QbRkG2mpH2a3EZag/biONZARbMzq61YMHOHZaIGZ3Zm7d5uKYqiKIryFgyu/gVXfNF1Uefif7rmlO1mC8916gFmbL3roQ0v9RqZtiCeP3b4xpqG7ECDepjOmyOIhmwzREO2Wg3Oi4ZsE9V+QxZj/X4dNu5902xhqqs4yaHZBt6IBu3FcayBWjE7s4VpnhbB7MxBvd1SFEVRFJVJI6YsWDy3c3G5Ta9E+4Q5c+cs2aF77ouXOecOU7r+E9S3wZCFui/3OihuD6veacgONKgHGrKgzpr2tqIhW60G50VDtolqvSGrwTXY4jM759kcgxbXKoNryEFfp2mD+ufDcay3pFFasWBmrmmeptBZ58yc6y3q7ZaiKIqiqMzCBf/Q4/qaxRfFF2PtYTB37vB5wpiFMdiMF5y1xZAdJxqyAw3qgYYsqLOmva2a1074YRJ9alvonte0GLInLJ7X+deqh2ainx5plSHbO/5UYoN2Nq4DvOAT1zdVXpdh6qruMezXOS4YsP9/e3cTaslxHXC8F7YZbAwyIUT2wpKdYA3G82bGC9sY4WQVaWMwWRiFYCJrpVUQJgQ5Mc7stHIE8ULRIpHJwtok2MiLMQFzL3gxeGG0McxOQoEw4IVnIzMIw72p07dO9+m6p6qr78d79+P/g2Le7a6urlvVX3WmXr+3/XrbFPKcgv77yPXcP1ZPOplx0ZGJryt45AVPvRTyPgzbdNcamV0blk163YH8AbG4OQAAmGz1q/vOjNFTT+H7yh+YOoZZsdbqgXH1HQjInoe+HQjISjpk595XR9dPJ5rOJiB7wukU+1De2S9/TLYquKlJ/jO9DdSG7cLzj7wiYBUo3f75R35TZ1XWc23Zq7qFts79B36aJHDX/mbZ8yEd17NkiftdzzQdGQmuekFTLy3mzd2Qf+24DcseC+ve8LbxUsj7atwUAABsbPWrWDIT4G5IJxqcfed+fHiWX5M/jhmxKQKy56dvBwKykg7ZufcVAdnDSARkjz+deh+uZqA+1/7H+KQAbS7JtacNpo4kb9sp6Z17oc4yi/fZ+E1Oj/u9zzQdmTbI6gRNbQp5BrNic2pny0qeuAkAAMCJswHZdhDjDThOIt0z35OA7KodCMhKOmTn3lfH0k86w+50Uz/rqb2eHnh/TOV/51NLp92HHnmXrASi+5mqmVdqXUYavEJBZsDya9k4aDLb1QuY2tQGbP1ZsY+HtPZHjcOyqtmyEryNmwAAAJywQUD2XBIB2dgOBGQlHbK+r6S+cq6eWTred++drHMJ5p2yc+7D1W9vaZD65fY6s5pVKwFbSRv+Rlf7G1Oyff8eYpn1utrPk3HvwNFYzJqXvGCppLFZsWHbF0Oe7KsH5D2xYf19r2xJErSNWQEAAE7YauDgDC5OORGQje1AQFbSIev6ihRbBFftnIN5p4I+BDBiMW/u5YKl3qxYS7YNqfjqgVCG/MGwVzL7eCTrY1YAAADgRHRBLgKyBx+U6PqKFFvkeMgf+FnNmDu1tJq1fOpOt/8knUcfAtjIctZcd4KkD2peJRC2fbLbpiJ/brZsWP5czAIAAACciC7Ida6/Bi+JX4XHnsmvKnfn2gmmU3fq/ScJABzLWXNnEBxdzYp9LK4ustvKdnFxUdhmbbZs+Hw3rgYAAABOhDcwP+cEAACA1mLevBuDolWzYq2wTTfbNfw86dUDcbbs22bb4qsRAAAAgOPiBSXPOQEAAKANisaAaPWsWKXb2rTJqwfCfl+WgGzY9sW4CAAAAAAAAABOz3LW3FlMnBWrFvPm1bWA7IavHgj1uC7lxY8AAAAAAAAAAGsxbx6kAdk28eoBAAAAAAAAANgdmVXrBmNDCuteitkAAAAAAAAAANtayDtnnWCspLDuXswGAAAAAAAAANjGctZcW8ybR14wtkuz5nrMDgAAAAAAAADY1GLWPOcGYW2aNXdidgAAAAAAAADAphbz5q4bhDUp5Hk3ZgcAAAAAAAAAbGI5ax4ffV1BTItZ85W4GQAAAAAAAABgqsWsedELvnppMW9ei5sBAAAAAAAAAKZazJt7XvDVSyHvQ/kDYHHTffpBSMtM+nVIHw3pnGh7/KT9tG5Kez0dkix/rv20ex8K6a2QvH4qrdsnOWbfC6nULofCq+v7If1xSFdFjq+0vewxJ++X9vIAAAAA+3Pr5q0ffPHW7aWXbt+89f6tP7vVPkRLvvD515/85Cc/enFx8Znw8+9uX1zsa0AEnJTyeXZzoz82FM6/FzbdFjgFy1nzpBd4LaZZ8424+T5JcMcLQmmw6pwCP58J6XchvR7SByF9KaTUlPY6t4DsCyFp0FBpPXLteVW0b9L7kvTvIdVVj0meYYFtPfHEE9fCoPC94YNtP4Dch6vY5ynItFs7uI9Zmssc5NvgQlxUTQdWty9u5f6nFwCOQrwWTrqHEZC9HLXPG+Vg3633Qz/9lbcuTdKfI2VtdM9E/jzrz6VpzxN6bBCQxTlbzpo7btC1kBbz5s24+T7lAoxCAmyHFkjbJ/m+0hZfDkmCYN41a0p7nVNAVgOHXpsdYnBf+tGrj9b1UMbNcgyd0zkI7Ed4iH16NUAYPozGh94Pbt68ufOT7Cr2eQpkFofTbh8K7faWbbdjCMiawdPr9DmAY5cLFJVc5rX6XE153pjah13ZTv/lyuoDgARlN1Hqo1J/5BCQxTFZzJpnF/Nmtof00Au6llLY5lFSxk7SctY8H7+uKAUY04Ci5P1ZSBLok+U2UKSzIzV557vNkwsyjZWjddKU1n1sfU4aiMsF7Ka0V/p516YGZGvapqYfPaV2EV8LyWtLu6/0e+yrvlOC1XpcfDv+W9rPLs4Be9zl2sfmUWPlAuctPtyuDQy6h9Q9zF68in0eu27g7gwa0gHeZQ7yc305JtTthbDd+6GuX27rymAIyJLzbBVo2PzauDrn+vNs03MXvtieo8E82+7etVr6SfpaU3pt1KBTv35aEPjc5I5z73mjtg+V9oV3ry2VFe9//EfkBkb6SP+DetDfsk1yzgzOP7O8Kze3TVsgXOm1qW0359xYHf/ddW3VZzz3V1vMmq8s5s19L0h6zCl8pwcScI5fU5UCaRLkscEdDRCl4wlZbvN5syXTsuRzut80T1pO+uvbaWBtbH1JbTB1SnsdUkC2pm3G2j9nkxmwaVBR66PXqX3WV2jfjNVZv5vtR28/NXVJ88jn9FhK20XqabcRaZ6acoGz5j68ltQ8pI7kmbzPktK+zMyHb8u/fZ5+gFuTR1z1IFi+Z2mft2/c+Jp+bx1k2AdheQAe1n/w/dwH4rjPQT/Z9pZ1ty5u/VuaZ0w6EPb2c0p9B2yjP583n01uzpXBuYHdGbtGK3u9S6/Vq0CF89sOsd+ca/tO76cnaFL71Pah0nuLvdeqUlml7VA21kfp+vjZ9v/gece7No5tg3XSZukx3R/nfbs57U3bbkD+oNZi3rziBTa3TX/4RbN87TvN8hMfb4M8bfrzm83yNz/y8+8ihe/yRvhOj7VfbigXYNSAkj1uvLy5IJgNEnm/Bq7LdLtSObpPCU6VAk1j60vS7+bVWUxpr0MKyI61TU375+TaKkf3lbbLlL7epr5K+0dTGvgUue9m91NTl5pzQKTBVqljKSBbWy5w3roHpooBS81Dak2eKfssGduXPvjZh8Sw78EAtyZP97l/0FztZ8v61+ofYOv2l9Y3tlN2kB+4D8Rp+8bP3UAnlB9foTCtHcL+B4PR9LM4lb4DthWO3a1nk/fXkOnboo5cH+ValCbpOxs8stdVe31Kr11K+1/KCHmeTstDmbRZ7IfRa356jxvTlW3uXapUVuxTZshuYKyP7Hp7fsXVLXtOpdfGmm3iIkSl8yBd59yL3OdP1ImzZd/2gpybJAnGfv2rgyDQIL35fX+7TVNmVqwlwR23LiGlx0waLBJewEjYoFsuAGdNKUfq5pU1tj5Ht0uf37zg65T20oDflLpMMSUgO9Y2Ne2fkwta1tB6ahumQc591Nej30H2Z8vV5Wl5dv9Tjt2xeqXnmFe2zbPp9wXOjz4waQoPS2sDhZqH1CkPsjX7LKnZV/fglzzoTc0jddWf4+pLlatjjm2b7md/kK9tPhqQzbW3zRMXjbIDJvnsfb9T6btjIv1iz8k0hXbUfm6PFy+PpPRYK5VryoQjPcZL55sc96Zd1/4DxqxrzwctK6x/xuZX6Tlvy1+VM+zncxfbc/RaY/vQtnG8VhX7QX9u2z+5FiNP2nZ47PrPG7lrVcjv9quW6/VF7njo+3N430KdsfOssH5w39I83TXWv56528R1WFk9P+bv5d36cOx/Ifw7uBfdfuqpT8X1P0vaeq28sXtQ2F76visn/Oye56doOWteXsybR17Qc0r65Q9Xgacbn+1nxEqQ9l//brX8Y9ea5W9/ur7dJqkwK9bygo45abBI7CoYJbMJ2zbIJN02DeDZdWJsvWds3/Y8mNJe0jay/dj+U1593OtnSDboannrSm1T2/6eUj1ypB21bG1PO6NU7Ku+JbpPrUcpIKv7qakLAVngkOjD6cjDTM1DavWDbOU+S9x99cGM4WBJBlG6n5o8OoBqy76CQXBfx7oBXD/gqxvkh4+rB+ak/LCsCxyEfDaA24nLcw/ia7r9+g/S3TFyKn13TNI+KOgGWLkBk23rXLld/004fs6NHMu2PdPPSto9tGN3fsbP6+eTOe/0/L5+/foftesK/7GRlq/nFUHZXu35o+0ux3zXjqE/pY2lb3NJ8sQiBve7ZB1G6LnQtltyT6vtQ5U7H4WUZfvIJoKxmxvro3S97QddLuea/py7Npa2idkQ9M9h+WPa9onT3t31TM8jr8zY/sV7kPbbud6XlrPm+mLe3POCnzVJZ8d+5MPN8levra//zjfz66akUMf7MrM3VnvMlABjGiwSuYCsDVjVBI1y5ZTYgJ1X9th6oQE3L5joBRqntJdtg33w6qdK60TaNpu0vzXWLhq01H3Jz+l1JA3IWrus79jxaMveZoasRUAWOFAadOkeQGseUmvyFKzts2RsX/1D3XCwZAdRNXnioqscBGu7VAWu7CBfvkf4eTDoFDZP+Lgqfzwgu9YvcXl1QE3y2zZMkz5In1DfHY3Y31POU6/f19aVyg39IMfP2vGJlbTtvIFqcVl6PiWD17Asd35314TuWpEMcp1tzlrpOLdsu9vrsFy3ws9Tz4Xu2sY1bTK9VnV9VtuHyrnXdKaWhTqldk2vhV3/FK5d6bWxZpu4CEF3DUvay4pt117bnHuR+zwR+3l4nRzpE865lV3NlrVpLFhbm0K9Xgn1kyBSrSkBxjRYJDQglB6fElxLg1p2DKQBNl2WK2cs2DUWkBpbL+WXgqY2kCimtNdY2buQC2Jqm2evG4Ftm03bX+W2F2lw2CtT85Tadlf19Y5Hy7Zprh1tnpq61JwDYmpAtrZc4Hx1DzmZgZw8mIb17UNUzUNqZZ7qfcZFrpp99Q/nw33ZfdTkiYusSx8Ejz1oyvfW+tg2zn2Prv1W9e+CL6u1K/aBWMr3yonLBw/SOf2DuJt/8FB+Sn13LMaOMcMdQEVr60rlJschjNA27iA0bc8uX6EN+3OvLyuW0/ZTWob9LH0UfvauIaP7PSel49zKtXv3c9LfufZX9EPeWNukbVvbh0q2z12/ppaFOqV2Tfsj7d9I71FtGem1sWabuAxBaC/3umWF/uieH5170aptC8+fmT7p9x37227TZjhj286WtUmCsd/9mzZwt/zG036esTRxVqy1bUBWyHIbNNIAlT3mbIBW5AJNdlkabPK2seWOrfeMff+0DlPaS+qz74Cs1i/tl7SeNW0z1v5jpDz5vvZapcFBW27u+JBttc77rq/2Tdpuuly/g5Zp95PmETV1SevvfUcpZ0pAVtSUC5yvPqA1fBBS8SGqfQCteUityTNln3GRa9K+kgdFu4+aPHHRQPoguG/d/vyHXv3e1YP8+P20/bwH4myZcX0r5Kl+AA5lFINvUiddf0p9dyxiX2bbzRgcG3FZq++Tfl2p3NhXawMt9OdDLulxX3M8e+dKcu4OrgF23Wg9OI9apePcsm2b9l1c150PXb/FfpFrqF0vpH/SZVhJ2y8V267rs9o+VKV72tSyUCfXrn1f9H3dn1/9MunzNl8sI7021mwTFyMYO8eE7TPnXuQ9f+o2k+5Bdpu2EGw1W/adN5vlJz7eBnba9E/fapa//7mft5Q2mBVrSXBn24Cs0ICapsG4IbJ5cgGjtJz0uE/Xp+WMrbdyMxtTNtg2pb00cLfvZzgNetrv7fVTTduMtf8YbVNbhlcXbRub55mQbJ32XV8Nmtrt031onh+HZL+X16c1dbF5vO+TnmM1AVkxVi5w3rqH2OQhpl9e/5Ba+yBbu8+Smn31D379YDXdR00e+WzXC9lXumzf+u83aB8Njtn6x7bxB/le28U8xT5yynH7MSfdR8o+2J9a3x0D6R9pu1zS4ynIBmS7Y9QEKHL9Hvpm7TjEijm2vXNr0P59O64HhVRfXn/tiP3SlR/Pi/c///nPf9rm9c4hrMsd5ynb7l7f6TnUn3fD82NtPX1TJMdvbKfBudQvXzsnRvtQdWU4597UslBH2lWP/TR5/aB91OUJx0FYNvhDhnpOaX/VbINO9nkgGqx37kWr9cl1Lp4/ep2sugfZbeIiBJvOlpWA7Fe/sEpSjKRv/WV9UHaLWbEA6mhAtnuOAXCk9AEpeQBde/ipeUitfZCt3WfJ2L7Mg9+Pw7/9X3Y1D+01eYQ+sHfrJ9Z1V8L3awfwSV3Sgeb4IN8MQqP2obhbHx6OZZu0bHng7csIg5eLW99N83i6Oq3vdyA+UH9w+8aNr4V/T6rvDl1s+5oAwuBYSVPa/vaYSRPBWJ9e29K2VHpMy/ruPBi25WCQa86VNPjUnbv9dePW6+Hf7hzJnbtSR5sPOFR6/A+uPc6xO+Ea2Cqdp1PLAo5V6TxI1zn3opqAbNU9KL2nYWgxa15azJuHXvB0LMlrC+SPeoViql5bsOWsWAB1CMgCOGxeECJVkweXj767fBMCCKsBlBn49H2xPhiaUC6isTbr2jsOYiVAGz7bIOpgoOqdK97gVZbFYNXacrc8AuoAcPbkHpQGZftgbH+fcO5FowFZ87l4D0q3wbrlrHl8MW/uekHUsfTof5rlp/+kWX7sWrP87U/9PMyKBS4VAVkAh80LQqRq8uDy0XeXLw5mNgrIim4Wiz+wIiBbKTcbKJUOUHVAHAOq3XLVDZhjX3iD124A7ezblt/mIRgLAIj03tXdI5z7kLD3ottPPfWp9nliJCArxu5B3jZYJ68w8IKpY0lmyX79qyMB2dne30cKAACOBUG940XfXb44mNk4ICu6gZaZJTOhXAAAAOzJctbc8YKpYzNg9Y98ffFz+ffIyuzbuBsAAAAAtXYRkO2D5H05BGQBAACu3mLevOsFUyXpe2JvfLZZ/uZH/fJf/MsqGCvr/vn54TY2hbIfyWsR2h0BAAAAqCOBU/vrgGm63f/6YTYgK/pfe1+tJyALAABwteT9rl4gVZO+liBkdZP8Qa/c7FhNYR8vhrwAAAAAAAAAcN4W8+Y1L4hqkwRlX/tOPyNW0vVPN8v//Ec/f5rCPu61OwMAAAAAAACAc7WcNdcW8+aBF0TdeZo1T8bdAgAAAAAAAMD5WcyaZ93g6T7SrOGP7QIAAAAAAByD0rvMb19cPBez7Ux8x7n7PnTglCzmzZtu8LSQwjYPQ3rkrSulsM39uFsAAAAAAAAcstwfgbx9cfHCvoKywKmLryuoDqy2gdhZ8/fd51nzvbBs0usO5A+Ixd0DAAAAAADgUOUCsk888cS1sPy92xe3fhIXAai0nDXPe0FTLy3mzd2Q/3F57YBZ9kb4/Fj7r8lbSiHvq3H3AAAAAHB1ir+Ke/Pm2vvWLvtXaWUGmlcPALgsowHZ5BqVXlfTa+bFxcXTyfpB2d51Vmfj9tsM9zlW5iHT9tpnYDu0z2dCm/xOZzPv616W3rP2tZ9T0AZZnaCpTSHPQwncxk1km/tm3aOw7lq7fNY8Gz6PzpaVPG1BAAAAAHCV4mBxbeDeD16vbuZXLtgBAJcpd51cBd+GwTYnAPehsOwtvZamgcFgtd5sk5YR9/PBzZs3vySfuzLitbGmzENl7jWv2++4a04b7Rz3rHrtbFcnYGrTIs6KjZtI0PUra3lmTdeftbNlJXgbNwEAAACAqxEH/u5MqjCAbWdc7XMAW8LgFsAhkOuknX1qk71+5oJ+MaDa5pPrau6aq2xAtiszuQ5OLfNQ6fcI3+HL3vfclVzf7BL3rHqLWfOSFyyVtEhmxaqw/FUn7924uiOB27C8m0mbJgnaxqwAAAAAcDVKAdlgdOZW/PwzyReDE90MJxloDwMX64NUm8duq4Nns66r41i5Xp1uXdz6D1u+6gbQvAMSQEa8pqxdJ/sgn3v9aK+f/XWqC55217ZccDDuTwOyEmxdu3bZAGNNmYcovf7a791mCEyQ89vyb9+e/XW/Jo9tL/ns7cveW8I6d7aubKd5Yj7tp64P4vK2v8f2s8o7uIfF++7NO3ZfaRlyXAzLyN7HD9Ji3tzLBUvtrFgrrPNfSeDkD8vkD4a94uUPy7tXHQAAAADAlYiDxexALl2fDi51wJgMKNsBZ8i3FmC1+dI88XO3L2+2Udx/sVyvTl4+IYNaWx4ApNLroJWu0+uPDZKl17ZgEKxt85pAaiyzvc7KtjZfmsx2xTIPkQYVtZ7pZ6H3gSTf4Hpek6f7HNfbNpbPYXnxfiTSbYJV8DQGlAv3rME90+4nrWfQ9aPWtSt3wmsvDtly1lx3gqQPSq8SkHXpNppktm3MtiY3WzYs17YDAAAAgMsXB4duoEGk6+PndHA52N4ZYLbsADcdYIp0MJt+Him3G+DmvlNad+EtAwArd00RcV17/QnXqFVAsXDti4ustQCcvS5JmVp+m7vOWpmHKG3X4n3BLBNj9xNh86RBTNvGxf2m95+kPd16mP5P+rLmHuYGV5NyjvYVFWI5a+4MgqOrWbGPxdWuNo/Zxqaw7l7M5vJmy4bPa686AAAAAIBLkw6IU+l6Oyj0PotcAMEOaHODW8sZEI+WK5+9OgnZ3p91lK8DAJSuk/Z6k7lGaYAte50tXcO6dUkQL7OvTlrmocl9r7Stc9dp+/1r8qTt4bZxfVt1Ae9VAH5V34qAbM09bHW8JMFlr76HHnDPWcybd2NQtDgrVsWA6iMbUF1Ls+Z6zJ4VZ8u+Lfnb8jKvRgAAAACAvYuDvGygIF1vB4XeZxEGiKO/YlszAN51QDYYDHSlniFf9rsDgEivg0quSe01rb9GxWtRH0zT66Fu713H4rWoW5a5znbr+wDkaj81ZR4abZdc0jYtBVvbfGF5TZ6+b9bvE+m6HNmmr9+qP8M2U2bI7iQgGxcNgsL6PeO6gyVB0RgQHZ0Vq+T1AoPgq5dmTdfmY0LelyUgG8p9MS4CAAAAgMsVB3luUDId9It0UOgMEt3gQKpmAJwObguD2cHMV69OSgfPt5966lMymLUDZwDwyDXFBr5sSq9hej3q1odrUVj2jL12yXUoyTO4rnnXsLVtkoDdWJmHpL+2u9fpVUAyrisFW/U71uQJP28VkJWyVu06vGdIu4dttw3I2ntYbUDW6oKzpe9wCCRwWjMr1lrMm7tuENakkOfdmL1KqMf1sM2r8SMAAAAAXK44yHMDsskgsZUOCr1BYje4TQaudjDaD6AHg87BQDQd3ObKjQPibpDr1UmZMr4X/n2QDowBAPvl3Vssuabrei/IKeJ1PxsIFTZPd+2P+7T3iZr7kb1/tWtXNHhcG5CtuYdtEpDt720HHpCdajlrHpfZrF4QNk0y+zZuBgAAAACHLQ7y1gKy/YC5PCjMDRLj8m7w6g14k0Ho2oC3MLi128RBaF9urk5K1rffrZAHALAf8Rrt/kegsPeL/j4wvFesruGre0NNnv5esR6Qlc9j9yPvXiPbxHtJVUDWfC6VOxqQTesm0vqfCnmtgBd89dJi3rwWNwMAAACAwyaDPBlQekkHrlZmcOkGNnWw2pc3HGAKm8cbTKYDXrus324426hUJyGD2Xa7E5tJBACHrgtAJtftVLyOf3D7xo2vhX8lyPlj2a677pvrtwmEZvP0gU8/ICvsvSWsW7sf6b3D5Mm+jiIsa+9ZY/tZ5R20RdUM2fUyTi8YKxbz5p4XfPVSyPtwOWuuxU0BAAAAAIdEBtU6WI6LAAAHyJt1mqrJg+OznDVPeoHXYpo134ibAwAAAAAOSHznHwN3ADh0BGTP13LW3HGDroW0mDdvxs0BAAAAAFdNB+ztr3Y6r04AABweArKHbzFrnl3Mm9ke0kMv6FpKYZtHSRlbp799tvnf8DWXhfTrkNxXJF2yH4R0KHXZhnwPadfcs5qu91L6/Z8OSZbv4xVVHwrprZC8Ni+tw9XzzhV7XMm95FTOJwAAAAAAcIoWs+Yri3lz3wuSHnMK3+nBzT9t/jt8xfdD4jVH+/eZkH4X0ushfRCS915kCZR5/SHvD34vJBtEIyCLGnrc7eM4AQAAAAAA2A/5g1qLefOKF9g8xhS+yxvhOz0WvlouAIjdeyEkaesvhyQBMm/We6k/ZHsbyCUgixpynOT+AwAAAAAAAOCwxdmyb3tBzl2m73yzWX7kw83yV6/56zdNMitWXsMQv46oDcimwUCdsSlBRf352/Ff+6vRKSlH13t5pD4/C0kCfrJe9ynL0wBgqSwNGsoy2VbzeEFEW04ucDVW7zHaRvqqAu/7iFJ/pAHYQwrIal00ed9h2zas6Sfb15LS+u+rnqVyd3l+iLF2sMdWrj2846+mfQEAAAAAAK7Gcta8vJg3j7yg57bp3/9hFRTZdUDWzIq1SgFAS4NwXkBRA05Sbw0O6q9J24CSBHxsoMfLowGkNBCVBpDGytL62jqlQVGRliOf0/aoqfeY2mBqqT/SeuTK2IUpAdn0V+K9bbdtw5p+So+R9JjdVz3Hyt3l+bFJO8hxYrcRY+eTVy4AAAAAAMDVWs6a64t5c88Lfm6afvnDNmjTpl0FZEMd78vM3rbS6yQw0+3TSTbYp4Gdvw7pQUgavPECncIGdXKBrTTwkwtI2gBSTVlesE3Ycrx66zItu7beY9LvlWuz3PfXetj8hxKQlXqU2mLbNpzST2lb2H3sq55j5eb62pZbs++adhD2GBd63uYCsrXlAgAAAAAAHIZdzZZ9581m+YmPN8sbn22Wf3FrNwHZUK9XQv0kuJKTCwDmSH4JAnrBmzQYZgNBXlBIpIG0NJik7PKasjRomAbBbDm5IJ5VW++SXLDNa3ttXy+l30XqJstr6jDVlICsfr9cXbZtwyltLbR+2m5p0HPX9Rwrd1fnR207pOeQV/bU8wAAAAAAAOCwbDtb9g+/aJZf/2qz/Ni1Zvl//7X6eZuA7MisWMsLCpZIcCcNPJUCTppXZvrJz7mk26bBJGWX15S1q4Bsbb1LxspIZzfW9ofXF2O8unizIKcEZEUaBJWk9dq2DacEIrVMbUPZt23PfdWzVO6uzg8CsgAAAAAAAKlNZ8vaP+KlwdlNA7IVs2KtKQFAG3Sy22wzAzCVBpOUXV5TltZ1XzNka2nbeN9J62jXTekPqZsG63bNq5sqrRP2OJG6bduGtf0k+0uDy2lA1tp1PVVa7q7ODwKyAAAAAAAAnqmzZfWPeL35/dXnTQOyE2bFWlMCgBrc+nRIEmDS4JcGnErBMA36pHnSYFEaTFJeAKlUlgbFSgFZrbfNk25XW+8cyaeBOY/OjNT1U/pjrOxt5YKZuf62bJBv2zas6SevLM1Tas9d1tOy5e7q/KhpB5GeQ179p54HAAAAAAAAh28xa15azJuHXvBUk/4Rr2883S/bJCA7cVasVRsA1KCNBv8kyKPb6Tob9JH18t1sgEn2ZfN4gaA0mKTS5WNl5QJKaTkSFEvr7QWvxuqdI9uW2jctayy/pW28r4Cs1i3tj7SOXpul7bpNG4qxftKApi1PtpH20bruq55j5WoZNo/23dTzY6wdhJRj+6wmT025AAAAAAAAh285ax5fzJu7XhBV/4jXFz/XLH//8375lIDshrNiLQnMtEHhTNKgTBrAsQFPDRz9OCQJium2XqBQg2Sa0kBXuh/lLS+VVRuQFbacXBBqrN6e3KzHlNTJtvOhBGSFtqP97l7/pO3jteMmbWiN9ZO2hyap5zMh2bz7qmep3F2eH2KsHdJjvCYgK8bKBQAAAAAAOA7yCgMvmKqvKhhL8oe+fvvT9e0lLWZ7DcbV0oDTWOAROEecHwAAAAAAAJdpOWvueMHUnQRk583dkOeqEXAC8jg/AAAAAAAALtNi3rzrBVNzaeIrCx7JaxHirq4KAScgj/MDAAAAAADgssj7Xb1AailN/aNeYR8vxt0BAAAAAAAAwPlazJvXvCBqKU0OyM6be3F3AAAAAAAAAHCelrPm2mLePPCCqKU0NSDbplnzZNwtAAAAAAAAAJyfxax51g2e7iPNeD8lAAAAAAAAgDO2mDdvusHTQgrb3N1wu/txtwAAAAAAAABwXuLrCh55wVMvhbwPwzbPx83b2bVh2aTXHcgfEIubAwAAAAAAAMD5kOCqFzT10mLe3A35H4+bdsKyx8K6N7xtvBTyvho3BQAAAAAAAIDz0QZZnaCpTSHPYFZsTu1sWckTNwEAAAAAAACA8yCzXb2AqU1twNaZFZtTO1tWgrdxEwAAAAAAAAA4fYtZ85IXLJVUOys2R94TG8q475UtSYK2MSsAAAAAAAAAnL7FvLmXC5ZOmRWbE8qQPxj2SmYfj2R9zAoAAAAAAAAAp2s5a647QdIH+3iVQG62bFj+XMwCAAAAAAAAAKdrOWvuDIKjq1mxj8XVO+fNlg2f78bVAAAAAAAAAHC6FvPm3RgU3cus2Jw4W/btuG95bcHWr0YAAAAAAAAAgIMlQdEYEN3rrNiSsN+XJSAb6vJiXAQAAAAAAAAAp2c5a+5c5qzYnFCP64t582r8CAAAAAAAAAAAAAAAAAAAAAAAAAAAAAAAAAAAAAAAAAAAAOBKNc3/A7g3vlga8YoAAAAAAElFTkSuQmCC;" vertex="1" parent="1">
          <mxGeometry x="330" y="130" width="1380" height="868" as="geometry" />
        </mxCell>
      </root>
    </mxGraphModel>
  </diagram>
</mxfile>
